<svg xmlns="http://www.w3.org/2000/svg" xmlns:xlink="http://www.w3.org/1999/xlink" zoomAndPan="magnify" preserveAspectRatio="xMidYMid meet" version="1.0" viewBox="37.5 112.79 300.07 129.07"><defs><g/><clipPath id="7bcc584669"><path d="M 37.5 154.394531 L 97 154.394531 L 97 201.558594 L 37.5 201.558594 Z M 37.5 154.394531 " clip-rule="nonzero"/></clipPath><clipPath id="11d4c926ba"><path d="M 67.222656 154.394531 C 50.808594 154.394531 37.5 164.953125 37.5 177.976562 C 37.5 191 50.808594 201.558594 67.222656 201.558594 C 83.640625 201.558594 96.945312 191 96.945312 177.976562 C 96.945312 164.953125 83.640625 154.394531 67.222656 154.394531 Z M 67.222656 154.394531 " clip-rule="nonzero"/></clipPath><clipPath id="f9ea80bf06"><path d="M 129.328125 112.792969 L 201.628906 112.792969 L 201.628906 161.375 L 129.328125 161.375 Z M 129.328125 112.792969 " clip-rule="nonzero"/></clipPath><clipPath id="c55f4bd859"><path d="M 165.46875 112.792969 C 145.507812 112.792969 129.328125 123.667969 129.328125 137.082031 C 129.328125 150.5 145.507812 161.375 165.46875 161.375 C 185.429688 161.375 201.609375 150.5 201.609375 137.082031 C 201.609375 123.667969 185.429688 112.792969 165.46875 112.792969 Z M 165.46875 112.792969 " clip-rule="nonzero"/></clipPath><clipPath id="1be8fdf746"><path d="M 281.25 115.746094 L 337.570312 115.746094 L 337.570312 161.375 L 281.25 161.375 Z M 281.25 115.746094 " clip-rule="nonzero"/></clipPath><clipPath id="16d3dc4295"><path d="M 309.375 115.746094 C 293.84375 115.746094 281.25 125.960938 281.25 138.558594 C 281.25 151.160156 293.84375 161.375 309.375 161.375 C 324.90625 161.375 337.5 151.160156 337.5 138.558594 C 337.5 125.960938 324.90625 115.746094 309.375 115.746094 Z M 309.375 115.746094 " clip-rule="nonzero"/></clipPath><clipPath id="3867ca1507"><path d="M 201.609375 192.523438 L 267.617188 192.523438 L 267.617188 236.183594 L 201.609375 236.183594 Z M 201.609375 192.523438 " clip-rule="nonzero"/></clipPath><clipPath id="9d657a17e2"><path d="M 234.558594 192.523438 C 216.363281 192.523438 201.609375 202.296875 201.609375 214.351562 C 201.609375 226.410156 216.363281 236.183594 234.558594 236.183594 C 252.753906 236.183594 267.507812 226.410156 267.507812 214.351562 C 267.507812 202.296875 252.753906 192.523438 234.558594 192.523438 Z M 234.558594 192.523438 " clip-rule="nonzero"/></clipPath><clipPath id="2c389c7bb2"><path d="M 161.199219 204.425781 L 175.757812 204.425781 L 175.757812 218.28125 L 161.199219 218.28125 Z M 161.199219 204.425781 " clip-rule="nonzero"/></clipPath><clipPath id="ee2e15ff54"><path d="M 168.46875 204.425781 L 170.183594 209.71875 L 175.734375 209.71875 L 171.242188 212.988281 L 172.960938 218.28125 L 168.46875 215.011719 L 163.976562 218.28125 L 165.691406 212.988281 L 161.199219 209.71875 L 166.753906 209.71875 Z M 168.46875 204.425781 " clip-rule="nonzero"/></clipPath></defs><g clip-path="url(#7bcc584669)"><g clip-path="url(#11d4c926ba)"><path fill="#38b6ff" d="M 37.5 154.394531 L 97.003906 154.394531 L 97.003906 201.558594 L 37.5 201.558594 Z M 37.5 154.394531 " fill-opacity="1" fill-rule="nonzero"/></g></g><g clip-path="url(#f9ea80bf06)"><g clip-path="url(#c55f4bd859)"><path fill="#8c52ff" d="M 129.328125 112.792969 L 201.628906 112.792969 L 201.628906 161.375 L 129.328125 161.375 Z M 129.328125 112.792969 " fill-opacity="1" fill-rule="nonzero"/></g></g><g clip-path="url(#1be8fdf746)"><g clip-path="url(#16d3dc4295)"><path fill="#ff3131" d="M 281.25 115.746094 L 337.570312 115.746094 L 337.570312 161.375 L 281.25 161.375 Z M 281.25 115.746094 " fill-opacity="1" fill-rule="nonzero"/></g></g><g clip-path="url(#3867ca1507)"><g clip-path="url(#9d657a17e2)"><path fill="#ffde59" d="M 201.609375 192.523438 L 267.445312 192.523438 L 267.445312 236.183594 L 201.609375 236.183594 Z M 201.609375 192.523438 " fill-opacity="1" fill-rule="nonzero"/></g></g><path stroke-linecap="butt" transform="matrix(0.75, 0, 0, 0.75, 51.565432, 135.937491)" fill="none" stroke-linejoin="miter" d="M 19.428384 58.583349 C 15.787759 58.635432 12.402342 58.562516 9.28255 58.375016 C 6.173175 58.197932 3.397133 57.947932 0.949216 57.630224 C 1.100258 54.625015 1.225258 51.135432 1.329425 47.166682 C 1.444008 43.182306 1.548175 39.104181 1.652341 34.927098 C 1.7513 30.739597 1.829425 26.713555 1.881508 22.843763 C 1.933591 18.958346 1.980466 15.567721 2.03255 12.661471 C 2.09505 9.755221 2.152341 7.651054 2.204425 6.343762 C 4.069008 6.239596 5.949217 6.114596 7.839842 5.963554 C 9.740884 5.796887 11.574217 5.713554 13.334634 5.713554 L 17.636717 5.713554 C 19.923176 5.713554 22.048176 5.744804 24.011718 5.812512 C 25.990885 5.859387 27.709635 5.963554 29.173177 6.114596 L 30.501302 6.343762 C 32.683593 6.864596 34.433594 7.645846 35.75651 8.682304 C 37.074219 9.723971 38.084635 10.895846 38.782552 12.203138 C 39.490886 13.500013 39.959636 14.765638 40.188802 16.01043 C 40.428386 17.255221 40.553386 18.343763 40.553386 19.286472 L 40.553386 19.359388 C 40.553386 19.625013 40.553386 20.057305 40.553386 20.656263 C 40.553386 21.250013 40.501302 22.19793 40.397136 23.489597 L 39.292969 26.458347 C 39.292969 27.348972 38.959636 28.125014 38.28776 28.802097 C 37.615885 29.473972 36.917969 30.203139 36.19401 30.989597 C 37.855469 31.963556 39.308594 33.119806 40.553386 34.453139 C 41.792969 35.770848 42.548177 37.395848 42.813802 39.322931 L 42.891927 40.255223 C 42.990886 40.723973 43.058594 41.244806 43.084636 41.817723 C 43.105469 42.385431 43.121094 42.958348 43.121094 43.531265 L 43.121094 44.85939 C 43.121094 45.739598 43.058594 46.567723 42.928386 47.354182 C 42.803386 48.130223 42.683594 48.82814 42.569011 49.447932 L 41.105469 53.119807 C 40.683594 54.51564 39.902344 55.598974 38.761719 56.375016 C 37.621094 57.161474 36.25651 57.692724 34.673177 57.973974 C 33.084635 58.265641 31.433593 58.468766 29.720052 58.583349 L 27.38151 58.583349 C 26.074218 58.520849 24.720051 58.500016 23.308593 58.526057 C 21.912759 58.562516 20.621093 58.583349 19.428384 58.583349 Z M 21.365884 14.927096 C 20.225259 14.927096 19.110676 15.13543 18.016926 15.552096 C 17.970051 15.708346 17.944009 15.890638 17.944009 16.10418 C 17.944009 16.307305 17.944009 16.51043 17.944009 16.713555 L 17.944009 18.125013 C 17.990884 19.052096 18.058593 20.203138 18.131509 21.588555 C 18.209634 22.968763 18.194009 24.593764 18.095051 26.458347 C 18.563801 26.828139 19.251301 27.036472 20.152343 27.088555 C 21.063801 27.13543 21.704426 27.13543 22.074218 27.088555 L 22.397134 27.088555 C 23.792968 27.088555 24.824218 26.739597 25.496093 26.04168 C 26.183593 25.328139 26.60026 24.015638 26.751301 22.098972 C 26.704426 21.265638 26.704426 20.442722 26.751301 19.645847 C 26.803385 18.833346 26.709635 18.078138 26.470051 17.380221 C 26.240885 16.682305 25.605468 16.125013 24.563801 15.708346 L 24.110676 15.458346 C 23.636718 15.359388 23.19401 15.244805 22.777343 15.114596 C 22.355468 14.989596 21.886718 14.927096 21.365884 14.927096 Z M 23.006509 35.192723 C 21.709634 35.192723 20.621093 35.338556 19.730468 35.630223 C 18.855468 35.911473 18.183593 36.312514 17.714842 36.828139 C 17.714842 37.187514 17.699217 37.572931 17.678384 37.989598 C 17.652342 38.411473 17.610676 38.828139 17.563801 39.250014 L 17.563801 40.807306 C 17.511717 42.67189 17.444009 43.958348 17.350259 44.67189 C 17.277342 45.369807 17.240884 46.104182 17.240884 46.880223 C 17.240884 47.197932 17.240884 47.51564 17.240884 47.82814 C 17.240884 48.135432 17.261717 48.468765 17.313801 48.838557 C 17.938801 48.942723 18.667968 49.041682 19.501301 49.145848 C 20.339843 49.244807 20.959634 49.348973 21.365884 49.447932 L 21.522134 49.447932 C 23.548176 49.447932 24.876301 49.151057 25.496093 48.552098 C 26.13151 47.958348 26.449218 47.244807 26.449218 46.42189 C 26.449218 43.401056 26.329426 41.125015 26.089843 39.588556 C 25.860676 38.057306 25.496093 36.979181 25.001301 36.354181 C 24.50651 35.734389 23.839843 35.343764 23.006509 35.192723 Z M 23.006509 35.192723 " stroke="#000000" stroke-width="6.91832" stroke-opacity="1" stroke-miterlimit="4"/><path stroke-linecap="butt" transform="matrix(0.75, 0, 0, 0.75, 51.565432, 135.937491)" fill="none" stroke-linejoin="miter" d="M 75.470055 -7.302072 C 77.756513 -7.302072 79.949222 -7.11978 82.053388 -6.749989 C 84.162764 -6.380197 86.225264 -5.83853 88.240889 -5.114572 C 90.069014 -2.46353 91.433597 0.401054 92.329431 3.468762 C 93.246097 6.526054 93.704431 10.296888 93.704431 14.776055 C 93.704431 15.22918 93.688806 15.692721 93.662764 16.161471 C 93.636722 16.630221 93.626306 17.125013 93.626306 17.645846 L 93.626306 20.140638 C 93.626306 23.01043 93.548181 26.046889 93.397139 29.255222 C 93.397139 33.166681 92.891931 36.286473 91.876306 38.619806 C 90.860681 40.95314 89.402347 42.713556 87.496097 43.89064 C 85.605472 45.057307 83.324222 45.838557 80.647138 46.23439 C 77.970055 46.614598 74.970055 46.802098 71.647138 46.802098 C 68.105471 46.802098 65.074221 46.687515 62.548179 46.458348 C 60.037762 46.218765 57.85547 45.687515 56.001303 44.85939 C 54.162762 44.026056 52.496095 42.776056 50.996095 41.114598 C 49.38672 39.296889 48.225261 37.390639 47.516928 35.385431 C 46.819011 33.380222 46.371094 31.296889 46.183594 29.140639 C 46.006511 26.984389 45.917969 24.765639 45.917969 22.47918 L 45.917969 20.463555 C 46.016928 17.76043 46.183594 15.38543 46.412761 13.328138 C 46.652344 11.270846 46.855469 9.281263 47.022136 7.354179 L 47.324219 5.031262 C 47.376303 4.765637 47.449219 4.489596 47.553386 4.213554 C 47.652344 3.921887 47.787761 3.588554 47.954428 3.22397 L 49.037761 0.34897 C 49.454428 -1.578113 50.881511 -3.08853 53.319011 -4.18228 C 55.766928 -5.270822 58.912762 -6.062488 62.756512 -6.55728 C 66.600262 -7.052072 70.839846 -7.302072 75.470055 -7.302072 Z M 76.402346 5.640637 C 74.574221 5.640637 72.917971 5.744804 71.433596 5.963554 C 69.964846 6.166679 68.798179 6.697929 67.933596 7.562512 C 67.084637 8.411471 66.657554 9.828138 66.657554 11.807304 C 66.657554 12.479179 66.673179 13.208346 66.699221 13.994804 C 66.725262 14.765638 66.735679 15.625013 66.735679 16.562513 L 66.735679 17.265638 C 66.683596 17.619805 66.657554 18.062513 66.657554 18.578138 C 66.657554 19.098971 66.657554 19.645847 66.657554 20.218763 C 66.610679 20.901055 66.631512 21.661472 66.735679 22.500013 C 66.834637 23.32293 66.886721 24.177097 66.886721 25.052097 L 66.886721 28.953139 C 66.886721 30.562514 67.001304 31.692722 67.230471 32.338556 C 67.470054 32.984389 68.006512 33.390639 68.829429 33.557306 C 69.667971 33.708347 70.990888 33.859389 72.808596 34.015639 L 73.98568 34.015639 C 75.850263 34.015639 77.194013 33.677097 78.022138 33.005222 C 78.86068 32.333347 79.39193 31.322931 79.621097 29.979181 C 79.86068 28.619805 79.980472 26.901055 79.980472 24.82293 L 79.980472 23.963555 C 79.725263 20.119805 79.553388 17.005221 79.464847 14.619805 C 79.39193 12.223971 79.277347 10.380221 79.126305 9.083346 C 78.970055 7.776054 78.699221 6.875012 78.308596 6.380221 C 77.912763 5.885429 77.277346 5.640637 76.402346 5.640637 Z M 76.402346 5.640637 " stroke="#000000" stroke-width="6.91832" stroke-opacity="1" stroke-miterlimit="4"/><path stroke-linecap="butt" transform="matrix(0.75, 0, 0, 0.75, 51.565432, 135.937491)" fill="none" stroke-linejoin="miter" d="M 124.735683 -2.697905 L 124.261724 -9.624989 L 124.563808 -9.624989 C 124.985683 -9.624989 125.740891 -9.65103 126.829433 -9.697905 C 127.923183 -9.760405 129.115891 -9.843739 130.407558 -9.947905 C 131.71485 -10.046864 132.912767 -10.124989 134.006517 -10.177072 C 135.095059 -10.223947 135.850267 -10.249989 136.266934 -10.249989 L 136.574225 -10.249989 C 136.574225 -7.703114 136.688809 -4.984363 136.917975 -2.104155 C 137.157559 0.776054 137.27735 3.640637 137.27735 6.494804 L 137.27735 7.750012 L 137.428392 12.583346 L 137.428392 13.515638 L 137.506517 14.927096 C 137.454434 18.567721 137.470059 21.703138 137.542975 24.328138 C 137.631517 26.942722 137.65235 29.500014 137.600267 31.994806 L 137.600267 34.088556 C 137.600267 34.609389 137.569017 35.130223 137.506517 35.651056 C 137.454434 36.171889 137.428392 36.666681 137.428392 37.135431 L 137.199225 40.48439 C 137.048184 41.17189 136.917975 41.885431 136.803392 42.635431 C 136.699225 43.385431 136.522142 44.01564 136.266934 44.536473 L 135.71485 45.791682 L 135.71485 45.64064 C 134.522142 48.177098 132.938808 50.031265 130.959642 51.197932 C 128.990891 52.380224 126.8086 53.135432 124.412766 53.463557 C 122.027349 53.807307 119.584641 53.979182 117.084641 53.979182 L 115.298182 53.979182 C 114.470057 53.979182 113.61589 53.95314 112.725265 53.901057 C 111.839849 53.848974 110.95964 53.776057 110.08464 53.67189 L 107.891932 53.57814 C 106.855473 53.57814 105.944015 53.500015 105.173182 53.348974 L 103.214848 53.04689 C 100.407556 52.307307 98.589848 50.848974 97.751306 48.666682 C 96.928389 46.48439 96.511723 43.89064 96.511723 40.885431 L 96.511723 34.718764 C 96.511723 34.463556 96.501306 34.208347 96.475264 33.958347 C 96.449223 33.692722 96.438806 33.401056 96.438806 33.083347 L 96.438806 30.817722 C 96.438806 28.531264 96.365889 25.703139 96.230473 22.328138 C 96.100264 18.953138 95.985681 15.682305 95.886723 12.510429 L 95.959639 9.083346 C 95.959639 8.916679 95.938806 8.760429 95.886723 8.609387 C 95.834639 8.458346 95.808598 8.296887 95.808598 8.130221 L 95.808598 7.354179 C 95.912764 6.781262 95.949223 6.031262 95.923181 5.104179 C 95.897139 4.166679 95.912764 3.437512 95.959639 2.916679 L 115.600266 4.078137 L 115.220057 6.744804 C 115.121099 9.026054 115.001307 11.296888 114.860682 13.557304 C 114.730474 15.812513 114.667974 18.093763 114.667974 20.390638 L 114.667974 22.786472 C 114.667974 23.942722 114.641932 25.234389 114.595057 26.66668 C 114.542974 28.088555 114.516932 29.552097 114.516932 31.062514 L 114.36589 33.005222 C 114.313807 33.526056 114.287765 33.994806 114.287765 34.411472 C 114.287765 34.833348 114.287765 35.244806 114.287765 35.651056 C 114.287765 37.630223 114.42839 39.104181 114.709641 40.067723 C 115.001307 41.031265 115.391932 41.656265 115.886724 41.947931 C 116.381516 42.229181 116.938807 42.369806 117.563807 42.369806 C 117.928391 42.369806 118.277349 42.354181 118.610682 42.32814 C 118.949224 42.291681 119.298182 42.276056 119.657558 42.276056 L 120.204433 42.276056 C 120.522141 42.276056 120.756516 42.250015 120.912766 42.197931 L 121.996099 42.119806 C 123.136724 41.916681 123.970058 41.479181 124.490891 40.807306 C 125.006516 40.125015 125.350266 39.369806 125.516933 38.541681 C 125.720058 36.515639 125.8086 34.776056 125.782558 33.328139 C 125.756516 31.869806 125.7461 30.854181 125.7461 30.286472 L 125.7461 29.255222 L 125.345058 23.963555 C 125.345058 23.130222 125.3086 22.286472 125.230475 21.432305 C 125.15235 20.57293 125.141933 19.72918 125.194016 18.906263 L 125.266933 16.562513 C 125.266933 15.989596 125.2461 15.44793 125.194016 14.927096 C 125.141933 14.406263 125.115891 13.885429 125.115891 13.364596 L 125.115891 11.807304 C 125.115891 9.989596 125.053391 7.916679 124.928391 5.583346 C 124.798183 3.234387 124.735683 1.072929 124.735683 -0.906238 Z M 124.261724 -9.718739 C 124.209641 -9.718739 124.183599 -9.697905 124.183599 -9.661447 C 124.183599 -9.635405 124.209641 -9.624989 124.261724 -9.624989 Z M 124.261724 -9.718739 " stroke="#000000" stroke-width="6.91832" stroke-opacity="1" stroke-miterlimit="4"/><path stroke-linecap="butt" transform="matrix(0.75, 0, 0, 0.75, 51.565432, 135.937491)" fill="none" stroke-linejoin="miter" d="M 169.397144 -3.859363 C 171.058603 -4.020822 172.720061 -4.104155 174.381519 -4.104155 C 177.454436 -4.104155 180.621103 -3.86978 183.897145 -3.40103 L 184.277353 9.692721 C 184.277353 9.906263 184.251312 10.135429 184.199228 10.380221 C 184.152353 10.604179 184.126312 10.895846 184.126312 11.255221 L 184.126312 12.890638 C 184.126312 13.776054 184.10027 14.66668 184.048187 15.552096 C 183.996103 16.432305 183.97527 17.312513 183.97527 18.19793 L 183.897145 22.328138 C 183.897145 22.63543 183.865895 22.958347 183.803395 23.302097 C 183.751312 23.640638 183.72527 23.963555 183.72527 24.270847 L 183.266937 41.338556 C 183.266937 41.812515 183.282562 42.473973 183.308603 43.338556 C 183.334645 44.187515 183.292978 45.04689 183.19402 45.906265 C 183.089853 46.770848 182.871103 47.51564 182.527353 48.135432 C 182.183603 48.755223 181.652353 49.067723 180.928395 49.067723 L 179.996103 49.067723 C 178.902353 49.067723 177.704436 49.031265 176.397145 48.95314 C 175.105478 48.875015 173.652353 48.729182 172.042978 48.51564 C 171.990894 48.567723 171.912769 48.593765 171.813811 48.593765 C 171.595061 48.593765 171.386728 48.463557 171.183603 48.213557 C 170.980478 47.942723 170.720061 47.60939 170.402353 47.20314 L 170.173186 46.729182 L 169.626311 45.947932 L 167.053394 41.187515 L 163.933602 35.192723 C 163.730477 34.828139 163.558602 34.479181 163.417977 34.145847 C 163.292977 33.807306 163.12631 33.473972 162.923185 33.156264 L 160.735685 28.723972 C 160.53256 28.406264 160.334644 28.083347 160.147143 27.755222 C 159.97006 27.411472 159.803393 27.057305 159.652352 26.687514 L 156.912768 19.609388 L 155.75131 16.79168 L 156.834643 32.531264 L 157.308602 44.614598 L 157.308602 46.880223 C 157.308602 47.401057 157.272143 47.906265 157.199227 48.401057 C 157.121102 48.895848 157.027352 49.354182 156.912768 49.770849 L 156.605477 51.010432 C 156.402352 51.32814 155.68881 51.562515 154.454435 51.713557 C 153.240893 51.864599 151.923185 51.968765 150.516935 52.01564 C 149.121101 52.07814 148.006518 52.161474 147.167976 52.26564 C 145.871101 52.26564 144.980476 52.145849 144.485684 51.901057 C 143.990892 51.677099 143.740892 50.963557 143.740892 49.770849 L 143.740892 46.651057 C 143.740892 46.130223 143.714851 45.598973 143.667976 45.052098 C 143.615892 44.505223 143.589851 43.973973 143.589851 43.45314 L 143.589851 38.541681 C 143.589851 37.869806 143.579434 37.260431 143.553392 36.718764 C 143.527351 36.171889 143.511726 35.614598 143.511726 35.041681 L 143.511726 31.520847 L 142.735684 1.91147 L 142.735684 1.833345 L 142.657559 1.833345 C 142.391934 1.833345 141.834642 1.822929 140.980476 1.796887 C 140.121101 1.770845 139.167975 1.744804 138.126309 1.718762 C 137.08985 1.682304 136.141934 1.651054 135.292975 1.625012 C 134.428392 1.59897 133.8711 1.583345 133.615892 1.583345 C 133.569017 0.609387 133.553392 -0.255196 133.579433 -0.999988 C 133.605475 -1.765613 133.615892 -2.947905 133.615892 -4.562488 C 133.615892 -6.906239 133.735683 -8.406239 133.980475 -9.052072 C 134.209642 -9.697905 134.8086 -10.020822 135.787767 -10.020822 C 136.053392 -10.020822 136.319017 -10.010405 136.584642 -9.984364 C 136.83985 -9.958322 137.1211 -9.947905 137.423184 -9.947905 C 140.339851 -10.203114 146.423184 -10.354155 155.673185 -10.406239 C 156.09506 -10.406239 156.53256 -9.86978 156.985685 -8.80728 C 157.454435 -7.739572 157.93881 -6.515614 158.433602 -5.130197 C 158.928393 -3.760405 159.360685 -2.614572 159.725268 -1.687488 L 161.917977 3.395845 C 163.412769 6.666679 164.59506 9.223971 165.454436 11.062513 C 166.319019 12.901054 166.954436 14.281263 167.360686 15.192721 C 167.777352 16.10418 168.074227 16.723971 168.251311 17.036471 C 168.444019 17.343763 168.589852 17.598971 168.688811 17.802096 L 169.167977 18.750013 C 169.266936 18.906263 169.371102 19.057305 169.470061 19.208346 C 169.574227 19.359388 169.673186 19.520847 169.777352 19.682305 L 169.777352 18.906263 C 169.777352 18.63543 169.777352 18.312513 169.777352 17.932305 C 169.777352 17.54168 169.761727 16.91668 169.735686 16.067721 C 169.714852 15.203138 169.673186 13.916679 169.626311 12.203138 C 169.574227 10.479179 169.522144 8.187512 169.470061 5.333346 C 169.470061 4.296887 169.423186 3.151054 169.319019 1.91147 C 169.220061 0.651054 169.167977 -1.166655 169.167977 -3.552072 C 169.167977 -3.604155 169.194019 -3.692697 169.240894 -3.817697 C 169.292977 -3.958322 169.319019 -4.02603 169.319019 -4.02603 C 169.371102 -4.02603 169.397144 -3.968738 169.397144 -3.859363 Z M 169.397144 -3.859363 " stroke="#000000" stroke-width="6.91832" stroke-opacity="1" stroke-miterlimit="4"/><path stroke-linecap="butt" transform="matrix(0.75, 0, 0, 0.75, 51.565432, 135.937491)" fill="none" stroke-linejoin="miter" d="M 194.105479 0.729179 C 196.386729 -0.249988 199.167979 -0.99478 202.438813 -1.515613 C 205.714855 -2.036447 209.975272 -2.11978 215.23048 -1.765613 C 217.829439 -1.812488 220.386731 -1.578113 222.897148 -1.05728 C 225.423189 -0.541655 227.438815 0.552095 228.949231 2.213554 L 230.11069 7.197929 C 230.428398 8.343762 230.688815 9.526054 230.89194 10.760429 C 231.105481 11.973971 231.214856 13.208346 231.214856 14.453138 L 231.365898 18.906263 C 231.365898 19.057305 230.725273 19.156263 229.444023 19.208346 C 228.178398 19.26043 226.605481 19.286472 224.725273 19.286472 C 222.860689 19.286472 220.990897 19.307305 219.110689 19.359388 C 217.246106 19.411472 215.678397 19.505222 214.412772 19.645847 C 213.141939 19.770847 212.506522 19.963555 212.506522 20.218763 C 212.459647 18.82293 212.402355 17.656263 212.334647 16.713555 C 212.287772 15.776055 212.26173 14.843763 212.26173 13.916679 C 212.376314 13.500013 212.360689 12.963554 212.220064 12.317721 C 212.095064 11.661471 211.954439 11.067721 211.803397 10.546888 C 211.079439 10.244804 210.459647 10.067721 209.938813 10.015638 C 209.41798 9.963554 208.897147 9.942721 208.376313 9.942721 C 207.694022 9.890638 207.204438 9.927096 206.912772 10.052096 C 206.631522 10.182304 206.209647 10.427096 205.63673 10.796888 L 205.334646 11.098971 C 204.813813 11.776054 204.470063 12.489596 204.303396 13.250013 C 204.152355 14.000013 204.027355 14.921888 203.923188 16.01043 L 203.923188 18.97918 C 204.188813 21.213555 204.360688 22.958347 204.438813 24.213555 C 204.516938 25.458347 204.537771 26.520847 204.516938 27.411472 C 204.490896 28.286472 204.475271 29.317722 204.475271 30.510431 L 204.933605 34.187514 C 205.048188 35.276056 205.183605 36.005223 205.334646 36.375014 C 205.485688 36.729181 205.63673 36.968764 205.787771 37.098973 C 205.954438 37.223973 206.063813 37.473973 206.115897 37.838556 L 207.522147 38.541681 C 207.777355 38.911473 208.016938 39.239598 208.246105 39.531264 C 208.485688 39.812515 208.79298 39.95314 209.157563 39.95314 C 211.07423 39.95314 212.433605 39.718765 213.23048 39.250014 C 214.04298 38.776056 214.537772 38.130223 214.714855 37.307306 C 214.907564 36.468764 214.944022 35.541681 214.829439 34.526056 C 214.73048 33.510431 214.709647 32.458347 214.772147 31.369806 C 214.709647 31.369806 215.235689 31.354181 216.350272 31.333347 C 217.480481 31.307306 218.902356 31.291681 220.615897 31.291681 C 222.329439 31.291681 224.053398 31.333347 225.792981 31.406264 C 227.527356 31.484389 228.980481 31.630222 230.147148 31.843764 C 231.32944 32.046889 231.917982 32.359389 231.917982 32.776056 L 232.147148 35.343764 L 232.147148 35.822931 C 232.147148 36.848973 232.121107 37.885431 232.069023 38.921889 C 232.022148 39.963556 231.834648 41.114598 231.522148 42.369806 L 231.214856 43.375015 C 230.64194 44.520848 229.964856 45.583348 229.178398 46.572932 L 228.01694 47.505223 C 226.61069 48.651057 224.761731 49.479182 222.480481 50.000015 C 220.194022 50.520849 217.865897 50.843765 215.496105 50.968765 C 213.13673 51.098974 211.07423 51.161474 209.308605 51.161474 C 207.647147 51.161474 205.91798 51.098974 204.115896 50.968765 C 202.32423 50.843765 200.652354 50.520849 199.089854 50.000015 L 196.996104 49.218765 C 196.428396 49.067723 195.824229 48.82814 195.188812 48.494807 C 194.569021 48.156265 194.053396 47.79689 193.647146 47.432307 L 193.251312 47.10939 L 191.990896 45.869807 L 191.058604 44.614598 C 190.704437 44.156265 190.355479 43.604181 190.011729 42.958348 C 189.673187 42.29689 189.449229 41.708348 189.345062 41.187515 L 188.339854 38.541681 C 188.235687 37.755223 188.105479 37.000014 187.938812 36.281264 C 187.78777 35.557306 187.709645 34.932306 187.709645 34.411472 C 187.709645 33.942722 187.657562 33.463556 187.558604 32.968764 C 187.454437 32.473972 187.407562 31.963556 187.407562 31.442722 L 187.25652 28.020847 C 187.25652 27.755222 187.220062 27.494805 187.157562 27.239597 C 187.110687 26.973972 187.084645 26.713555 187.084645 26.458347 L 187.084645 25.375014 C 187.199229 20.119805 187.407562 15.833346 187.709645 12.510429 C 188.027354 9.187513 188.673187 6.588554 189.652354 4.723971 C 190.641937 2.84897 192.126312 1.515637 194.105479 0.729179 Z M 194.105479 0.729179 " stroke="#000000" stroke-width="6.91832" stroke-opacity="1" stroke-miterlimit="4"/><path stroke-linecap="butt" transform="matrix(0.75, 0, 0, 0.75, 51.565432, 135.937491)" fill="none" stroke-linejoin="miter" d="M 269.798192 42.119806 L 235.183607 43.302098 C 234.876315 43.302098 234.667982 43.187515 234.553398 42.958348 C 234.45444 42.718765 234.402357 42.489598 234.402357 42.276056 C 234.402357 42.072931 234.412773 41.89064 234.438815 41.739598 C 234.464857 41.588556 234.475273 41.45314 234.475273 41.338556 L 234.475273 39.473973 C 234.475273 38.958348 234.51694 38.359389 234.589857 37.687514 C 234.678398 37.015639 234.751315 36.390639 234.803398 35.822931 L 235.027357 17.57293 L 235.027357 16.562513 L 235.105482 15.630221 L 234.95444 1.833345 L 234.251315 1.833345 C 233.881523 1.833345 233.194023 1.843762 232.194023 1.869804 C 231.178398 1.895845 230.063815 1.932304 228.845065 1.984387 C 227.615898 2.03647 226.464856 2.072929 225.397148 2.09897 C 224.334648 2.125012 223.542981 2.135429 223.022148 2.135429 C 222.501314 2.135429 222.162773 2.062512 222.011731 1.91147 C 221.860689 1.744804 221.782564 1.53647 221.782564 1.281262 C 221.782564 1.026054 221.824231 0.739595 221.897148 0.427095 C 221.975273 0.109387 222.011731 -0.203113 222.011731 -0.505196 L 222.011731 -6.520822 C 222.011731 -8.18228 222.089856 -9.229155 222.240898 -9.661447 C 222.391939 -10.104155 222.688814 -10.312489 223.136731 -10.291655 C 223.579439 -10.265614 224.246106 -10.302072 225.131523 -10.406239 L 228.32944 -10.406239 C 235.183607 -10.249989 240.902357 -10.124989 245.496107 -10.020822 C 250.100274 -9.921864 253.819025 -9.843739 256.64715 -9.796864 C 259.4909 -9.74478 261.673192 -9.718739 263.194025 -9.718739 C 264.730484 -9.718739 265.819025 -9.718739 266.470067 -9.718739 C 267.126317 -9.718739 267.610692 -9.718739 267.912776 -9.718739 L 268.772151 -9.624989 L 268.772151 -8.234364 C 268.772151 -6.624989 268.709651 -5.010405 268.579442 -3.40103 C 268.454442 -1.786447 268.438817 -0.15103 268.542984 1.510429 C 267.553401 1.510429 266.329442 1.520845 264.871109 1.546887 C 263.423192 1.572929 261.933609 1.59897 260.39715 1.625012 C 258.860692 1.651054 257.485692 1.69272 256.266941 1.75522 C 255.048191 1.807304 254.1784 1.859387 253.662775 1.91147 L 252.954441 12.890638 L 253.506525 13.041679 L 254.746108 13.041679 L 264.641942 13.364596 C 264.95965 13.364596 265.266942 13.390638 265.574234 13.442721 C 265.891942 13.494804 266.20965 13.515638 266.527359 13.515638 C 266.527359 14.557305 266.6159 15.781263 266.792984 17.192721 C 266.970067 18.588555 266.907567 20.140638 266.600275 21.85418 C 266.548192 22.223972 266.0534 22.515638 265.1159 22.72918 C 264.1784 22.932305 263.100275 23.057305 261.881525 23.109388 C 260.662775 23.161472 259.532567 23.187513 258.496108 23.187513 C 257.454442 23.187513 256.751317 23.187513 256.381525 23.187513 L 251.792983 23.567722 C 251.730483 24.401055 251.610691 25.552097 251.433608 27.01043 C 251.256524 28.458347 251.115899 30.093764 251.016941 31.921889 L 263.631525 31.671889 C 263.89715 31.671889 264.45965 31.703139 265.308609 31.770847 C 266.167984 31.817722 267.027359 31.906264 267.876317 32.036472 C 268.740901 32.161472 269.298192 32.359389 269.553401 32.625014 C 269.553401 33.968764 269.662776 35.437514 269.891942 37.020848 C 270.136734 38.609389 270.105484 40.307306 269.798192 42.119806 Z M 269.798192 42.119806 " stroke="#000000" stroke-width="6.91832" stroke-opacity="1" stroke-miterlimit="4"/><path stroke-linecap="butt" transform="matrix(0.75, 0, 0, 0.75, 51.565432, 135.937491)" fill="none" stroke-linejoin="miter" d="M 273.074234 1.833345 L 265.516942 1.833345 C 265.621109 1.364595 265.667984 0.671887 265.667984 -0.239571 C 265.667984 -1.156238 265.667984 -2.286447 265.667984 -3.630197 C 265.667984 -4.718738 265.694025 -5.786447 265.746109 -6.828114 C 265.798192 -7.864572 265.824234 -8.697905 265.824234 -9.317697 C 265.824234 -9.583322 267.657567 -9.74478 271.324234 -9.796864 C 274.990901 -9.843739 280.90236 -9.973947 289.05861 -10.177072 L 299.506528 -9.718739 C 302.095069 -9.770822 304.22007 -9.322905 305.881528 -8.385405 C 307.542987 -7.447905 308.881528 -6.197905 309.897153 -4.635405 C 310.912778 -3.078113 311.730487 -1.312488 312.350278 0.651054 C 312.824237 4.546887 312.923195 7.692721 312.65757 10.093763 C 312.402362 12.479179 311.891945 14.32293 311.115903 15.630221 C 310.746112 16.557305 310.079445 17.255221 309.115903 17.723971 C 308.167987 18.192721 307.147153 18.536471 306.053403 18.750013 C 304.964861 18.953138 304.048195 19.10418 303.31382 19.208346 C 306.636736 19.932305 309.016945 20.921888 310.449237 22.177097 C 311.881528 23.421888 312.75132 24.82293 313.058612 26.380222 C 313.37632 27.942722 313.53257 29.604181 313.53257 31.369806 L 313.53257 34.411472 L 314.542987 58.583349 L 314.694029 65.130225 L 314.84507 65.984391 C 314.84507 66.338558 314.225279 66.58335 312.980487 66.70835 C 311.735695 66.848975 310.28257 66.916683 308.621112 66.916683 C 307.214861 66.916683 305.808611 66.890641 304.397153 66.843766 C 303.00132 66.791683 301.824236 66.734391 300.855486 66.671891 C 299.891944 66.619808 299.308611 66.593766 299.105486 66.593766 L 298.480486 38.619806 L 298.480486 32.302097 C 298.480486 30.791681 298.167986 29.427097 297.548194 28.208347 C 296.923194 26.989597 296.209652 26.020847 295.397152 25.296889 C 294.595069 24.562514 293.860694 24.192722 293.188819 24.192722 L 292.162777 24.192722 C 291.438819 24.244805 290.970069 24.281263 290.751319 24.307305 C 290.548194 24.333347 290.063819 24.47918 289.287777 24.744805 C 289.287777 25.16668 289.287777 25.661472 289.287777 26.22918 C 289.287777 26.802097 289.313819 27.708347 289.365902 28.953139 C 289.412777 30.192722 289.46486 32.067722 289.516944 34.567723 C 289.569027 37.067723 289.615902 40.416681 289.667985 44.614598 L 289.667985 44.85939 C 286.08986 45.48439 283.053402 45.85939 280.553401 45.98439 C 278.063818 46.10939 275.647151 46.255223 273.303401 46.42189 L 272.371109 46.177098 L 273.147151 14.848971 Z M 288.428402 11.177096 L 288.355485 16.79168 C 289.548194 16.588555 290.725277 16.536471 291.897152 16.640638 C 293.063819 16.739596 294.011736 16.380221 294.751319 15.552096 L 294.824236 11.651054 L 294.579444 2.843762 C 294.069027 1.901054 293.324236 1.145845 292.334652 0.578137 C 291.345069 0.00522024 290.251319 -0.0468631 289.05861 0.427095 L 288.886735 3.06772 Z M 328.959655 -11.354156 C 331.66278 -11.458322 334.391947 -11.593739 337.141947 -11.776031 C 339.897155 -11.953114 342.699239 -11.838531 345.553406 -11.432281 C 348.777364 -11.265614 351.074239 -10.999989 352.444031 -10.630197 C 353.829448 -10.27603 354.85549 -9.973947 355.527365 -9.718739 L 356.001323 -9.546864 C 357.04299 -8.822905 357.938823 -7.671864 358.688823 -6.083322 C 359.44924 -4.499988 359.829448 -3.109363 359.829448 -1.916655 L 360.282573 1.833345 C 360.334657 2.822929 360.360698 3.640637 360.360698 4.286471 C 360.360698 4.937512 360.360698 5.609387 360.360698 6.307304 C 360.360698 7.005221 360.360698 7.927096 360.360698 9.083346 C 358.600282 9.286471 356.959656 9.401054 355.44924 9.427096 C 353.954448 9.453138 352.319031 9.463554 350.542989 9.463554 C 348.928406 9.463554 347.371114 9.302096 345.860697 8.968762 C 344.360697 8.625012 342.808614 8.406262 341.199239 8.302096 C 341.199239 5.385429 341.10028 3.31772 340.91278 2.09897 C 340.735697 0.88022 340.345072 0.156262 339.751322 -0.0676964 C 339.152364 -0.312488 338.178405 -0.43228 336.81903 -0.43228 C 335.574238 -0.380196 334.657572 -0.223946 334.058613 0.0416786 C 333.464863 0.296887 333.115905 0.932304 333.011738 1.947929 C 332.91278 2.963554 332.938822 4.635429 333.089863 6.973971 C 333.089863 7.541679 333.25653 8.036471 333.584655 8.458346 C 333.928405 8.875012 334.230488 9.083346 334.496113 9.083346 L 339.558614 10.166679 C 341.589864 10.640638 343.548197 11.057304 345.438822 11.427096 C 347.345072 11.781263 349.329448 12.114596 351.397156 12.432304 C 354.569031 13.307304 356.871115 14.63543 358.303407 16.411471 C 359.740907 18.171888 360.631532 20.22918 360.990907 22.578138 C 361.35549 24.911472 361.54299 27.348972 361.54299 29.885431 L 361.615907 31.770847 L 361.615907 32.375014 C 361.615907 34.307306 360.76174 36.140639 359.048198 37.875014 C 357.334656 39.614598 354.808615 41.031265 351.475281 42.119806 C 348.152364 43.213556 344.042989 43.760431 339.16278 43.760431 L 336.136738 43.760431 C 335.970072 43.760431 335.75653 43.73439 335.485697 43.682306 C 335.235697 43.630223 334.980488 43.604181 334.72528 43.604181 L 334.496113 43.604181 L 331.605488 43.302098 C 327.964863 43.135431 325.053404 42.494806 322.871113 41.380223 C 320.688821 40.260431 319.079446 38.911473 318.037779 37.322931 C 316.996112 35.739598 316.31382 34.088556 315.980487 32.375014 C 315.636737 30.666681 315.47007 29.161472 315.47007 27.869805 C 315.47007 27.244805 315.428404 26.776055 315.355487 26.458347 C 315.277362 26.140639 315.423195 25.906264 315.792987 25.755222 C 316.147154 25.60418 316.944029 25.515639 318.188821 25.489597 C 319.444029 25.463555 321.397154 25.44793 324.048196 25.44793 C 328.56903 25.44793 331.683613 25.463555 333.397155 25.489597 C 335.105488 25.515639 335.964863 25.708347 335.964863 26.078139 L 335.964863 26.307305 C 335.860697 27.296889 335.813822 28.208347 335.813822 29.046889 C 335.813822 29.869806 335.813822 30.520847 335.813822 30.989597 C 335.813822 31.916681 336.209655 32.500014 337.011738 32.739597 C 337.824238 32.968764 338.621114 33.083347 339.407572 33.083347 C 341.220072 33.083347 342.50653 32.760431 343.251322 32.109389 C 344.011739 31.463556 344.391947 30.463556 344.391947 29.10418 C 344.391947 27.494805 344.209656 25.989597 343.845072 24.593764 C 343.475281 23.187513 342.334655 22.223972 340.417989 21.703138 L 339.407572 21.473972 C 339.089864 21.369805 338.735697 21.281263 338.345072 21.208347 C 337.959655 21.119805 337.563822 21.020847 337.141947 20.921888 L 326.069029 18.276055 C 325.714863 18.171888 325.324238 18.062513 324.907571 17.932305 C 324.485696 17.79168 324.069029 17.645846 323.652363 17.494805 L 321.938821 16.713555 C 320.798196 16.296888 319.855487 15.489596 319.121112 14.296888 C 318.397154 13.104179 317.850279 11.755221 317.485695 10.244804 C 317.131529 8.734387 316.954445 7.333346 316.954445 6.036471 C 316.954445 4.427096 317.042987 2.640637 317.22007 0.671887 C 317.40757 -1.30728 317.813821 -3.192697 318.438821 -4.979155 C 319.058612 -6.781239 320.027362 -8.265614 321.350279 -9.43228 C 322.678404 -10.598947 324.485696 -11.18228 326.772154 -11.18228 L 327.553404 -11.18228 Z M 328.959655 -11.354156 " stroke="#000000" stroke-width="6.91832" stroke-opacity="1" stroke-miterlimit="4"/><path stroke-linecap="butt" transform="matrix(0.75, 0, 0, 0.75, 51.565432, 135.937491)" fill="none" stroke-linejoin="miter" d="M 103.256515 86.343768 L 98.501306 86.572934 C 98.766931 84.541684 98.813806 82.541684 98.636723 80.578142 C 98.444014 78.598975 98.449223 76.703142 98.652348 74.885433 L 100.839848 74.812517 C 101.14714 74.812517 102.042973 74.744808 103.527348 74.619808 C 105.011723 74.479183 106.86589 74.33335 109.100265 74.182308 C 111.33464 74.031267 113.777349 73.916683 116.428391 73.838558 C 119.079432 73.750017 121.746099 73.734392 124.423183 73.781267 C 127.100266 73.83335 129.631516 74.041683 132.011725 74.411475 C 133.83985 74.463558 135.220059 74.656267 136.141934 75.000017 C 137.084642 75.33335 137.876309 75.838559 138.522142 76.52085 C 139.1836 77.197934 139.897142 78.151059 140.673184 79.39585 C 141.397142 82.312517 141.860684 85.177101 142.063809 87.979184 C 142.277351 90.781268 142.152351 93.484393 141.683601 96.08856 C 141.428392 97.02606 141.027351 97.80731 140.480476 98.427102 C 139.938809 99.046893 139.355475 99.645852 138.730475 100.218768 L 137.553392 100.99481 L 136.069017 101.625019 C 136.803392 104.380227 137.324225 106.843769 137.626309 109.026061 C 137.944017 111.208353 138.256517 113.182311 138.5586 114.947936 C 138.876309 116.708353 139.4336 118.333353 140.235684 119.817728 C 141.048184 121.302103 142.308601 122.71877 144.022142 124.06252 L 149.485684 124.765645 L 162.027352 125.166687 L 162.350269 136.468771 C 161.360685 136.468771 160.865894 136.520854 160.865894 136.625021 L 152.355476 136.625021 C 151.011726 136.625021 149.339851 136.552104 147.334643 136.411479 C 145.329434 136.286479 143.339851 136.036479 141.360684 135.671896 C 139.391934 135.317729 137.735684 134.802104 136.391934 134.130229 C 134.9336 133.557312 133.548183 132.755229 132.240892 131.713562 C 130.949225 130.671895 129.8086 129.322937 128.819016 127.661479 L 128.282558 126.953145 L 127.256516 124.765645 C 127.204433 124.614603 127.157558 124.416687 127.105475 124.177103 C 127.053391 123.947937 126.975266 123.755228 126.876308 123.604187 L 126.569016 122.197937 C 126.459641 121.828145 126.334641 121.213562 126.209641 120.348978 C 126.084641 119.50002 125.944016 118.036478 125.792975 115.953145 C 125.574225 115.078144 125.360683 113.968769 125.141933 112.625019 C 124.938808 111.265644 124.641933 109.901061 124.251308 108.531269 C 123.871099 107.151061 123.324224 105.963561 122.610683 104.973977 C 121.912766 103.984394 120.944016 103.411477 119.699224 103.260435 L 119.548182 111.979186 C 119.548182 113.067728 119.537766 114.161478 119.511724 115.250019 C 119.485682 116.34377 119.459641 117.640645 119.433599 119.151061 C 119.407557 120.661478 119.397141 122.609395 119.397141 124.994812 C 116.173182 124.994812 113.235682 124.723978 110.58464 124.177103 C 107.933598 123.630228 105.61589 123.307312 103.636723 123.208353 L 103.636723 122.979187 C 103.636723 122.354187 103.626306 121.703145 103.600265 121.015645 C 103.574223 120.34377 103.511723 119.401061 103.412765 118.182311 C 103.308598 116.963561 103.183598 115.286478 103.032556 113.156269 L 103.032556 107.239602 C 103.032556 106.552102 103.042973 105.838561 103.069015 105.08856 C 103.095056 104.328144 103.105473 103.55731 103.105473 102.786477 L 103.105473 101.625019 L 103.032556 98.427102 C 103.032556 98.010435 103.032556 97.265643 103.032556 96.203143 C 103.032556 95.135435 103.05339 93.953143 103.105473 92.661476 C 103.157556 91.354185 103.194015 90.130226 103.220056 88.989601 C 103.246098 87.848976 103.256515 86.963559 103.256515 86.343768 Z M 118.694016 93.515643 L 122.667974 93.515643 C 123.391933 93.515643 123.907558 93.218768 124.209641 92.625018 C 124.527349 92.015643 124.610683 91.296893 124.459641 90.473976 L 123.985683 86.265643 C 123.985683 86.151059 123.647141 86.031268 122.975266 85.906268 C 122.303391 85.776059 120.740891 85.739601 118.292974 85.791684 C 118.240891 86.312518 118.256516 87.114601 118.329432 88.208351 C 118.417974 89.296893 118.542974 91.067726 118.694016 93.515643 Z M 118.694016 93.515643 " stroke="#000000" stroke-width="6.91832" stroke-opacity="1" stroke-miterlimit="4"/><path stroke-linecap="butt" transform="matrix(0.75, 0, 0, 0.75, 51.565432, 135.937491)" fill="none" stroke-linejoin="miter" d="M 171.386728 76.276059 C 173.417978 76.328142 175.688811 76.432309 178.199228 76.598975 C 180.72527 76.750017 183.183603 76.89585 185.56902 77.036475 C 187.964854 77.161475 189.970062 77.229184 191.579437 77.229184 C 191.579437 77.380225 191.595062 77.52085 191.615896 77.64585 C 191.641937 77.77085 191.657562 77.916684 191.657562 78.08335 C 191.657562 78.755225 191.574229 79.45835 191.407562 80.197934 C 191.256521 80.921892 191.178396 81.640642 191.178396 82.364601 L 190.725271 112.223978 C 190.725271 113.052103 190.985687 113.609394 191.506521 113.901061 C 192.022146 114.177103 192.516937 114.317728 192.990896 114.317728 C 195.220062 114.317728 196.871104 114.218769 197.938813 114.015644 C 199.001313 113.796894 199.532563 113.354186 199.532563 112.682311 C 199.532563 112.265644 199.558604 111.744811 199.610688 111.119811 C 199.662771 110.500019 199.636729 109.776061 199.532563 108.953144 L 199.365896 105.43231 C 199.313813 104.80731 199.277354 104.187519 199.251313 103.567727 C 199.225271 102.942727 199.209646 102.296894 199.209646 101.625019 L 199.209646 100.36981 C 199.209646 99.74481 199.188813 99.114602 199.136729 98.46356 C 199.084646 97.817727 199.058604 97.177102 199.058604 96.541685 L 198.985688 92.109393 C 198.985688 91.536476 198.959646 90.927101 198.907563 90.281268 C 198.855479 89.625018 198.829438 88.958351 198.829438 88.286476 L 198.829438 82.822934 C 198.829438 82.250017 198.819021 81.723976 198.792979 81.244809 C 198.766938 80.750017 198.756521 80.182309 198.756521 79.546892 C 198.756521 78.45835 198.709646 77.473975 198.621104 76.598975 C 198.542979 75.713559 198.506521 75.140642 198.506521 74.885433 L 213.865897 75.036475 C 213.865897 77.473975 213.839855 79.604184 213.787772 81.432309 C 213.740897 83.250017 213.688814 84.958351 213.63673 86.572934 C 213.584647 88.182309 213.558605 89.869809 213.558605 91.635435 L 213.63673 93.895851 L 213.63673 98.02606 L 213.714855 102.406269 L 213.787772 104.270852 L 213.714855 106.135436 L 213.787772 109.255227 L 213.714855 112.151061 C 213.714855 114.536478 213.058605 116.692728 211.751314 118.619811 C 210.459647 120.536478 208.657563 122.078145 206.350272 123.244812 C 204.037771 124.411478 201.402355 125.130228 198.433604 125.395853 L 193.923187 125.62502 C 193.402354 125.671895 192.907562 125.713562 192.438812 125.734395 C 191.964854 125.760437 191.522146 125.776062 191.105479 125.776062 L 187.75652 125.776062 C 187.28777 125.776062 186.813812 125.760437 186.345062 125.734395 C 185.876312 125.713562 185.438812 125.671895 185.032562 125.62502 L 182.464853 125.395853 C 181.157562 125.291687 179.813811 125.09377 178.428395 124.802103 C 177.058603 124.526062 175.81902 124.005228 174.699228 123.244812 C 173.584644 122.494812 172.766936 121.390645 172.246103 119.932311 L 172.016936 118.848978 C 172.016936 118.796895 172.006519 118.760436 171.980478 118.734395 C 171.954436 118.708353 171.938811 118.671895 171.938811 118.619811 L 171.845061 117.057311 C 171.792978 116.895853 171.766936 116.609395 171.766936 116.203145 L 171.766936 115.250019 C 171.766936 114.375019 171.704436 113.291686 171.579436 111.994811 C 171.454436 110.687519 171.339853 108.786477 171.235686 106.286477 L 171.235686 89.390643 C 171.235686 88.755226 171.251311 88.114601 171.272144 87.463559 C 171.298186 86.817726 171.313811 86.161476 171.313811 85.484393 L 171.313811 80.255226 C 171.313811 79.947934 171.324228 79.671892 171.350269 79.416684 C 171.376311 79.151059 171.386728 78.859392 171.386728 78.541684 Z M 171.386728 76.276059 " stroke="#000000" stroke-width="6.91832" stroke-opacity="1" stroke-miterlimit="4"/><path stroke-linecap="butt" transform="matrix(0.75, 0, 0, 0.75, 51.565432, 135.937491)" fill="none" stroke-linejoin="miter" d="M 229.694023 57.645849 C 232.397148 57.541682 235.126315 57.406266 237.876315 57.223974 C 240.631524 57.046891 243.433607 57.161474 246.287774 57.567724 C 249.511733 57.734391 251.808608 58.000016 253.1784 58.369807 C 254.563816 58.723974 255.589858 59.026057 256.261733 59.281266 L 256.735692 59.453141 C 257.777358 60.177099 258.673192 61.328141 259.423192 62.916683 C 260.183608 64.500016 260.563817 65.890641 260.563817 67.08335 L 261.02215 70.83335 C 261.069025 71.822933 261.095067 72.640642 261.095067 73.286475 C 261.095067 73.937517 261.095067 74.609392 261.095067 75.307309 C 261.095067 76.005225 261.095067 76.9271 261.095067 78.08335 C 259.33465 78.286475 257.694025 78.401059 256.183608 78.4271 C 254.688816 78.453142 253.0534 78.463559 251.277358 78.463559 C 249.662774 78.463559 248.105483 78.3021 246.595066 77.968767 C 245.095066 77.625017 243.542982 77.406267 241.933607 77.3021 C 241.933607 74.385433 241.834649 72.317725 241.647149 71.098975 C 241.470066 69.880225 241.07944 69.156266 240.48569 68.932308 C 239.886732 68.687516 238.912774 68.567725 237.553399 68.567725 C 236.313815 68.619808 235.39194 68.776058 234.792982 69.041683 C 234.199232 69.296891 233.850273 69.932308 233.746107 70.947933 C 233.647148 71.963558 233.67319 73.635433 233.824232 75.973975 C 233.824232 76.541684 233.990898 77.036475 234.319023 77.45835 C 234.662773 77.875017 234.964857 78.08335 235.230482 78.08335 L 240.292982 79.166684 C 242.324232 79.640642 244.287774 80.057309 246.173191 80.427101 C 248.079441 80.781267 250.063816 81.114601 252.131525 81.432309 C 255.3034 82.307309 257.605483 83.635434 259.037775 85.411476 C 260.475275 87.171893 261.3659 89.229184 261.725275 91.578143 C 262.089859 93.911476 262.277359 96.348977 262.277359 98.885435 L 262.350275 100.770852 L 262.350275 101.375019 C 262.350275 103.30731 261.496108 105.140644 259.782567 106.875019 C 258.069025 108.614602 255.542983 110.031269 252.20965 111.119811 C 248.886733 112.213561 244.782566 112.760436 239.897149 112.760436 L 236.871107 112.760436 C 236.70444 112.760436 236.490899 112.734394 236.220065 112.682311 C 235.970065 112.630228 235.714857 112.604186 235.459648 112.604186 L 235.230482 112.604186 L 232.339857 112.302103 C 228.699231 112.135436 225.787773 111.494811 223.605481 110.380227 C 221.423189 109.260436 219.813814 107.911477 218.772147 106.322936 C 217.730481 104.739602 217.048189 103.08856 216.714856 101.375019 C 216.371106 99.666685 216.204439 98.161477 216.204439 96.86981 C 216.204439 96.24481 216.162772 95.77606 216.089856 95.458352 C 216.01173 95.140643 216.157564 94.906268 216.527356 94.755226 C 216.881522 94.604185 217.678397 94.515643 218.923189 94.489601 C 220.178397 94.46356 222.131523 94.447935 224.782564 94.447935 C 229.303398 94.447935 232.417982 94.46356 234.131523 94.489601 C 235.839857 94.515643 236.699232 94.708351 236.699232 95.078143 L 236.699232 95.30731 C 236.595065 96.296893 236.54819 97.208352 236.54819 98.046893 C 236.54819 98.86981 236.54819 99.520852 236.54819 99.989602 C 236.54819 100.916685 236.944024 101.500019 237.746107 101.739602 C 238.558607 101.968769 239.355482 102.083352 240.14194 102.083352 C 241.959649 102.083352 243.240899 101.760435 243.985691 101.109394 C 244.746107 100.46356 245.126316 99.46356 245.126316 98.104185 C 245.126316 96.49481 244.944024 94.989601 244.579441 93.593768 C 244.209649 92.187518 243.069024 91.223976 241.152357 90.703143 L 240.14194 90.473976 C 239.824232 90.36981 239.470065 90.281268 239.07944 90.208351 C 238.694024 90.119809 238.29819 90.020851 237.876315 89.921893 L 226.803398 87.276059 C 226.449231 87.171893 226.058606 87.062518 225.641939 86.932309 C 225.225273 86.791684 224.803398 86.645851 224.386731 86.494809 L 222.673189 85.713559 C 221.532564 85.296893 220.589856 84.489601 219.855481 83.296892 C 219.131522 82.104184 218.589856 80.755226 218.220064 79.244809 C 217.865897 77.734392 217.688814 76.33335 217.688814 75.036475 C 217.688814 73.4271 217.777356 71.640642 217.954439 69.671891 C 218.141939 67.692725 218.548189 65.807308 219.173189 64.020849 C 219.792981 62.218766 220.761731 60.734391 222.084648 59.567724 C 223.412773 58.401057 225.225273 57.817724 227.506523 57.817724 L 228.287773 57.817724 Z M 229.694023 57.645849 " stroke="#000000" stroke-width="6.91832" stroke-opacity="1" stroke-miterlimit="4"/><g fill="#ff3131" fill-opacity="1"><g transform="translate(51.57715, 173.437489)"><g><path d="M 14.5625 6.4375 C 11.832031 6.46875 9.296875 6.414062 6.953125 6.28125 C 4.617188 6.144531 2.535156 5.960938 0.703125 5.734375 C 0.816406 3.472656 0.910156 0.851562 0.984375 -2.125 C 1.066406 -5.113281 1.144531 -8.175781 1.21875 -11.3125 C 1.300781 -14.445312 1.363281 -17.46875 1.40625 -20.375 C 1.445312 -23.28125 1.484375 -25.820312 1.515625 -28 C 1.554688 -30.1875 1.597656 -31.769531 1.640625 -32.75 C 3.035156 -32.820312 4.445312 -32.914062 5.875 -33.03125 C 7.300781 -33.144531 8.675781 -33.203125 10 -33.203125 L 13.21875 -33.203125 C 14.925781 -33.203125 16.519531 -33.179688 18 -33.140625 C 19.488281 -33.109375 20.78125 -33.035156 21.875 -32.921875 L 22.859375 -32.75 C 24.492188 -32.351562 25.804688 -31.765625 26.796875 -30.984375 C 27.796875 -30.203125 28.554688 -29.320312 29.078125 -28.34375 C 29.609375 -27.375 29.960938 -26.421875 30.140625 -25.484375 C 30.316406 -24.554688 30.40625 -23.738281 30.40625 -23.03125 L 30.40625 -22.984375 C 30.40625 -22.785156 30.40625 -22.460938 30.40625 -22.015625 C 30.40625 -21.566406 30.363281 -20.851562 30.28125 -19.875 L 29.46875 -17.65625 C 29.46875 -16.988281 29.210938 -16.398438 28.703125 -15.890625 C 28.203125 -15.390625 27.675781 -14.847656 27.125 -14.265625 C 28.375 -13.523438 29.46875 -12.65625 30.40625 -11.65625 C 31.34375 -10.664062 31.90625 -9.453125 32.09375 -8.015625 L 32.15625 -7.3125 C 32.238281 -6.957031 32.285156 -6.566406 32.296875 -6.140625 C 32.316406 -5.710938 32.328125 -5.285156 32.328125 -4.859375 L 32.328125 -3.859375 C 32.328125 -3.191406 32.28125 -2.566406 32.1875 -1.984375 C 32.09375 -1.398438 32.003906 -0.875 31.921875 -0.40625 L 30.8125 2.34375 C 30.5 3.394531 29.910156 4.210938 29.046875 4.796875 C 28.191406 5.378906 27.171875 5.773438 25.984375 5.984375 C 24.796875 6.203125 23.5625 6.351562 22.28125 6.4375 L 20.515625 6.4375 C 19.546875 6.394531 18.535156 6.382812 17.484375 6.40625 C 16.429688 6.425781 15.457031 6.4375 14.5625 6.4375 Z M 16.015625 -26.3125 C 15.160156 -26.3125 14.320312 -26.15625 13.5 -25.84375 C 13.46875 -25.726562 13.453125 -25.59375 13.453125 -25.4375 C 13.453125 -25.28125 13.453125 -25.125 13.453125 -24.96875 L 13.453125 -23.90625 C 13.484375 -23.207031 13.53125 -22.34375 13.59375 -21.3125 C 13.65625 -20.28125 13.644531 -19.0625 13.5625 -17.65625 C 13.914062 -17.382812 14.429688 -17.226562 15.109375 -17.1875 C 15.796875 -17.144531 16.273438 -17.144531 16.546875 -17.1875 L 16.78125 -17.1875 C 17.832031 -17.1875 18.609375 -17.445312 19.109375 -17.96875 C 19.617188 -18.5 19.9375 -19.488281 20.0625 -20.9375 C 20.019531 -21.5625 20.015625 -22.175781 20.046875 -22.78125 C 20.085938 -23.382812 20.019531 -23.945312 19.84375 -24.46875 C 19.675781 -25 19.203125 -25.414062 18.421875 -25.71875 L 18.0625 -25.90625 C 17.71875 -25.976562 17.390625 -26.0625 17.078125 -26.15625 C 16.765625 -26.257812 16.410156 -26.3125 16.015625 -26.3125 Z M 17.25 -11.109375 C 16.269531 -11.109375 15.445312 -11 14.78125 -10.78125 C 14.125 -10.570312 13.617188 -10.269531 13.265625 -9.875 C 13.265625 -9.601562 13.253906 -9.3125 13.234375 -9 C 13.222656 -8.6875 13.195312 -8.375 13.15625 -8.0625 L 13.15625 -6.90625 C 13.113281 -5.5 13.0625 -4.53125 13 -4 C 12.945312 -3.476562 12.921875 -2.925781 12.921875 -2.34375 C 12.921875 -2.101562 12.921875 -1.863281 12.921875 -1.625 C 12.921875 -1.394531 12.941406 -1.144531 12.984375 -0.875 C 13.453125 -0.800781 13.992188 -0.722656 14.609375 -0.640625 C 15.234375 -0.566406 15.703125 -0.488281 16.015625 -0.40625 L 16.140625 -0.40625 C 17.660156 -0.40625 18.65625 -0.628906 19.125 -1.078125 C 19.59375 -1.523438 19.828125 -2.0625 19.828125 -2.6875 C 19.828125 -4.945312 19.738281 -6.648438 19.5625 -7.796875 C 19.382812 -8.953125 19.109375 -9.765625 18.734375 -10.234375 C 18.367188 -10.703125 17.875 -10.992188 17.25 -11.109375 Z M 17.25 -11.109375 "/></g></g></g><g fill="#8c52ff" fill-opacity="1"><g transform="translate(85.831054, 173.437489)"><g><path d="M 22.328125 -42.96875 C 24.046875 -42.96875 25.691406 -42.832031 27.265625 -42.5625 C 28.847656 -42.289062 30.398438 -41.882812 31.921875 -41.34375 C 33.285156 -39.351562 34.304688 -37.207031 34.984375 -34.90625 C 35.671875 -32.601562 36.015625 -29.773438 36.015625 -26.421875 C 36.015625 -26.078125 36.003906 -25.726562 35.984375 -25.375 C 35.960938 -25.019531 35.953125 -24.648438 35.953125 -24.265625 L 35.953125 -22.390625 C 35.953125 -20.242188 35.894531 -17.960938 35.78125 -15.546875 C 35.78125 -12.628906 35.398438 -10.289062 34.640625 -8.53125 C 33.878906 -6.78125 32.785156 -5.46875 31.359375 -4.59375 C 29.941406 -3.71875 28.226562 -3.128906 26.21875 -2.828125 C 24.21875 -2.535156 21.96875 -2.390625 19.46875 -2.390625 C 16.820312 -2.390625 14.550781 -2.476562 12.65625 -2.65625 C 10.769531 -2.832031 9.132812 -3.234375 7.75 -3.859375 C 6.363281 -4.484375 5.101562 -5.421875 3.96875 -6.671875 C 2.757812 -8.035156 1.890625 -9.46875 1.359375 -10.96875 C 0.835938 -12.46875 0.507812 -14.023438 0.375 -15.640625 C 0.238281 -17.253906 0.171875 -18.921875 0.171875 -20.640625 L 0.171875 -22.15625 C 0.253906 -24.1875 0.378906 -25.96875 0.546875 -27.5 C 0.722656 -29.039062 0.875 -30.535156 1 -31.984375 L 1.234375 -33.734375 C 1.265625 -33.929688 1.316406 -34.132812 1.390625 -34.34375 C 1.472656 -34.5625 1.578125 -34.804688 1.703125 -35.078125 L 2.515625 -37.25 C 2.828125 -38.6875 3.898438 -39.8125 5.734375 -40.625 C 7.566406 -41.445312 9.921875 -42.039062 12.796875 -42.40625 C 15.679688 -42.78125 18.859375 -42.96875 22.328125 -42.96875 Z M 23.03125 -33.265625 C 21.664062 -33.265625 20.425781 -33.1875 19.3125 -33.03125 C 18.207031 -32.875 17.332031 -32.472656 16.6875 -31.828125 C 16.050781 -31.191406 15.734375 -30.132812 15.734375 -28.65625 C 15.734375 -28.144531 15.738281 -27.597656 15.75 -27.015625 C 15.769531 -26.429688 15.78125 -25.785156 15.78125 -25.078125 L 15.78125 -24.5625 C 15.75 -24.28125 15.734375 -23.945312 15.734375 -23.5625 C 15.734375 -23.175781 15.734375 -22.765625 15.734375 -22.328125 C 15.691406 -21.828125 15.707031 -21.265625 15.78125 -20.640625 C 15.863281 -20.015625 15.90625 -19.367188 15.90625 -18.703125 L 15.90625 -15.78125 C 15.90625 -14.570312 15.992188 -13.722656 16.171875 -13.234375 C 16.347656 -12.753906 16.742188 -12.453125 17.359375 -12.328125 C 17.984375 -12.210938 18.976562 -12.097656 20.34375 -11.984375 L 21.21875 -11.984375 C 22.625 -11.984375 23.640625 -12.234375 24.265625 -12.734375 C 24.890625 -13.242188 25.285156 -14.003906 25.453125 -15.015625 C 25.628906 -16.035156 25.71875 -17.328125 25.71875 -18.890625 L 25.71875 -19.53125 C 25.53125 -22.414062 25.40625 -24.753906 25.34375 -26.546875 C 25.289062 -28.335938 25.203125 -29.71875 25.078125 -30.6875 C 24.960938 -31.664062 24.757812 -32.335938 24.46875 -32.703125 C 24.175781 -33.078125 23.695312 -33.265625 23.03125 -33.265625 Z M 23.03125 -33.265625 "/></g></g></g><g fill="#00bf63" fill-opacity="1"><g transform="translate(122.780271, 173.437489)"><g><path d="M 22.328125 -39.53125 L 21.984375 -44.734375 L 22.21875 -44.734375 C 22.53125 -44.734375 23.09375 -44.75 23.90625 -44.78125 C 24.726562 -44.820312 25.625 -44.878906 26.59375 -44.953125 C 27.570312 -45.035156 28.46875 -45.097656 29.28125 -45.140625 C 30.101562 -45.179688 30.671875 -45.203125 30.984375 -45.203125 L 31.21875 -45.203125 C 31.21875 -43.285156 31.304688 -41.242188 31.484375 -39.078125 C 31.660156 -36.921875 31.75 -34.769531 31.75 -32.625 L 31.75 -31.6875 L 31.859375 -28.0625 L 31.859375 -27.359375 L 31.921875 -26.3125 C 31.878906 -23.582031 31.890625 -21.234375 31.953125 -19.265625 C 32.015625 -17.296875 32.023438 -15.375 31.984375 -13.5 L 31.984375 -11.921875 C 31.984375 -11.535156 31.960938 -11.144531 31.921875 -10.75 C 31.878906 -10.363281 31.859375 -9.992188 31.859375 -9.640625 L 31.6875 -7.140625 C 31.570312 -6.628906 31.472656 -6.085938 31.390625 -5.515625 C 31.316406 -4.953125 31.179688 -4.476562 30.984375 -4.09375 L 30.578125 -3.15625 L 30.578125 -3.28125 C 29.679688 -1.363281 28.492188 0.03125 27.015625 0.90625 C 25.535156 1.78125 23.894531 2.34375 22.09375 2.59375 C 20.300781 2.851562 18.472656 2.984375 16.609375 2.984375 L 15.265625 2.984375 C 14.640625 2.984375 13.992188 2.960938 13.328125 2.921875 C 12.671875 2.878906 12.007812 2.820312 11.34375 2.75 L 9.703125 2.6875 C 8.921875 2.6875 8.238281 2.628906 7.65625 2.515625 L 6.203125 2.28125 C 4.097656 1.738281 2.734375 0.648438 2.109375 -0.984375 C 1.484375 -2.628906 1.171875 -4.582031 1.171875 -6.84375 L 1.171875 -11.453125 C 1.171875 -11.648438 1.160156 -11.847656 1.140625 -12.046875 C 1.117188 -12.242188 1.109375 -12.457031 1.109375 -12.6875 L 1.109375 -14.390625 C 1.109375 -16.097656 1.054688 -18.21875 0.953125 -20.75 C 0.859375 -23.289062 0.773438 -25.75 0.703125 -28.125 L 0.765625 -30.703125 C 0.765625 -30.816406 0.742188 -30.929688 0.703125 -31.046875 C 0.660156 -31.160156 0.640625 -31.273438 0.640625 -31.390625 L 0.640625 -31.984375 C 0.722656 -32.410156 0.753906 -32.972656 0.734375 -33.671875 C 0.710938 -34.378906 0.722656 -34.925781 0.765625 -35.3125 L 15.5 -34.4375 L 15.203125 -32.453125 C 15.117188 -30.734375 15.03125 -29.023438 14.9375 -27.328125 C 14.84375 -25.640625 14.796875 -23.9375 14.796875 -22.21875 L 14.796875 -20.40625 C 14.796875 -19.550781 14.773438 -18.585938 14.734375 -17.515625 C 14.691406 -16.441406 14.671875 -15.335938 14.671875 -14.203125 L 14.5625 -12.75 C 14.519531 -12.351562 14.5 -12 14.5 -11.6875 C 14.5 -11.375 14.5 -11.066406 14.5 -10.765625 C 14.5 -9.273438 14.601562 -8.171875 14.8125 -7.453125 C 15.03125 -6.734375 15.320312 -6.265625 15.6875 -6.046875 C 16.0625 -5.835938 16.484375 -5.734375 16.953125 -5.734375 C 17.222656 -5.734375 17.484375 -5.738281 17.734375 -5.75 C 17.992188 -5.769531 18.257812 -5.78125 18.53125 -5.78125 L 18.9375 -5.78125 C 19.175781 -5.78125 19.351562 -5.800781 19.46875 -5.84375 L 20.28125 -5.90625 C 21.144531 -6.0625 21.769531 -6.390625 22.15625 -6.890625 C 22.550781 -7.398438 22.804688 -7.96875 22.921875 -8.59375 C 23.078125 -10.113281 23.144531 -11.421875 23.125 -12.515625 C 23.101562 -13.609375 23.09375 -14.367188 23.09375 -14.796875 L 23.09375 -15.546875 L 22.796875 -19.53125 C 22.796875 -20.15625 22.765625 -20.785156 22.703125 -21.421875 C 22.648438 -22.066406 22.644531 -22.703125 22.6875 -23.328125 L 22.75 -25.078125 C 22.75 -25.503906 22.726562 -25.910156 22.6875 -26.296875 C 22.644531 -26.691406 22.625 -27.085938 22.625 -27.484375 L 22.625 -28.65625 C 22.625 -30.019531 22.570312 -31.578125 22.46875 -33.328125 C 22.375 -35.078125 22.328125 -36.695312 22.328125 -38.1875 Z M 21.984375 -44.78125 C 21.941406 -44.78125 21.921875 -44.769531 21.921875 -44.75 C 21.921875 -44.738281 21.941406 -44.734375 21.984375 -44.734375 Z M 21.984375 -44.78125 "/></g></g></g><g fill="#ffde59" fill-opacity="1"><g transform="translate(158.030268, 173.437489)"><g><path d="M 20.578125 -40.40625 C 21.828125 -40.519531 23.078125 -40.578125 24.328125 -40.578125 C 26.617188 -40.578125 28.992188 -40.398438 31.453125 -40.046875 L 31.75 -30.234375 C 31.75 -30.078125 31.726562 -29.910156 31.6875 -29.734375 C 31.644531 -29.554688 31.625 -29.332031 31.625 -29.0625 L 31.625 -27.828125 C 31.625 -27.171875 31.601562 -26.507812 31.5625 -25.84375 C 31.53125 -25.175781 31.515625 -24.515625 31.515625 -23.859375 L 31.453125 -20.75 C 31.453125 -20.519531 31.429688 -20.273438 31.390625 -20.015625 C 31.359375 -19.765625 31.34375 -19.523438 31.34375 -19.296875 L 30.984375 -6.484375 C 30.984375 -6.140625 30.992188 -5.644531 31.015625 -5 C 31.035156 -4.351562 31.003906 -3.707031 30.921875 -3.0625 C 30.847656 -2.425781 30.679688 -1.875 30.421875 -1.40625 C 30.171875 -0.9375 29.773438 -0.703125 29.234375 -0.703125 L 28.53125 -0.703125 C 27.71875 -0.703125 26.820312 -0.726562 25.84375 -0.78125 C 24.863281 -0.84375 23.769531 -0.953125 22.5625 -1.109375 C 22.53125 -1.066406 22.472656 -1.046875 22.390625 -1.046875 C 22.234375 -1.046875 22.078125 -1.144531 21.921875 -1.34375 C 21.765625 -1.539062 21.570312 -1.796875 21.34375 -2.109375 L 21.171875 -2.453125 L 20.75 -3.046875 L 18.828125 -6.609375 L 16.484375 -11.109375 C 16.328125 -11.378906 16.203125 -11.640625 16.109375 -11.890625 C 16.015625 -12.148438 15.890625 -12.394531 15.734375 -12.625 L 14.09375 -15.96875 C 13.9375 -16.195312 13.789062 -16.4375 13.65625 -16.6875 C 13.519531 -16.945312 13.390625 -17.210938 13.265625 -17.484375 L 11.21875 -22.796875 L 10.34375 -24.90625 L 11.171875 -13.09375 L 11.515625 -4.03125 L 11.515625 -2.34375 C 11.515625 -1.945312 11.484375 -1.5625 11.421875 -1.1875 C 11.367188 -0.820312 11.300781 -0.484375 11.21875 -0.171875 L 10.984375 0.765625 C 10.835938 0.992188 10.304688 1.164062 9.390625 1.28125 C 8.472656 1.40625 7.488281 1.484375 6.4375 1.515625 C 5.382812 1.554688 4.546875 1.617188 3.921875 1.703125 C 2.941406 1.703125 2.265625 1.613281 1.890625 1.4375 C 1.523438 1.257812 1.34375 0.722656 1.34375 -0.171875 L 1.34375 -2.515625 C 1.34375 -2.898438 1.320312 -3.296875 1.28125 -3.703125 C 1.25 -4.117188 1.234375 -4.519531 1.234375 -4.90625 L 1.234375 -8.59375 C 1.234375 -9.101562 1.222656 -9.5625 1.203125 -9.96875 C 1.179688 -10.375 1.171875 -10.789062 1.171875 -11.21875 L 1.171875 -13.859375 L 0.578125 -36.078125 L 0.578125 -36.140625 L 0.53125 -36.140625 C 0.332031 -36.140625 -0.0859375 -36.144531 -0.734375 -36.15625 C -1.378906 -36.175781 -2.085938 -36.195312 -2.859375 -36.21875 C -3.640625 -36.238281 -4.351562 -36.257812 -5 -36.28125 C -5.644531 -36.300781 -6.0625 -36.3125 -6.25 -36.3125 C -6.289062 -37.050781 -6.300781 -37.703125 -6.28125 -38.265625 C -6.257812 -38.828125 -6.25 -39.710938 -6.25 -40.921875 C -6.25 -42.679688 -6.160156 -43.800781 -5.984375 -44.28125 C -5.816406 -44.769531 -5.363281 -45.015625 -4.625 -45.015625 C -4.425781 -45.015625 -4.226562 -45.003906 -4.03125 -44.984375 C -3.832031 -44.972656 -3.617188 -44.96875 -3.390625 -44.96875 C -1.203125 -45.15625 3.359375 -45.269531 10.296875 -45.3125 C 10.609375 -45.3125 10.9375 -44.910156 11.28125 -44.109375 C 11.632812 -43.316406 11.992188 -42.398438 12.359375 -41.359375 C 12.734375 -40.328125 13.054688 -39.460938 13.328125 -38.765625 L 14.96875 -34.96875 C 16.09375 -32.507812 16.976562 -30.585938 17.625 -29.203125 C 18.269531 -27.816406 18.75 -26.78125 19.0625 -26.09375 C 19.375 -25.414062 19.597656 -24.957031 19.734375 -24.71875 C 19.867188 -24.488281 19.976562 -24.296875 20.0625 -24.140625 L 20.40625 -23.453125 C 20.476562 -23.328125 20.550781 -23.207031 20.625 -23.09375 C 20.707031 -22.976562 20.789062 -22.863281 20.875 -22.75 L 20.875 -23.328125 C 20.875 -23.523438 20.875 -23.769531 20.875 -24.0625 C 20.875 -24.351562 20.863281 -24.816406 20.84375 -25.453125 C 20.820312 -26.097656 20.789062 -27.0625 20.75 -28.34375 C 20.71875 -29.632812 20.679688 -31.351562 20.640625 -33.5 C 20.640625 -34.28125 20.597656 -35.140625 20.515625 -36.078125 C 20.441406 -37.015625 20.40625 -38.378906 20.40625 -40.171875 C 20.40625 -40.203125 20.421875 -40.265625 20.453125 -40.359375 C 20.492188 -40.460938 20.515625 -40.515625 20.515625 -40.515625 C 20.554688 -40.515625 20.578125 -40.476562 20.578125 -40.40625 Z M 20.578125 -40.40625 "/></g></g></g><g fill="#ff3131" fill-opacity="1"><g transform="translate(191.006832, 173.437489)"><g><path d="M 6.140625 -36.953125 C 7.859375 -37.691406 9.941406 -38.253906 12.390625 -38.640625 C 14.847656 -39.035156 18.046875 -39.097656 21.984375 -38.828125 C 23.929688 -38.859375 25.847656 -38.679688 27.734375 -38.296875 C 29.628906 -37.910156 31.144531 -37.09375 32.28125 -35.84375 L 33.15625 -32.09375 C 33.382812 -31.238281 33.578125 -30.351562 33.734375 -29.4375 C 33.890625 -28.519531 33.96875 -27.59375 33.96875 -26.65625 L 34.09375 -23.328125 C 34.09375 -23.210938 33.613281 -23.132812 32.65625 -23.09375 C 31.695312 -23.050781 30.515625 -23.03125 29.109375 -23.03125 C 27.710938 -23.03125 26.3125 -23.007812 24.90625 -22.96875 C 23.5 -22.9375 22.316406 -22.867188 21.359375 -22.765625 C 20.410156 -22.671875 19.9375 -22.523438 19.9375 -22.328125 C 19.894531 -23.378906 19.851562 -24.253906 19.8125 -24.953125 C 19.78125 -25.660156 19.765625 -26.367188 19.765625 -27.078125 C 19.835938 -27.378906 19.828125 -27.773438 19.734375 -28.265625 C 19.640625 -28.753906 19.53125 -29.191406 19.40625 -29.578125 C 18.863281 -29.816406 18.394531 -29.953125 18 -29.984375 C 17.613281 -30.023438 17.226562 -30.046875 16.84375 -30.046875 C 16.332031 -30.085938 15.96875 -30.054688 15.75 -29.953125 C 15.539062 -29.859375 15.222656 -29.675781 14.796875 -29.40625 L 14.5625 -29.171875 C 14.164062 -28.671875 13.910156 -28.132812 13.796875 -27.5625 C 13.679688 -27 13.582031 -26.3125 13.5 -25.5 L 13.5 -23.265625 C 13.695312 -21.585938 13.820312 -20.28125 13.875 -19.34375 C 13.9375 -18.414062 13.957031 -17.617188 13.9375 -16.953125 C 13.925781 -16.296875 13.921875 -15.519531 13.921875 -14.625 L 14.265625 -11.875 C 14.347656 -11.050781 14.445312 -10.503906 14.5625 -10.234375 C 14.675781 -9.960938 14.789062 -9.773438 14.90625 -9.671875 C 15.019531 -9.578125 15.097656 -9.394531 15.140625 -9.125 L 16.203125 -8.59375 C 16.390625 -8.320312 16.570312 -8.078125 16.75 -7.859375 C 16.925781 -7.648438 17.148438 -7.546875 17.421875 -7.546875 C 18.867188 -7.546875 19.894531 -7.71875 20.5 -8.0625 C 21.101562 -8.414062 21.472656 -8.90625 21.609375 -9.53125 C 21.742188 -10.15625 21.769531 -10.847656 21.6875 -11.609375 C 21.613281 -12.367188 21.597656 -13.15625 21.640625 -13.96875 C 21.597656 -13.96875 21.992188 -13.976562 22.828125 -14 C 23.671875 -14.019531 24.734375 -14.03125 26.015625 -14.03125 C 27.304688 -14.03125 28.601562 -14 29.90625 -13.9375 C 31.207031 -13.882812 32.296875 -13.78125 33.171875 -13.625 C 34.054688 -13.46875 34.5 -13.234375 34.5 -12.921875 L 34.671875 -10.984375 L 34.671875 -10.640625 C 34.671875 -9.859375 34.648438 -9.078125 34.609375 -8.296875 C 34.578125 -7.523438 34.441406 -6.671875 34.203125 -5.734375 L 33.96875 -4.96875 C 33.539062 -4.113281 33.035156 -3.316406 32.453125 -2.578125 L 31.578125 -1.875 C 30.523438 -1.007812 29.140625 -0.382812 27.421875 0 C 25.703125 0.382812 23.957031 0.625 22.1875 0.71875 C 20.414062 0.820312 18.867188 0.875 17.546875 0.875 C 16.296875 0.875 15 0.820312 13.65625 0.71875 C 12.3125 0.625 11.050781 0.382812 9.875 0 L 8.296875 -0.578125 C 7.867188 -0.703125 7.421875 -0.890625 6.953125 -1.140625 C 6.484375 -1.390625 6.09375 -1.648438 5.78125 -1.921875 L 5.5 -2.15625 L 4.5625 -3.09375 L 3.859375 -4.03125 C 3.585938 -4.382812 3.320312 -4.800781 3.0625 -5.28125 C 2.8125 -5.769531 2.648438 -6.210938 2.578125 -6.609375 L 1.8125 -8.59375 C 1.738281 -9.175781 1.640625 -9.738281 1.515625 -10.28125 C 1.398438 -10.832031 1.34375 -11.300781 1.34375 -11.6875 C 1.34375 -12.039062 1.300781 -12.398438 1.21875 -12.765625 C 1.144531 -13.140625 1.109375 -13.523438 1.109375 -13.921875 L 1 -16.484375 C 1 -16.679688 0.976562 -16.875 0.9375 -17.0625 C 0.894531 -17.257812 0.875 -17.457031 0.875 -17.65625 L 0.875 -18.46875 C 0.957031 -22.40625 1.113281 -25.617188 1.34375 -28.109375 C 1.582031 -30.609375 2.070312 -32.5625 2.8125 -33.96875 C 3.550781 -35.375 4.660156 -36.367188 6.140625 -36.953125 Z M 6.140625 -36.953125 "/></g></g></g><g fill="#8c52ff" fill-opacity="1"><g transform="translate(226.666983, 173.437489)"><g><path d="M 27.25 -5.90625 L 1.28125 -5.03125 C 1.050781 -5.03125 0.894531 -5.113281 0.8125 -5.28125 C 0.738281 -5.457031 0.703125 -5.625 0.703125 -5.78125 C 0.703125 -5.9375 0.710938 -6.070312 0.734375 -6.1875 C 0.753906 -6.3125 0.765625 -6.410156 0.765625 -6.484375 L 0.765625 -7.890625 C 0.765625 -8.285156 0.789062 -8.734375 0.84375 -9.234375 C 0.90625 -9.742188 0.957031 -10.210938 1 -10.640625 L 1.171875 -24.328125 L 1.171875 -25.078125 L 1.234375 -25.78125 L 1.109375 -36.140625 L 0.578125 -36.140625 C 0.304688 -36.140625 -0.207031 -36.128906 -0.96875 -36.109375 C -1.726562 -36.085938 -2.566406 -36.054688 -3.484375 -36.015625 C -4.398438 -35.972656 -5.253906 -35.941406 -6.046875 -35.921875 C -6.847656 -35.910156 -7.441406 -35.90625 -7.828125 -35.90625 C -8.222656 -35.90625 -8.476562 -35.960938 -8.59375 -36.078125 C -8.707031 -36.191406 -8.765625 -36.347656 -8.765625 -36.546875 C -8.765625 -36.734375 -8.734375 -36.941406 -8.671875 -37.171875 C -8.617188 -37.410156 -8.59375 -37.648438 -8.59375 -37.890625 L -8.59375 -42.390625 C -8.59375 -43.640625 -8.535156 -44.425781 -8.421875 -44.75 C -8.304688 -45.082031 -8.082031 -45.238281 -7.75 -45.21875 C -7.414062 -45.207031 -6.914062 -45.238281 -6.25 -45.3125 L -3.859375 -45.3125 C 1.285156 -45.195312 5.582031 -45.097656 9.03125 -45.015625 C 12.476562 -44.941406 15.265625 -44.882812 17.390625 -44.84375 C 19.515625 -44.800781 21.148438 -44.78125 22.296875 -44.78125 C 23.453125 -44.78125 24.273438 -44.78125 24.765625 -44.78125 C 25.253906 -44.78125 25.613281 -44.78125 25.84375 -44.78125 L 26.484375 -44.734375 L 26.484375 -43.671875 C 26.484375 -42.460938 26.429688 -41.253906 26.328125 -40.046875 C 26.234375 -38.835938 26.226562 -37.613281 26.3125 -36.375 C 25.570312 -36.375 24.65625 -36.363281 23.5625 -36.34375 C 22.46875 -36.320312 21.34375 -36.300781 20.1875 -36.28125 C 19.039062 -36.257812 18.007812 -36.226562 17.09375 -36.1875 C 16.1875 -36.15625 15.535156 -36.117188 15.140625 -36.078125 L 14.625 -27.828125 L 15.03125 -27.71875 L 15.96875 -27.71875 L 23.390625 -27.484375 C 23.617188 -27.484375 23.847656 -27.460938 24.078125 -27.421875 C 24.316406 -27.378906 24.554688 -27.359375 24.796875 -27.359375 C 24.796875 -26.578125 24.863281 -25.660156 25 -24.609375 C 25.132812 -23.554688 25.082031 -22.390625 24.84375 -21.109375 C 24.8125 -20.835938 24.441406 -20.625 23.734375 -20.46875 C 23.035156 -20.3125 22.226562 -20.210938 21.3125 -20.171875 C 20.394531 -20.128906 19.546875 -20.109375 18.765625 -20.109375 C 17.984375 -20.109375 17.457031 -20.109375 17.1875 -20.109375 L 13.734375 -19.828125 C 13.703125 -19.203125 13.613281 -18.34375 13.46875 -17.25 C 13.332031 -16.15625 13.226562 -14.925781 13.15625 -13.5625 L 22.625 -13.734375 C 22.820312 -13.734375 23.238281 -13.710938 23.875 -13.671875 C 24.519531 -13.640625 25.164062 -13.570312 25.8125 -13.46875 C 26.457031 -13.375 26.878906 -13.226562 27.078125 -13.03125 C 27.078125 -12.019531 27.160156 -10.921875 27.328125 -9.734375 C 27.503906 -8.546875 27.476562 -7.269531 27.25 -5.90625 Z M 27.25 -5.90625 "/></g></g></g><g fill="#38b6ff" fill-opacity="1"><g transform="translate(254.557606, 173.437489)"><g><path d="M 1.8125 -36.140625 L -3.859375 -36.140625 C -3.773438 -36.484375 -3.734375 -36.992188 -3.734375 -37.671875 C -3.734375 -38.359375 -3.734375 -39.207031 -3.734375 -40.21875 C -3.734375 -41.039062 -3.710938 -41.84375 -3.671875 -42.625 C -3.640625 -43.40625 -3.625 -44.03125 -3.625 -44.5 C -3.625 -44.6875 -2.25 -44.800781 0.5 -44.84375 C 3.25 -44.882812 7.679688 -44.984375 13.796875 -45.140625 L 21.640625 -44.78125 C 23.585938 -44.820312 25.179688 -44.488281 26.421875 -43.78125 C 27.671875 -43.082031 28.675781 -42.148438 29.4375 -40.984375 C 30.195312 -39.816406 30.8125 -38.492188 31.28125 -37.015625 C 31.632812 -34.085938 31.710938 -31.726562 31.515625 -29.9375 C 31.316406 -28.144531 30.925781 -26.757812 30.34375 -25.78125 C 30.070312 -25.082031 29.570312 -24.554688 28.84375 -24.203125 C 28.125 -23.859375 27.351562 -23.609375 26.53125 -23.453125 C 25.71875 -23.296875 25.039062 -23.175781 24.5 -23.09375 C 26.988281 -22.550781 28.769531 -21.8125 29.84375 -20.875 C 30.914062 -19.9375 31.566406 -18.882812 31.796875 -17.71875 C 32.035156 -16.550781 32.15625 -15.300781 32.15625 -13.96875 L 32.15625 -11.6875 L 32.921875 6.4375 L 33.03125 11.34375 L 33.15625 11.984375 C 33.15625 12.253906 32.6875 12.4375 31.75 12.53125 C 30.8125 12.632812 29.71875 12.6875 28.46875 12.6875 C 27.414062 12.6875 26.363281 12.664062 25.3125 12.625 C 24.257812 12.59375 23.375 12.554688 22.65625 12.515625 C 21.9375 12.472656 21.5 12.453125 21.34375 12.453125 L 20.875 -8.53125 L 20.875 -13.265625 C 20.875 -14.398438 20.640625 -15.425781 20.171875 -16.34375 C 19.703125 -17.257812 19.164062 -17.988281 18.5625 -18.53125 C 17.957031 -19.082031 17.398438 -19.359375 16.890625 -19.359375 L 16.140625 -19.359375 C 15.585938 -19.316406 15.234375 -19.285156 15.078125 -19.265625 C 14.921875 -19.242188 14.550781 -19.132812 13.96875 -18.9375 C 13.96875 -18.625 13.96875 -18.253906 13.96875 -17.828125 C 13.96875 -17.398438 13.988281 -16.71875 14.03125 -15.78125 C 14.070312 -14.851562 14.109375 -13.453125 14.140625 -11.578125 C 14.179688 -9.703125 14.222656 -7.1875 14.265625 -4.03125 L 14.265625 -3.859375 C 11.578125 -3.390625 9.296875 -3.101562 7.421875 -3 C 5.554688 -2.90625 3.742188 -2.800781 1.984375 -2.6875 L 1.28125 -2.859375 L 1.875 -26.375 Z M 13.328125 -29.125 L 13.265625 -24.90625 C 14.171875 -25.0625 15.0625 -25.097656 15.9375 -25.015625 C 16.8125 -24.941406 17.519531 -25.21875 18.0625 -25.84375 L 18.125 -28.765625 L 17.953125 -35.375 C 17.554688 -36.070312 16.988281 -36.632812 16.25 -37.0625 C 15.507812 -37.5 14.691406 -37.539062 13.796875 -37.1875 L 13.6875 -35.203125 Z M 13.328125 -29.125 "/></g></g></g><g fill="#38b6ff" fill-opacity="1"><g transform="translate(288.694276, 173.437489)"><g><path d="M 9.59375 -46.015625 C 11.613281 -46.085938 13.65625 -46.191406 15.71875 -46.328125 C 17.789062 -46.472656 19.898438 -46.390625 22.046875 -46.078125 C 24.460938 -45.953125 26.1875 -45.753906 27.21875 -45.484375 C 28.25 -45.210938 29.019531 -44.976562 29.53125 -44.78125 L 29.875 -44.671875 C 30.65625 -44.128906 31.328125 -43.257812 31.890625 -42.0625 C 32.460938 -40.875 32.75 -39.832031 32.75 -38.9375 L 33.09375 -36.140625 C 33.132812 -35.390625 33.15625 -34.769531 33.15625 -34.28125 C 33.15625 -33.800781 33.15625 -33.296875 33.15625 -32.765625 C 33.15625 -32.242188 33.15625 -31.554688 33.15625 -30.703125 C 31.820312 -30.546875 30.585938 -30.457031 29.453125 -30.4375 C 28.328125 -30.414062 27.101562 -30.40625 25.78125 -30.40625 C 24.570312 -30.40625 23.398438 -30.53125 22.265625 -30.78125 C 21.140625 -31.03125 19.972656 -31.195312 18.765625 -31.28125 C 18.765625 -33.46875 18.695312 -35.015625 18.5625 -35.921875 C 18.425781 -36.835938 18.132812 -37.382812 17.6875 -37.5625 C 17.238281 -37.738281 16.507812 -37.828125 15.5 -37.828125 C 14.5625 -37.785156 13.867188 -37.664062 13.421875 -37.46875 C 12.972656 -37.28125 12.707031 -36.804688 12.625 -36.046875 C 12.550781 -35.285156 12.570312 -34.03125 12.6875 -32.28125 C 12.6875 -31.84375 12.8125 -31.46875 13.0625 -31.15625 C 13.320312 -30.851562 13.546875 -30.703125 13.734375 -30.703125 L 17.546875 -29.875 C 19.066406 -29.519531 20.535156 -29.207031 21.953125 -28.9375 C 23.378906 -28.664062 24.867188 -28.414062 26.421875 -28.1875 C 28.804688 -27.519531 30.53125 -26.523438 31.59375 -25.203125 C 32.664062 -23.878906 33.335938 -22.335938 33.609375 -20.578125 C 33.890625 -18.828125 34.03125 -16.992188 34.03125 -15.078125 L 34.09375 -13.6875 L 34.09375 -13.21875 C 34.09375 -11.769531 33.445312 -10.394531 32.15625 -9.09375 C 30.875 -7.789062 28.984375 -6.726562 26.484375 -5.90625 C 23.992188 -5.082031 20.914062 -4.671875 17.25 -4.671875 L 14.96875 -4.671875 C 14.851562 -4.671875 14.695312 -4.691406 14.5 -4.734375 C 14.300781 -4.773438 14.109375 -4.796875 13.921875 -4.796875 L 13.734375 -4.796875 L 11.578125 -5.03125 C 8.847656 -5.144531 6.664062 -5.617188 5.03125 -6.453125 C 3.394531 -7.296875 2.1875 -8.3125 1.40625 -9.5 C 0.625 -10.6875 0.109375 -11.921875 -0.140625 -13.203125 C -0.398438 -14.492188 -0.53125 -15.628906 -0.53125 -16.609375 C -0.53125 -17.078125 -0.554688 -17.425781 -0.609375 -17.65625 C -0.671875 -17.894531 -0.566406 -18.070312 -0.296875 -18.1875 C -0.0234375 -18.300781 0.578125 -18.367188 1.515625 -18.390625 C 2.453125 -18.410156 3.914062 -18.421875 5.90625 -18.421875 C 9.289062 -18.421875 11.625 -18.410156 12.90625 -18.390625 C 14.195312 -18.367188 14.84375 -18.222656 14.84375 -17.953125 L 14.84375 -17.78125 C 14.769531 -17.03125 14.734375 -16.34375 14.734375 -15.71875 C 14.734375 -15.101562 14.734375 -14.617188 14.734375 -14.265625 C 14.734375 -13.566406 15.035156 -13.128906 15.640625 -12.953125 C 16.242188 -12.773438 16.835938 -12.6875 17.421875 -12.6875 C 18.785156 -12.6875 19.75 -12.929688 20.3125 -13.421875 C 20.882812 -13.910156 21.171875 -14.660156 21.171875 -15.671875 C 21.171875 -16.878906 21.03125 -18.007812 20.75 -19.0625 C 20.476562 -20.113281 19.625 -20.832031 18.1875 -21.21875 L 17.421875 -21.40625 C 17.191406 -21.476562 16.929688 -21.539062 16.640625 -21.59375 C 16.347656 -21.65625 16.046875 -21.726562 15.734375 -21.8125 L 7.421875 -23.796875 C 7.148438 -23.867188 6.859375 -23.953125 6.546875 -24.046875 C 6.234375 -24.148438 5.921875 -24.257812 5.609375 -24.375 L 4.328125 -24.96875 C 3.472656 -25.28125 2.769531 -25.882812 2.21875 -26.78125 C 1.675781 -27.675781 1.265625 -28.6875 0.984375 -29.8125 C 0.710938 -30.945312 0.578125 -32 0.578125 -32.96875 C 0.578125 -34.175781 0.644531 -35.519531 0.78125 -37 C 0.925781 -38.488281 1.226562 -39.90625 1.6875 -41.25 C 2.15625 -42.59375 2.882812 -43.703125 3.875 -44.578125 C 4.875 -45.453125 6.234375 -45.890625 7.953125 -45.890625 L 8.53125 -45.890625 Z M 9.59375 -46.015625 "/></g></g></g><g fill="#ff3131" fill-opacity="1"><g transform="translate(126.026364, 225.187485)"><g><path d="M 2.984375 -24.5 L -0.578125 -24.328125 C -0.390625 -25.847656 -0.363281 -27.347656 -0.5 -28.828125 C -0.632812 -30.304688 -0.625 -31.726562 -0.46875 -33.09375 L 1.171875 -33.15625 C 1.398438 -33.15625 2.070312 -33.203125 3.1875 -33.296875 C 4.300781 -33.390625 5.691406 -33.492188 7.359375 -33.609375 C 9.035156 -33.734375 10.867188 -33.820312 12.859375 -33.875 C 14.847656 -33.9375 16.847656 -33.945312 18.859375 -33.90625 C 20.867188 -33.875 22.769531 -33.71875 24.5625 -33.4375 C 25.925781 -33.40625 26.957031 -33.257812 27.65625 -33 C 28.351562 -32.75 28.945312 -32.367188 29.4375 -31.859375 C 29.925781 -31.359375 30.460938 -30.640625 31.046875 -29.703125 C 31.585938 -27.515625 31.9375 -25.367188 32.09375 -23.265625 C 32.25 -21.160156 32.15625 -19.132812 31.8125 -17.1875 C 31.613281 -16.488281 31.304688 -15.90625 30.890625 -15.4375 C 30.484375 -14.96875 30.046875 -14.519531 29.578125 -14.09375 L 28.703125 -13.5 L 27.59375 -13.03125 C 28.144531 -10.96875 28.535156 -9.117188 28.765625 -7.484375 C 29.003906 -5.847656 29.238281 -4.363281 29.46875 -3.03125 C 29.695312 -1.707031 30.113281 -0.492188 30.71875 0.609375 C 31.320312 1.722656 32.269531 2.785156 33.5625 3.796875 L 37.65625 4.328125 L 47.0625 4.625 L 47.296875 13.09375 C 46.554688 13.09375 46.1875 13.132812 46.1875 13.21875 L 39.8125 13.21875 C 38.800781 13.21875 37.546875 13.164062 36.046875 13.0625 C 34.546875 12.96875 33.050781 12.785156 31.5625 12.515625 C 30.082031 12.242188 28.835938 11.851562 27.828125 11.34375 C 26.734375 10.914062 25.695312 10.3125 24.71875 9.53125 C 23.75 8.75 22.894531 7.734375 22.15625 6.484375 L 21.75 5.96875 L 20.984375 4.328125 C 20.953125 4.210938 20.914062 4.066406 20.875 3.890625 C 20.832031 3.710938 20.773438 3.566406 20.703125 3.453125 L 20.46875 2.390625 C 20.382812 2.117188 20.296875 1.660156 20.203125 1.015625 C 20.109375 0.378906 20 -0.71875 19.875 -2.28125 C 19.71875 -2.945312 19.5625 -3.785156 19.40625 -4.796875 C 19.25 -5.804688 19.023438 -6.828125 18.734375 -7.859375 C 18.441406 -8.890625 18.03125 -9.773438 17.5 -10.515625 C 16.976562 -11.265625 16.25 -11.695312 15.3125 -11.8125 L 15.203125 -5.265625 C 15.203125 -4.441406 15.191406 -3.617188 15.171875 -2.796875 C 15.148438 -1.984375 15.128906 -1.015625 15.109375 0.109375 C 15.085938 1.242188 15.078125 2.707031 15.078125 4.5 C 12.660156 4.5 10.457031 4.296875 8.46875 3.890625 C 6.488281 3.484375 4.757812 3.238281 3.28125 3.15625 L 3.28125 2.984375 C 3.28125 2.515625 3.269531 2.023438 3.25 1.515625 C 3.226562 1.015625 3.175781 0.304688 3.09375 -0.609375 C 3.019531 -1.523438 2.925781 -2.785156 2.8125 -4.390625 L 2.8125 -8.828125 C 2.8125 -9.335938 2.816406 -9.875 2.828125 -10.4375 C 2.847656 -11 2.859375 -11.570312 2.859375 -12.15625 L 2.859375 -13.03125 L 2.8125 -15.4375 C 2.8125 -15.75 2.8125 -16.300781 2.8125 -17.09375 C 2.8125 -17.894531 2.828125 -18.78125 2.859375 -19.75 C 2.898438 -20.726562 2.929688 -21.644531 2.953125 -22.5 C 2.972656 -23.363281 2.984375 -24.03125 2.984375 -24.5 Z M 14.5625 -19.125 L 17.546875 -19.125 C 18.085938 -19.125 18.472656 -19.347656 18.703125 -19.796875 C 18.941406 -20.242188 19.003906 -20.78125 18.890625 -21.40625 L 18.53125 -24.5625 C 18.53125 -24.632812 18.273438 -24.71875 17.765625 -24.8125 C 17.265625 -24.914062 16.097656 -24.945312 14.265625 -24.90625 C 14.222656 -24.519531 14.234375 -23.914062 14.296875 -23.09375 C 14.359375 -22.28125 14.445312 -20.957031 14.5625 -19.125 Z M 14.5625 -19.125 "/></g></g></g><g fill="#000000" fill-opacity="1"><g transform="translate(160.163081, 225.187485)"><g/></g></g><g fill="#00bf63" fill-opacity="1"><g transform="translate(178.936521, 225.187485)"><g><path d="M 1.171875 -32.046875 C 2.691406 -32.003906 4.394531 -31.921875 6.28125 -31.796875 C 8.175781 -31.679688 10.019531 -31.578125 11.8125 -31.484375 C 13.601562 -31.390625 15.101562 -31.34375 16.3125 -31.34375 C 16.3125 -31.21875 16.320312 -31.109375 16.34375 -31.015625 C 16.363281 -30.921875 16.375 -30.816406 16.375 -30.703125 C 16.375 -30.191406 16.3125 -29.660156 16.1875 -29.109375 C 16.070312 -28.566406 16.015625 -28.023438 16.015625 -27.484375 L 15.671875 -5.09375 C 15.671875 -4.46875 15.863281 -4.046875 16.25 -3.828125 C 16.644531 -3.617188 17.015625 -3.515625 17.359375 -3.515625 C 19.035156 -3.515625 20.273438 -3.585938 21.078125 -3.734375 C 21.878906 -3.890625 22.28125 -4.222656 22.28125 -4.734375 C 22.28125 -5.046875 22.296875 -5.4375 22.328125 -5.90625 C 22.367188 -6.375 22.351562 -6.921875 22.28125 -7.546875 L 22.15625 -10.171875 C 22.113281 -10.640625 22.082031 -11.109375 22.0625 -11.578125 C 22.050781 -12.046875 22.046875 -12.53125 22.046875 -13.03125 L 22.046875 -13.96875 C 22.046875 -14.4375 22.023438 -14.914062 21.984375 -15.40625 C 21.941406 -15.894531 21.921875 -16.375 21.921875 -16.84375 L 21.875 -20.171875 C 21.875 -20.597656 21.851562 -21.054688 21.8125 -21.546875 C 21.769531 -22.035156 21.75 -22.53125 21.75 -23.03125 L 21.75 -27.125 C 21.75 -27.550781 21.738281 -27.953125 21.71875 -28.328125 C 21.695312 -28.703125 21.6875 -29.117188 21.6875 -29.578125 C 21.6875 -30.398438 21.65625 -31.140625 21.59375 -31.796875 C 21.539062 -32.460938 21.515625 -32.894531 21.515625 -33.09375 L 33.03125 -32.96875 C 33.03125 -31.144531 33.007812 -29.550781 32.96875 -28.1875 C 32.9375 -26.820312 32.898438 -25.535156 32.859375 -24.328125 C 32.816406 -23.117188 32.796875 -21.847656 32.796875 -20.515625 L 32.859375 -18.828125 L 32.859375 -15.734375 L 32.921875 -12.453125 L 32.96875 -11.046875 L 32.921875 -9.640625 L 32.96875 -7.3125 L 32.921875 -5.140625 C 32.921875 -3.347656 32.429688 -1.726562 31.453125 -0.28125 C 30.484375 1.15625 29.128906 2.3125 27.390625 3.1875 C 25.660156 4.0625 23.679688 4.597656 21.453125 4.796875 L 18.0625 4.96875 C 17.675781 5.007812 17.304688 5.039062 16.953125 5.0625 C 16.609375 5.082031 16.28125 5.09375 15.96875 5.09375 L 13.453125 5.09375 C 13.097656 5.09375 12.742188 5.082031 12.390625 5.0625 C 12.046875 5.039062 11.71875 5.007812 11.40625 4.96875 L 9.46875 4.796875 C 8.5 4.710938 7.492188 4.5625 6.453125 4.34375 C 5.421875 4.132812 4.484375 3.75 3.640625 3.1875 C 2.804688 2.625 2.195312 1.796875 1.8125 0.703125 L 1.640625 -0.109375 C 1.640625 -0.148438 1.628906 -0.179688 1.609375 -0.203125 C 1.585938 -0.222656 1.578125 -0.253906 1.578125 -0.296875 L 1.515625 -1.46875 C 1.484375 -1.582031 1.46875 -1.796875 1.46875 -2.109375 L 1.46875 -2.8125 C 1.46875 -3.46875 1.414062 -4.28125 1.3125 -5.25 C 1.21875 -6.226562 1.128906 -7.65625 1.046875 -9.53125 L 1.046875 -22.21875 C 1.046875 -22.6875 1.054688 -23.160156 1.078125 -23.640625 C 1.097656 -24.128906 1.109375 -24.628906 1.109375 -25.140625 L 1.109375 -29.0625 C 1.109375 -29.289062 1.117188 -29.503906 1.140625 -29.703125 C 1.160156 -29.898438 1.171875 -30.113281 1.171875 -30.34375 Z M 1.171875 -32.046875 "/></g></g></g><g fill="#38b6ff" fill-opacity="1"><g transform="translate(214.245108, 225.187485)"><g><path d="M 9.59375 -46.015625 C 11.613281 -46.085938 13.65625 -46.191406 15.71875 -46.328125 C 17.789062 -46.472656 19.898438 -46.390625 22.046875 -46.078125 C 24.460938 -45.953125 26.1875 -45.753906 27.21875 -45.484375 C 28.25 -45.210938 29.019531 -44.976562 29.53125 -44.78125 L 29.875 -44.671875 C 30.65625 -44.128906 31.328125 -43.257812 31.890625 -42.0625 C 32.460938 -40.875 32.75 -39.832031 32.75 -38.9375 L 33.09375 -36.140625 C 33.132812 -35.390625 33.15625 -34.769531 33.15625 -34.28125 C 33.15625 -33.800781 33.15625 -33.296875 33.15625 -32.765625 C 33.15625 -32.242188 33.15625 -31.554688 33.15625 -30.703125 C 31.820312 -30.546875 30.585938 -30.457031 29.453125 -30.4375 C 28.328125 -30.414062 27.101562 -30.40625 25.78125 -30.40625 C 24.570312 -30.40625 23.398438 -30.53125 22.265625 -30.78125 C 21.140625 -31.03125 19.972656 -31.195312 18.765625 -31.28125 C 18.765625 -33.46875 18.695312 -35.015625 18.5625 -35.921875 C 18.425781 -36.835938 18.132812 -37.382812 17.6875 -37.5625 C 17.238281 -37.738281 16.507812 -37.828125 15.5 -37.828125 C 14.5625 -37.785156 13.867188 -37.664062 13.421875 -37.46875 C 12.972656 -37.28125 12.707031 -36.804688 12.625 -36.046875 C 12.550781 -35.285156 12.570312 -34.03125 12.6875 -32.28125 C 12.6875 -31.84375 12.8125 -31.46875 13.0625 -31.15625 C 13.320312 -30.851562 13.546875 -30.703125 13.734375 -30.703125 L 17.546875 -29.875 C 19.066406 -29.519531 20.535156 -29.207031 21.953125 -28.9375 C 23.378906 -28.664062 24.867188 -28.414062 26.421875 -28.1875 C 28.804688 -27.519531 30.53125 -26.523438 31.59375 -25.203125 C 32.664062 -23.878906 33.335938 -22.335938 33.609375 -20.578125 C 33.890625 -18.828125 34.03125 -16.992188 34.03125 -15.078125 L 34.09375 -13.6875 L 34.09375 -13.21875 C 34.09375 -11.769531 33.445312 -10.394531 32.15625 -9.09375 C 30.875 -7.789062 28.984375 -6.726562 26.484375 -5.90625 C 23.992188 -5.082031 20.914062 -4.671875 17.25 -4.671875 L 14.96875 -4.671875 C 14.851562 -4.671875 14.695312 -4.691406 14.5 -4.734375 C 14.300781 -4.773438 14.109375 -4.796875 13.921875 -4.796875 L 13.734375 -4.796875 L 11.578125 -5.03125 C 8.847656 -5.144531 6.664062 -5.617188 5.03125 -6.453125 C 3.394531 -7.296875 2.1875 -8.3125 1.40625 -9.5 C 0.625 -10.6875 0.109375 -11.921875 -0.140625 -13.203125 C -0.398438 -14.492188 -0.53125 -15.628906 -0.53125 -16.609375 C -0.53125 -17.078125 -0.554688 -17.425781 -0.609375 -17.65625 C -0.671875 -17.894531 -0.566406 -18.070312 -0.296875 -18.1875 C -0.0234375 -18.300781 0.578125 -18.367188 1.515625 -18.390625 C 2.453125 -18.410156 3.914062 -18.421875 5.90625 -18.421875 C 9.289062 -18.421875 11.625 -18.410156 12.90625 -18.390625 C 14.195312 -18.367188 14.84375 -18.222656 14.84375 -17.953125 L 14.84375 -17.78125 C 14.769531 -17.03125 14.734375 -16.34375 14.734375 -15.71875 C 14.734375 -15.101562 14.734375 -14.617188 14.734375 -14.265625 C 14.734375 -13.566406 15.035156 -13.128906 15.640625 -12.953125 C 16.242188 -12.773438 16.835938 -12.6875 17.421875 -12.6875 C 18.785156 -12.6875 19.75 -12.929688 20.3125 -13.421875 C 20.882812 -13.910156 21.171875 -14.660156 21.171875 -15.671875 C 21.171875 -16.878906 21.03125 -18.007812 20.75 -19.0625 C 20.476562 -20.113281 19.625 -20.832031 18.1875 -21.21875 L 17.421875 -21.40625 C 17.191406 -21.476562 16.929688 -21.539062 16.640625 -21.59375 C 16.347656 -21.65625 16.046875 -21.726562 15.734375 -21.8125 L 7.421875 -23.796875 C 7.148438 -23.867188 6.859375 -23.953125 6.546875 -24.046875 C 6.234375 -24.148438 5.921875 -24.257812 5.609375 -24.375 L 4.328125 -24.96875 C 3.472656 -25.28125 2.769531 -25.882812 2.21875 -26.78125 C 1.675781 -27.675781 1.265625 -28.6875 0.984375 -29.8125 C 0.710938 -30.945312 0.578125 -32 0.578125 -32.96875 C 0.578125 -34.175781 0.644531 -35.519531 0.78125 -37 C 0.925781 -38.488281 1.226562 -39.90625 1.6875 -41.25 C 2.15625 -42.59375 2.882812 -43.703125 3.875 -44.578125 C 4.875 -45.453125 6.234375 -45.890625 7.953125 -45.890625 L 8.53125 -45.890625 Z M 9.59375 -46.015625 "/></g></g></g><g clip-path="url(#2c389c7bb2)"><g clip-path="url(#ee2e15ff54)"><path fill="#ff3131" d="M 161.199219 204.425781 L 175.757812 204.425781 L 175.757812 218.28125 L 161.199219 218.28125 Z M 161.199219 204.425781 " fill-opacity="1" fill-rule="nonzero"/></g></g></svg>