<svg xmlns="http://www.w3.org/2000/svg" id="Layer_1" data-name="Layer 1" version="1.1" viewBox="55.83 145.83 500.34 500.34">
  <defs>
    <style>
      .cls-1 {
        fill: #f57f20;
      }

      .cls-1, .cls-2, .cls-3 {
        stroke-width: 0px;
      }

      .cls-2 {
        fill: #eff3c6;
      }

      .cls-3 {
        fill: #615252;
      }
    </style>
  </defs>
  <path class="cls-1" d="M418.64,573.49c-.89,0-1.61.86-1.61,1.91s.72,1.91,1.61,1.91,1.61-.85,1.61-1.91-.72-1.91-1.61-1.91Z"/>
  <path class="cls-1" d="M370.59,587.35c-.98,0-1.77,1.15-1.77,2.56s.79,2.55,1.77,2.55,1.76-1.14,1.76-2.55-.79-2.56-1.76-2.56Z"/>
  <path class="cls-1" d="M384.25,588.93c-.98,0-1.77.79-1.77,1.77s.79,1.76,1.77,1.76,1.77-.79,1.77-1.76-.8-1.77-1.77-1.77Z"/>
  <path class="cls-1" d="M413.13,579.8c-.8,0-1.45.77-1.45,1.72s.65,1.72,1.45,1.72,1.45-.77,1.45-1.72-.65-1.72-1.45-1.72Z"/>
  <path class="cls-1" d="M404.23,577.91c-1.24,0-2.25,1.2-2.25,2.67s1.01,2.66,2.25,2.66,2.25-1.19,2.25-2.66-1.01-2.67-2.25-2.67Z"/>
  <path class="cls-1" d="M368.58,572.05c1.8,0,3.26-.86,3.26-1.92s-1.46-1.91-3.26-1.91-3.27.86-3.27,1.91,1.46,1.92,3.27,1.92Z"/>
  <path class="cls-1" d="M401.98,565.24c0,1.03,1.42,1.86,3.18,1.86s3.18-.83,3.18-1.86-1.42-1.86-3.18-1.86-3.18.83-3.18,1.86Z"/>
  <path class="cls-1" d="M383.13,577.91c3.08,0,5.57-1.46,5.57-3.26s-2.49-3.27-5.57-3.27-5.57,1.47-5.57,3.27,2.5,3.26,5.57,3.26Z"/>
  <path class="cls-1" d="M401.98,555.91c1.76,0,3.18-.84,3.18-1.87s-1.42-1.86-3.18-1.86-3.18.83-3.18,1.86,1.43,1.87,3.18,1.87Z"/>
  <path class="cls-1" d="M386.52,567.1c1.53,0,2.78-.73,2.78-1.63s-1.25-1.63-2.78-1.63-2.79.73-2.79,1.63,1.25,1.63,2.79,1.63Z"/>
  <path class="cls-1" d="M413.13,560.02c1.03,0,1.87-.49,1.87-1.09s-.84-1.1-1.87-1.1-1.86.49-1.86,1.1.83,1.09,1.86,1.09Z"/>
  <path class="cls-1" d="M218.14,549.2l-.54.49v.02l.54-.51Z"/>
  <path class="cls-1" d="M115.71,333.89c-3.07-.83-6.23.98-7.06,4.05l-1.5,5.56,11.12,3,1.5-5.55c.83-3.08-.99-6.24-4.06-7.06Z"/>
  <path class="cls-1" d="M508.19,461.16c-1.6,0-2.9,1.3-2.9,2.9s1.3,2.91,2.9,2.91,2.91-1.3,2.91-2.91-1.31-2.9-2.91-2.9Z"/>
  <path class="cls-1" d="M172.52,264.26c-.07-1.86-.88-3.58-2.28-4.84l-6.19-5.58c-1.39-1.25-3.18-1.88-5.05-1.76-1.84.09-3.55.9-4.79,2.27l-4.67,5.18,16.54,14.91,4.67-5.17c1.24-1.38,1.87-3.17,1.77-5.01Z"/>
  <path class="cls-1" d="M246.93,211.39c.52,1.81,1.7,3.29,3.32,4.18,1.61.89,3.5,1.12,5.3.6,1.77-.51,3.25-1.7,4.15-3.31.92-1.62,1.14-3.51.63-5.31l-2.3-8.02c-.52-1.8-1.71-3.28-3.35-4.17-1.62-.89-3.5-1.11-5.27-.6-1.81.52-3.29,1.7-4.18,3.32-.9,1.61-1.12,3.49-.6,5.3l2.3,8.01Z"/>
  <path class="cls-1" d="M440.69,268.62c1.24,1.37,2.96,2.17,4.81,2.25,1.86.11,3.65-.53,5.03-1.79l6.17-5.62c1.38-1.26,2.18-2.98,2.25-4.85.08-1.84-.56-3.63-1.8-4.99-1.26-1.39-2.98-2.19-4.83-2.27-1.84-.09-3.63.55-5.01,1.81l-6.16,5.62c-1.39,1.26-2.19,2.98-2.28,4.83-.08,1.84.56,3.62,1.82,5.01Z"/>
  <path class="cls-1" d="M213.37,570.17c-.26-.26-.68-.26-.94,0s-.26.68,0,.94l14.73,14.81c.13.13.3.19.48.19.17,0,.34-.06.47-.19.26-.26.26-.68,0-.94l-14.74-14.81Z"/>
  <path class="cls-1" d="M314.19,583.05c-1.42-2.77-3.7-5.03-6.5-6.41-.7-.34-1.44-.64-2.2-.87-1.33-.4-2.74-.62-4.2-.62-1.56,0-3.07.25-4.48.71-.75.25-1.48.55-2.17.91-2.68,1.39-4.87,3.59-6.25,6.28-.33.64-.61,1.31-.84,2.01-.48,1.44-.74,2.98-.74,4.58,0,1.46.21,2.87.62,4.2.23.78.54,1.54.9,2.26,1.37,2.75,3.59,5,6.31,6.41.58.3,1.18.56,1.8.78,1.51.54,3.15.83,4.85.83,1.6,0,3.14-.26,4.58-.74.63-.21,1.24-.46,1.82-.75,2.84-1.4,5.15-3.7,6.56-6.53.32-.63.59-1.3.82-1.98.46-1.41.7-2.92.7-4.48,0-1.71-.29-3.34-.83-4.86-.21-.59-.46-1.17-.75-1.73Z"/>
  <path class="cls-1" d="M216.1,567.46c-.26-.26-.69-.26-.95,0-.26.26-.26.69,0,.95l14.74,14.8c.13.14.3.2.47.2s.34-.06.47-.19c.26-.26.26-.68,0-.94l-14.73-14.81Z"/>
  <path class="cls-1" d="M191.09,577.46c-2.61,0-4.72,2.11-4.72,4.72s2.11,4.72,4.72,4.72,4.72-2.11,4.72-4.72-2.11-4.72-4.72-4.72ZM191.09,585.57c-1.87,0-3.38-1.51-3.38-3.38s1.51-3.38,3.38-3.38,3.38,1.51,3.38,3.38-1.51,3.38-3.38,3.38Z"/>
  <polygon class="cls-2" points="411.4 384.35 408.16 384.92 408.16 391.92 411.4 391.34 411.4 384.35"/>
  <polygon class="cls-2" points="417.8 424.35 414.56 424.94 414.56 431.13 417.8 430.55 417.8 424.35"/>
  <polygon class="cls-2" points="411.4 394.14 408.16 394.73 408.16 400.93 411.4 400.35 411.4 394.14"/>
  <polygon class="cls-2" points="411.4 425.49 408.16 426.09 408.16 432.28 411.4 431.71 411.4 425.49"/>
  <polygon class="cls-2" points="411.4 414.63 408.16 415.22 408.16 421.41 411.4 420.84 411.4 414.63"/>
  <polygon class="cls-2" points="411.4 404.47 408.16 405.05 408.16 411.25 411.4 410.67 411.4 404.47"/>
  <polygon class="cls-2" points="424.22 412.33 420.97 412.92 420.97 419.12 424.22 418.53 424.22 412.33"/>
  <polygon class="cls-2" points="417.8 383.19 414.56 383.77 414.56 390.78 417.8 390.19 417.8 383.19"/>
  <polygon class="cls-2" points="424.22 402.18 420.97 402.75 420.97 408.96 424.22 408.37 424.22 402.18"/>
  <polygon class="cls-2" points="417.8 413.49 414.56 414.07 414.56 420.27 417.8 419.69 417.8 413.49"/>
  <polygon class="cls-2" points="405.27 385.44 402.02 386.02 402.02 393.03 405.27 392.45 405.27 385.44"/>
  <polygon class="cls-2" points="417.8 403.32 414.56 403.91 414.56 410.1 417.8 409.53 417.8 403.32"/>
  <polygon class="cls-2" points="417.8 393 414.56 393.58 414.56 399.78 417.8 399.2 417.8 393"/>
  <polygon class="cls-2" points="424.22 423.2 420.97 423.78 420.97 429.99 424.22 429.39 424.22 423.2"/>
  <polygon class="cls-2" points="405.27 395.25 402.02 395.82 402.02 402.02 405.27 401.44 405.27 395.25"/>
  <polygon class="cls-2" points="392.7 375.61 392.71 375.57 392.74 375.47 392.73 375.47 392.7 375.61"/>
  <rect class="cls-2" x="405.02" y="342.38" width="2.16" height="4.81"/>
  <rect class="cls-2" x="405.02" y="334.97" width="2.16" height="4.82"/>
  <rect class="cls-2" x="405.02" y="349.69" width="2.16" height="4.82"/>
  <rect class="cls-2" x="401.71" y="334.97" width="2.17" height="4.82"/>
  <polygon class="cls-2" points="399.05 416.86 395.79 417.44 395.79 423.63 399.05 423.05 399.05 416.86"/>
  <polygon class="cls-2" points="402.02 412.18 405.27 411.6 405.27 405.58 402.02 406.16 402.02 405.99 402.02 405.99 402.02 412.35 402.02 412.35 402.02 412.18"/>
  <polygon class="cls-2" points="405.27 415.74 402.02 416.31 402.02 422.52 405.27 421.93 405.27 415.74"/>
  <polygon class="cls-2" points="399.05 396.36 395.79 396.95 395.79 403.14 399.05 402.57 399.05 396.36"/>
  <polygon class="cls-2" points="397.18 413.22 395.8 413.48 395.8 413.3 399.04 412.72 399.04 412.88 399.05 412.88 399.05 406.53 399.04 406.53 399.04 406.69 395.8 407.28 395.8 407.11 397.8 406.75 395.8 407.11 395.79 407.11 395.79 413.48 395.8 413.48 397.18 413.22"/>
  <rect class="cls-2" x="377.65" y="421.88" width="2.17" height="4.81"/>
  <polygon class="cls-2" points="443.13 398.77 439.89 399.36 439.89 405.56 443.13 404.98 443.13 398.77"/>
  <polygon class="cls-2" points="424.22 391.84 420.97 392.42 420.97 398.63 424.22 398.04 424.22 391.84"/>
  <polygon class="cls-2" points="443.13 388.44 439.89 389.03 439.89 395.24 443.13 394.64 443.13 388.44"/>
  <polygon class="cls-2" points="443.13 378.65 439.89 379.23 439.89 386.22 443.13 385.64 443.13 378.65"/>
  <rect class="cls-2" x="401.71" y="342.38" width="2.17" height="4.81"/>
  <polygon class="cls-2" points="443.13 419.8 439.89 420.39 439.89 426.59 443.13 426.01 443.13 419.8"/>
  <rect class="cls-2" x="318.34" y="511.53" width="4.33" height="5.71"/>
  <rect class="cls-2" x="318.34" y="495.84" width="4.33" height="5.7"/>
  <rect class="cls-2" x="325.34" y="495.84" width="4.33" height="5.7"/>
  <rect class="cls-2" x="318.34" y="503.69" width="4.33" height="5.7"/>
  <rect class="cls-2" x="325.34" y="519.37" width="4.33" height="5.71"/>
  <polygon class="cls-2" points="405.27 411.78 405.27 411.77 403.35 412.12 405.27 411.78"/>
  <rect class="cls-2" x="325.34" y="511.53" width="4.33" height="5.71"/>
  <rect class="cls-2" x="325.34" y="503.69" width="4.33" height="5.7"/>
  <path class="cls-2" d="M279.85,530.94h52.52v-38.9h-52.52v38.9ZM281.67,493.85h48.87v35.28h-48.87v-35.28Z"/>
  <polygon class="cls-2" points="430.61 401.03 427.35 401.6 427.35 407.81 430.61 407.22 430.61 401.03"/>
  <polygon class="cls-2" points="405.27 405.41 405.27 405.4 403.66 405.69 405.27 405.41"/>
  <polygon class="cls-2" points="430.61 380.89 427.35 381.47 427.35 388.48 430.61 387.9 430.61 380.89"/>
  <polygon class="cls-2" points="430.61 411.19 427.35 411.77 427.35 417.97 430.61 417.39 430.61 411.19"/>
  <polygon class="cls-2" points="430.61 422.06 427.35 422.63 427.35 428.84 430.61 428.25 430.61 422.06"/>
  <polygon class="cls-2" points="424.22 382.03 420.97 382.63 420.97 389.62 424.22 389.05 424.22 382.03"/>
  <polygon class="cls-2" points="430.61 390.69 427.35 391.28 427.35 397.48 430.61 396.9 430.61 390.69"/>
  <polygon class="cls-2" points="436.73 389.6 433.49 390.18 433.49 396.37 436.73 395.8 436.73 389.6"/>
  <polygon class="cls-2" points="436.73 379.79 433.49 380.38 433.49 387.38 436.73 386.79 436.73 379.79"/>
  <polygon class="cls-2" points="436.73 399.93 433.49 400.5 433.49 406.71 436.73 406.12 436.73 399.93"/>
  <polygon class="cls-2" points="436.73 420.96 433.49 421.53 433.49 427.75 436.73 427.15 436.73 420.96"/>
  <polygon class="cls-2" points="436.73 410.09 433.49 410.67 433.49 416.87 436.73 416.29 436.73 410.09"/>
  <polygon class="cls-2" points="443.13 408.93 439.89 409.52 439.89 415.72 443.13 415.14 443.13 408.93"/>
  <rect class="cls-2" x="380.96" y="400.35" width="2.16" height="4.81"/>
  <rect class="cls-2" x="380.96" y="392.99" width="2.16" height="4.81"/>
  <rect class="cls-2" x="380.96" y="386.48" width="2.16" height="4.81"/>
  <rect class="cls-2" x="380.96" y="407.71" width="2.16" height="4.81"/>
  <rect class="cls-2" x="380.96" y="379.12" width="2.16" height="4.81"/>
  <rect class="cls-2" x="384.73" y="421.88" width="2.17" height="4.81"/>
  <rect class="cls-2" x="380.96" y="371.76" width="2.16" height="4.82"/>
  <rect class="cls-2" x="401.71" y="349.69" width="2.17" height="4.82"/>
  <rect class="cls-2" x="380.96" y="342.38" width="2.16" height="4.81"/>
  <rect class="cls-2" x="380.96" y="334.97" width="2.16" height="4.82"/>
  <rect class="cls-2" x="380.96" y="364.41" width="2.16" height="4.81"/>
  <rect class="cls-2" x="380.96" y="357.04" width="2.16" height="4.82"/>
  <rect class="cls-2" x="380.96" y="421.88" width="2.16" height="4.81"/>
  <rect class="cls-2" x="380.96" y="414.52" width="2.16" height="4.82"/>
  <rect class="cls-2" x="377.65" y="392.99" width="2.17" height="4.81"/>
  <rect class="cls-2" x="377.65" y="386.48" width="2.17" height="4.81"/>
  <rect class="cls-2" x="377.65" y="400.35" width="2.17" height="4.81"/>
  <rect class="cls-2" x="377.65" y="407.71" width="2.17" height="4.81"/>
  <rect class="cls-2" x="377.65" y="379.12" width="2.17" height="4.81"/>
  <rect class="cls-2" x="377.65" y="414.52" width="2.17" height="4.82"/>
  <rect class="cls-2" x="377.65" y="364.41" width="2.17" height="4.81"/>
  <rect class="cls-2" x="377.65" y="342.38" width="2.17" height="4.81"/>
  <rect class="cls-2" x="377.65" y="371.76" width="2.17" height="4.82"/>
  <rect class="cls-2" x="377.65" y="349.69" width="2.17" height="4.82"/>
  <rect class="cls-2" x="377.65" y="334.97" width="2.17" height="4.82"/>
  <rect class="cls-2" x="377.65" y="357.04" width="2.17" height="4.82"/>
  <rect class="cls-2" x="380.96" y="349.69" width="2.16" height="4.82"/>
  <rect class="cls-2" x="391.37" y="342.38" width="2.16" height="4.81"/>
  <rect class="cls-2" x="391.37" y="349.69" width="2.16" height="4.82"/>
  <rect class="cls-2" x="391.37" y="334.97" width="2.16" height="4.82"/>
  <rect class="cls-2" x="388.04" y="334.97" width="2.16" height="4.82"/>
  <rect class="cls-2" x="388.04" y="342.38" width="2.16" height="4.81"/>
  <rect class="cls-2" x="394.68" y="349.69" width="2.16" height="4.82"/>
  <rect class="cls-2" x="388.04" y="349.69" width="2.16" height="4.82"/>
  <rect class="cls-2" x="398.38" y="342.38" width="2.16" height="4.81"/>
  <rect class="cls-2" x="398.38" y="334.97" width="2.16" height="4.82"/>
  <rect class="cls-2" x="394.68" y="342.38" width="2.16" height="4.81"/>
  <rect class="cls-2" x="394.68" y="334.97" width="2.16" height="4.82"/>
  <rect class="cls-2" x="398.38" y="349.69" width="2.16" height="4.82"/>
  <rect class="cls-2" x="384.73" y="364.41" width="2.17" height="4.81"/>
  <rect class="cls-2" x="384.73" y="386.48" width="2.17" height="4.81"/>
  <rect class="cls-2" x="384.73" y="379.12" width="2.17" height="4.81"/>
  <rect class="cls-2" x="384.73" y="371.76" width="2.17" height="4.82"/>
  <rect class="cls-2" x="384.73" y="392.99" width="2.17" height="4.81"/>
  <rect class="cls-2" x="384.73" y="400.35" width="2.17" height="4.81"/>
  <rect class="cls-2" x="388.04" y="357.04" width="2.16" height="4.82"/>
  <rect class="cls-2" x="384.73" y="407.71" width="2.17" height="4.81"/>
  <rect class="cls-2" x="384.73" y="342.38" width="2.17" height="4.81"/>
  <rect class="cls-2" x="384.73" y="334.97" width="2.17" height="4.82"/>
  <rect class="cls-2" x="384.73" y="357.04" width="2.17" height="4.82"/>
  <rect class="cls-2" x="384.73" y="414.52" width="2.17" height="4.82"/>
  <rect class="cls-2" x="384.73" y="349.69" width="2.17" height="4.82"/>
  <polygon class="cls-2" points="399.05 386.56 395.79 387.14 395.79 394.15 399.05 393.56 399.05 386.56"/>
  <path class="cls-2" d="M420.9,493.45v3.95c1.02-1.16,2.01-2.33,3-3.51v-.69l-3,.25Z"/>
  <path class="cls-2" d="M410.74,502.17v5.64h.05c1-.93,1.98-1.88,2.95-2.85v-3.04l-3,.25Z"/>
  <polygon class="cls-2" points="442.12 456.46 439.11 456.72 439.11 462.35 442.12 462.1 442.12 456.46"/>
  <path class="cls-2" d="M415.74,502.97c.36-.37.71-.74,1.07-1.12.07-.07.13-.14.2-.21l-1.27.11v1.22Z"/>
  <path class="cls-2" d="M439.11,464.58v5.63l1.05-.09c.22-.39.43-.79.65-1.19.01-.03.03-.05.05-.08.09-.15.17-.3.24-.45.23-.42.45-.84.67-1.27.12-.22.24-.44.35-.67v-2.14l-3.01.26Z"/>
  <path class="cls-2" d="M433.4,475.3v5.64l.18-.02c.45-.66.89-1.35,1.32-2.01.51-.79,1.01-1.59,1.5-2.38v-1.48l-3,.25Z"/>
  <path class="cls-2" d="M428.53,483.57v4.46s.05-.06.06-.08c.77-1,1.51-2.02,2.24-3.04.24-.34.48-.67.71-1v-.59l-3.01.25Z"/>
  <polygon class="cls-2" points="400.31 489.85 403.31 489.6 403.31 483.97 400.31 484.22 400.31 489.85"/>
  <polygon class="cls-2" points="400.31 463.89 403.31 463.63 403.31 458 400.31 458.25 400.31 463.89"/>
  <polygon class="cls-2" points="400.31 506.95 403.31 506.7 403.31 501.06 400.31 501.31 400.31 506.95"/>
  <polygon class="cls-2" points="400.31 499.09 403.31 498.84 403.31 493.2 400.31 493.45 400.31 499.09"/>
  <polygon class="cls-2" points="400.31 481.99 403.31 481.74 403.31 476.11 400.31 476.36 400.31 481.99"/>
  <polygon class="cls-2" points="400.31 471.75 403.31 471.49 403.31 465.85 400.31 466.11 400.31 471.75"/>
  <polygon class="cls-2" points="418.73 466.29 415.74 466.55 415.74 472.17 418.73 471.92 418.73 466.29"/>
  <polygon class="cls-2" points="418.73 458.44 415.74 458.68 415.74 464.32 418.73 464.06 418.73 458.44"/>
  <polygon class="cls-2" points="423.9 483.97 420.9 484.22 420.9 489.85 423.9 489.6 423.9 483.97"/>
  <polygon class="cls-2" points="423.9 476.11 420.9 476.36 420.9 481.99 423.9 481.74 423.9 476.11"/>
  <polygon class="cls-2" points="423.9 465.85 420.9 466.11 420.9 471.75 423.9 471.49 423.9 465.85"/>
  <polygon class="cls-2" points="418.73 476.54 415.74 476.8 415.74 482.43 418.73 482.18 418.73 476.54"/>
  <polygon class="cls-2" points="395.15 464.32 398.14 464.06 398.14 458.44 395.15 458.68 395.15 464.32"/>
  <polygon class="cls-2" points="436.4 456.95 433.4 457.2 433.4 462.84 436.4 462.57 436.4 456.95"/>
  <polygon class="cls-2" points="431.54 457.35 431.53 457.35 428.53 457.6 428.53 463.24 431.54 462.99 431.54 457.35"/>
  <polygon class="cls-2" points="436.4 464.8 433.4 465.07 433.4 470.69 436.4 470.44 436.4 464.8"/>
  <polygon class="cls-2" points="423.9 458 420.9 458.25 420.9 463.89 423.9 463.63 423.9 458"/>
  <polygon class="cls-2" points="431.54 475.46 428.53 475.72 428.53 481.35 431.54 481.1 431.54 475.46"/>
  <polygon class="cls-2" points="431.54 470.84 431.54 465.21 428.53 465.47 428.53 471.11 431.53 470.84 431.54 470.84"/>
  <polygon class="cls-2" points="395.15 499.52 398.14 499.27 398.14 493.64 395.15 493.89 395.15 499.52"/>
  <polygon class="cls-2" points="375.7 482.43 378.71 482.18 378.71 476.54 375.7 476.8 375.7 482.43"/>
  <polygon class="cls-2" points="380.87 481.99 383.87 481.74 383.87 476.11 380.87 476.36 380.87 481.99"/>
  <polygon class="cls-2" points="370.71 472.6 373.71 472.34 373.72 472.34 373.72 466.7 370.71 466.97 370.71 472.6"/>
  <polygon class="cls-2" points="375.7 464.32 378.71 464.06 378.71 458.44 375.7 458.68 375.7 464.32"/>
  <polygon class="cls-2" points="370.71 482.85 373.72 482.6 373.72 476.96 370.71 477.22 370.71 482.85"/>
  <polygon class="cls-2" points="375.7 472.17 378.71 471.92 378.71 466.29 375.7 466.55 375.7 472.17"/>
  <polygon class="cls-2" points="370.71 464.75 373.71 464.49 373.72 464.49 373.72 458.85 370.71 459.11 370.71 464.75"/>
  <polygon class="cls-2" points="359.99 482.85 362.99 482.6 362.99 476.96 359.99 477.22 359.99 482.85"/>
  <polygon class="cls-2" points="359.99 472.6 362.99 472.34 362.99 466.7 359.99 466.97 359.99 472.6"/>
  <polygon class="cls-2" points="364.98 472.17 367.98 471.92 367.98 466.29 364.98 466.55 364.98 472.17"/>
  <polygon class="cls-2" points="364.98 482.43 367.98 482.18 367.98 476.54 364.98 476.8 364.98 482.43"/>
  <polygon class="cls-2" points="359.99 464.75 362.99 464.49 362.99 458.85 359.99 459.11 359.99 464.75"/>
  <polygon class="cls-2" points="390.16 472.6 393.15 472.34 393.15 466.7 390.16 466.97 390.16 472.6"/>
  <polygon class="cls-2" points="395.15 472.17 398.14 471.92 398.14 466.29 395.15 466.55 395.15 472.17"/>
  <polygon class="cls-2" points="390.16 464.75 393.15 464.49 393.15 458.85 390.16 459.11 390.16 464.75"/>
  <polygon class="cls-2" points="418.73 484.4 415.74 484.65 415.74 490.29 418.73 490.03 418.73 484.4"/>
  <polygon class="cls-2" points="395.15 507.38 398.14 507.14 398.14 501.5 395.15 501.75 395.15 507.38"/>
  <rect class="cls-2" x="318.34" y="519.37" width="4.33" height="5.71"/>
  <polygon class="cls-2" points="395.15 490.29 398.14 490.03 398.14 484.4 395.15 484.65 395.15 490.29"/>
  <polygon class="cls-2" points="390.16 490.71 393.15 490.45 393.15 484.82 390.16 485.08 390.16 490.71"/>
  <polygon class="cls-2" points="390.16 507.81 393.15 507.55 393.15 501.92 390.16 502.17 390.16 507.81"/>
  <polygon class="cls-2" points="380.87 463.89 383.87 463.63 383.87 458 380.87 458.25 380.87 463.89"/>
  <polygon class="cls-2" points="390.16 499.95 393.15 499.69 393.15 494.05 390.16 494.31 390.16 499.95"/>
  <polygon class="cls-2" points="380.87 471.75 383.87 471.49 383.87 465.85 380.87 466.11 380.87 471.75"/>
  <polygon class="cls-2" points="390.16 482.85 393.15 482.6 393.15 476.96 390.16 477.22 390.16 482.85"/>
  <polygon class="cls-2" points="395.15 482.43 398.14 482.18 398.14 476.54 395.15 476.8 395.15 482.43"/>
  <rect class="cls-2" x="283.8" y="511.53" width="4.32" height="5.71"/>
  <rect class="cls-2" x="283.8" y="495.84" width="4.32" height="5.7"/>
  <rect class="cls-2" x="283.8" y="503.69" width="4.32" height="5.7"/>
  <rect class="cls-2" x="290.58" y="519.37" width="4.32" height="5.71"/>
  <rect class="cls-2" x="290.58" y="503.69" width="4.32" height="5.7"/>
  <rect class="cls-2" x="290.58" y="511.53" width="4.32" height="5.71"/>
  <rect class="cls-2" x="229.06" y="500.67" width="4.52" height="8.24"/>
  <polygon class="cls-2" points="418.73 493.64 415.74 493.89 415.74 499.52 418.73 499.27 418.73 493.64"/>
  <rect class="cls-2" x="290.58" y="495.84" width="4.32" height="5.7"/>
  <rect class="cls-2" x="242.23" y="500.67" width="4.52" height="8.24"/>
  <rect class="cls-2" x="235.66" y="500.67" width="4.5" height="8.24"/>
  <rect class="cls-2" x="248.84" y="500.67" width="4.49" height="8.24"/>
  <rect class="cls-2" x="255.4" y="500.67" width="4.52" height="8.24"/>
  <rect class="cls-2" x="283.8" y="519.37" width="4.32" height="5.71"/>
  <rect class="cls-2" x="311.55" y="519.37" width="4.32" height="5.71"/>
  <rect class="cls-2" x="311.55" y="511.53" width="4.32" height="5.71"/>
  <rect class="cls-2" x="304.37" y="495.84" width="4.32" height="5.7"/>
  <rect class="cls-2" x="311.55" y="495.84" width="4.32" height="5.7"/>
  <rect class="cls-2" x="311.55" y="503.69" width="4.32" height="5.7"/>
  <rect class="cls-2" x="304.37" y="503.69" width="4.32" height="5.7"/>
  <rect class="cls-2" x="304.37" y="511.53" width="4.32" height="5.71"/>
  <rect class="cls-2" x="297.59" y="503.69" width="4.32" height="5.7"/>
  <rect class="cls-2" x="297.59" y="511.53" width="4.32" height="5.71"/>
  <rect class="cls-2" x="297.59" y="495.84" width="4.32" height="5.7"/>
  <rect class="cls-2" x="304.37" y="519.37" width="4.32" height="5.71"/>
  <rect class="cls-2" x="297.59" y="519.37" width="4.32" height="5.71"/>
  <rect class="cls-2" x="222.48" y="500.67" width="4.52" height="8.24"/>
  <polygon class="cls-2" points="454.79 397.23 454.79 404.33 458.88 405.19 459.03 402.85 459.06 402.34 459.06 398.14 454.79 397.23"/>
  <path class="cls-2" d="M454.79,432.81c.09-.34.17-.69.26-1.02,0-.02.01-.04.01-.06.04-.22.1-.44.16-.67.19-.83.39-1.68.56-2.54.05-.19.08-.37.12-.55l-1.11-.23v5.07Z"/>
  <path class="cls-2" d="M454.79,425.13l1.62.35c.34-1.74.64-3.49.93-5.24,0-.06,0-.13.02-.18.03-.14.05-.26.06-.41.06-.33.11-.68.16-1.02l-2.79-.59v7.09Z"/>
  <path class="cls-2" d="M454.79,414.01l3.31.71.2-1.67s.01-.08.01-.11c.06-.47.12-.94.15-1.44,0-.02,0-.03,0-.04l.2-3.22.04-.49-3.92-.82v7.08Z"/>
  <path class="cls-2" d="M454.79,385.24l4.14.88c-.01-.14-.02-.28-.03-.42-.15-2.28-.35-4.55-.61-6.8l-3.5-.75v7.09Z"/>
  <path class="cls-2" d="M454.79,394.93l4.27.9v-6.92s0-.11-.01-.16l-4.26-.91v7.09Z"/>
  <polygon class="cls-2" points="413.74 458.85 410.74 459.11 410.74 464.75 413.74 464.49 413.74 458.85"/>
  <path class="cls-2" d="M169.21,454.53h-4.89c.11.25.23.51.33.77.47,1.11.95,2.21,1.44,3.31.18.39.35.78.53,1.16h2.59v-5.24Z"/>
  <polygon class="cls-2" points="413.74 494.05 410.74 494.31 410.74 499.95 413.74 499.69 413.74 494.05"/>
  <polygon class="cls-2" points="413.74 466.7 410.74 466.97 410.74 472.6 413.74 472.34 413.74 466.7"/>
  <polygon class="cls-2" points="413.74 484.82 410.74 485.08 410.74 490.71 413.74 490.45 413.74 484.82"/>
  <polygon class="cls-2" points="413.74 476.96 410.74 477.22 410.74 482.85 413.74 482.6 413.74 476.96"/>
  <rect class="cls-2" x="222.75" y="472.87" width="20.93" height="4.43"/>
  <rect class="cls-2" x="202.8" y="472.87" width="14.81" height="4.43"/>
  <path class="cls-2" d="M168.79,464.29c.13.28.27.55.42.84v-.84h-.42Z"/>
  <rect class="cls-2" x="222.75" y="488.52" width="20.93" height="4.43"/>
  <rect class="cls-2" x="202.8" y="488.52" width="14.81" height="4.43"/>
  <rect class="cls-2" x="202.8" y="480.51" width="14.81" height="4.43"/>
  <rect class="cls-2" x="222.75" y="480.51" width="20.93" height="4.43"/>
  <rect class="cls-2" x="202.8" y="464.86" width="14.81" height="4.42"/>
  <rect class="cls-2" x="215.89" y="500.67" width="4.53" height="8.24"/>
  <path class="cls-2" d="M191.6,485.15h-9.7l-.36.27c.71,1.01,1.46,2.01,2.2,2.99.45.59.91,1.19,1.37,1.78h6.49v-5.04Z"/>
  <path class="cls-2" d="M191.6,482.16v-5.01h-9.7l-3.92,3.11c.61.93,1.24,1.86,1.86,2.78.05.05.09.11.14.18.07.09.14.2.21.3l1.71-1.36h9.7Z"/>
  <rect class="cls-2" x="222.75" y="464.86" width="20.93" height="4.42"/>
  <path class="cls-2" d="M187.91,493.66c.84,1.02,1.71,2.04,2.59,3.04.29.34.58.68.87,1.01.08.08.16.16.23.25v-4.3h-3.69Z"/>
  <polygon class="cls-2" points="364.98 464.32 367.98 464.06 367.98 458.44 364.98 458.68 364.98 464.32"/>
  <rect class="cls-2" x="279.45" y="425.68" width="2.35" height="5.35"/>
  <rect class="cls-2" x="279.45" y="419.22" width="2.35" height="5.36"/>
  <rect class="cls-2" x="282.76" y="457.15" width="2.34" height="5.36"/>
  <rect class="cls-2" x="282.76" y="464.71" width="2.34" height="5.35"/>
  <rect class="cls-2" x="299.38" y="447.56" width="3.79" height="5.08"/>
  <rect class="cls-2" x="279.45" y="411.67" width="2.35" height="5.35"/>
  <rect class="cls-2" x="279.45" y="433.23" width="2.35" height="5.37"/>
  <rect class="cls-2" x="275.5" y="411.67" width="2.34" height="5.35"/>
  <rect class="cls-2" x="279.45" y="449.87" width="2.35" height="5.36"/>
  <rect class="cls-2" x="275.5" y="419.22" width="2.34" height="5.36"/>
  <rect class="cls-2" x="279.45" y="464.71" width="2.35" height="5.35"/>
  <rect class="cls-2" x="275.5" y="425.68" width="2.34" height="5.35"/>
  <rect class="cls-2" x="279.45" y="457.15" width="2.35" height="5.36"/>
  <rect class="cls-2" x="215.72" y="426.55" width="3.79" height="5.43"/>
  <rect class="cls-2" x="294.59" y="424.16" width="3.78" height="5.07"/>
  <rect class="cls-2" x="294.59" y="439.21" width="3.78" height="5.08"/>
  <rect class="cls-2" x="294.59" y="432.11" width="3.78" height="5.07"/>
  <rect class="cls-2" x="294.59" y="417.06" width="3.78" height="5.08"/>
  <rect class="cls-2" x="299.38" y="454.67" width="3.79" height="5.07"/>
  <rect class="cls-2" x="282.76" y="411.67" width="2.34" height="5.35"/>
  <rect class="cls-2" x="294.59" y="454.67" width="3.78" height="5.07"/>
  <rect class="cls-2" x="282.76" y="442.32" width="2.34" height="5.35"/>
  <rect class="cls-2" x="282.76" y="425.68" width="2.34" height="5.35"/>
  <rect class="cls-2" x="282.76" y="419.22" width="2.34" height="5.36"/>
  <rect class="cls-2" x="282.76" y="449.87" width="2.34" height="5.36"/>
  <rect class="cls-2" x="279.45" y="442.32" width="2.35" height="5.35"/>
  <rect class="cls-2" x="261.2" y="447.28" width="3.39" height="3.62"/>
  <rect class="cls-2" x="261.2" y="455.6" width="3.39" height="3.63"/>
  <rect class="cls-2" x="256.31" y="455.6" width="3.38" height="3.63"/>
  <rect class="cls-2" x="275.5" y="433.23" width="2.34" height="5.37"/>
  <rect class="cls-2" x="261.2" y="463.94" width="3.39" height="3.62"/>
  <rect class="cls-2" x="256.31" y="463.94" width="3.38" height="3.62"/>
  <rect class="cls-2" x="256.31" y="472.27" width="3.38" height="3.62"/>
  <rect class="cls-2" x="210.13" y="412.98" width="3.78" height="5.43"/>
  <rect class="cls-2" x="210.36" y="435.47" width="3.8" height="5.46"/>
  <rect class="cls-2" x="256.31" y="480.59" width="3.38" height="3.63"/>
  <rect class="cls-2" x="256.31" y="447.28" width="3.38" height="3.62"/>
  <rect class="cls-2" x="256.31" y="488.91" width="3.38" height="3.62"/>
  <rect class="cls-2" x="261.2" y="472.27" width="3.39" height="3.62"/>
  <rect class="cls-2" x="275.5" y="464.71" width="2.34" height="5.35"/>
  <rect class="cls-2" x="271.88" y="411.67" width="2.34" height="5.35"/>
  <rect class="cls-2" x="275.5" y="457.15" width="2.34" height="5.36"/>
  <rect class="cls-2" x="275.5" y="442.32" width="2.34" height="5.35"/>
  <rect class="cls-2" x="275.5" y="449.87" width="2.34" height="5.36"/>
  <rect class="cls-2" x="271.88" y="419.22" width="2.34" height="5.36"/>
  <rect class="cls-2" x="271.88" y="442.32" width="2.34" height="5.35"/>
  <rect class="cls-2" x="271.88" y="425.68" width="2.34" height="5.35"/>
  <rect class="cls-2" x="271.88" y="449.87" width="2.34" height="5.36"/>
  <rect class="cls-2" x="271.88" y="457.15" width="2.34" height="5.36"/>
  <rect class="cls-2" x="271.88" y="464.71" width="2.34" height="5.35"/>
  <rect class="cls-2" x="271.88" y="433.23" width="2.34" height="5.37"/>
  <rect class="cls-2" x="294.59" y="447.56" width="3.78" height="5.08"/>
  <path class="cls-2" d="M382.77,496.84v31.81c.54-.31,1.08-.63,1.61-.94v-31.4l1.9-2.56.39-.55v-.66l-.54-.4h-11.96v-1.67h-14.43v-6.77h-1.02v-27.89l48.55-4.1v59.29s.08-.07.13-.11c.5-.44,1-.88,1.49-1.34v-57.97l41.27-3.49c.21-.55.4-1.11.6-1.66l-.25.02h-.2s-42.26,3.58-42.26,3.58h-.78v.07l-49.39,4.18-.78.06-13.82,1.17v-1.92l-.58.06.59-.07h0s15.7-1.62,15.7-1.62h0s.04,0,.04,0h0s86-8.93,86-8.93l.68-.08,4.24-.44,1.4-.15.8-.08c.17-.55.34-1.1.5-1.65t.01-.02l-1.31.15v-67.07l6.48,1.44c-.03-.24-.06-.47-.09-.71-.05-.33-.09-.65-.15-.98l-6.24-1.39v-2.35l5.86,1.3c-.09-.58-.18-1.14-.28-1.71l-5.58-1.24v-2.05l5.18,1.15s-.01-.07-.02-.1c-.1-.53-.19-1.07-.3-1.6l-4.86-1.08v-11.94l1.73.36c-.69-2.33-1.42-4.63-2.22-6.91-.18-.52-.36-1.03-.55-1.55-1.09-3.08-2.29-6.1-3.57-9.08-.17-.38-.33-.75-.51-1.13-23.77-53.81-77.61-91.36-140.22-91.36-48.84,0-92.36,22.86-120.41,58.46-3.12,3.94-6.05,8.07-8.78,12.32-.53.82-1.04,1.64-1.54,2.48-.7,1.14-1.39,2.3-2.07,3.47-1.28,2.21-2.5,4.44-3.66,6.73-.47.93-.95,1.86-1.4,2.81-9.85,20.22-15.39,42.97-15.39,66.98,0,1.35.01,2.69.04,4.02v.02c.13,4.58.46,9.11.97,13.58.2,1.74.43,3.47.68,5.19.22,1.39.44,2.78.68,4.14l.03.18c.22,1.25.46,2.5.72,3.73.08.42.18.85.27,1.29.22,1.07.47,2.13.71,3.18.08.38.18.74.27,1.12h0c.05.22.11.45.17.67,1.12,4.54,2.46,9.03,4,13.41.08.28.17.54.28.79.01.03.02.04.02.06.08.26.16.5.27.75.02.03.03.08.05.11h5.06l9.64,9.29-2.73,2.14-.88.69-.09.1.09.1v11.6c.44.77.88,1.53,1.33,2.28.51.87,1.04,1.72,1.57,2.57.2.32.41.66.61.98.08.12.16.25.24.38l5.15-4.05h9.7v-5.04h-9.7l-7.1,5.6v-3.59l7.1-5.6h9.7v-5.04h-9.7l-7.1,5.61v-4.91l3.18-2.52.12.11.49-.59h.04s3.55-2.86,3.55-2.86h15v48.39c.19.2.39.39.58.59.39.41.8.81,1.22,1.2v-44.05h15.77v-12.25h13.19v12.25h21.17v35.58h-39.15v18.2c.06.06.12.1.18.15.54.45,1.08.87,1.63,1.3v-17.71h54.9v45c.64.17,1.27.33,1.92.49v-70.15h32.01v-8.79h6.92v2.61h13.05v-2.61h4.25v2.61h10.82v5.71h4.7v2.25h10.21v7.44h-78.86v61.68c.17.03.33.07.49.1.38.09.76.18,1.14.26v-60.44h84.8v6.79h14.43s1.62,0,1.62,0v.05h-1.62v1.61h11.71l-1.09,1.48h-47.05v51.06c.55-.11,1.09-.22,1.63-.34v-49.11h45.02ZM407.27,450.03h.78l-.78.06v-.06ZM450.52,350.62h.08s.58,0,.58,0l.03.13-.6-.13h-.16.08ZM411.06,360.68l38.65-8.25v11.9l-55.18,10.25-.8.15.3,1.58,55.68-10.35v2.05l-55.98,10.26.3,1.57,55.68-10.19v2.24l-55.98,10.26.3,1.57,55.68-10.19v67.38l-4.01.42-7.84-9.12-.46-.51-.67.06-31.9,2.95v-5.12h-13.23v-45.94l-.69-.19-1.47-.4v-2.11l2.51-.65.73-.18v-4.47s0-.19,0-.19h0l-.83-.21-1.21-.3v-9.9l19.72-4.21.7-.16ZM403.2,431.2v3.66l-17.01,1.57v-5.23h17.01ZM409.45,359.38l-19.72,4.22-.71.15v12.46l.73.17,1.31.34v2.16l-2.51.65-.73.19v4.56l.69.19,1.46.4v44.72h-5.4v6.98l-15.09,1.4v-104.51h39.97v25.92ZM364.61,320.05l2.04-1.82h40.56l2.24.92v12.69h-41.59v106.27l-3.25.3v-118.36ZM361.7,448.99l.45-.5v-1.47h2.46v-6.98l19.96-1.84,1.62-.15,17.91-1.66.72-.06,31.9-2.95,7.02,8.15-83.1,8.64,1.06-1.18ZM313.23,393.91l7.64,2.53v5.35h-7.64v-7.88ZM308.24,395.7l3.37-1.62v7.71h-9.79v-2.99l6.04-2.91.38-.18ZM189.79,319.69h3.18v-17.69l4.19-9.89,5.01,9.53v16.12h-4.98v1.93h8.97v7.93h11.4v27.87h2.59v47.37h-6.5v-43.29h-1.88v-27.24h-9.6v4.51h-9.2v-6.65h-3.18v-10.5ZM227.94,447.45h-14.99v12.22h-13.97v-6.1h-17.39l-.6.48-2.9,2.31-9.87-9.53-.56-.52h-3.26v-36.4l3.26-5.11h13.73v-49.31h5.2v-23.36h4.6v6.65h12.78v-4.52h5.99v27.24h1.89v43.3h16.09v42.65ZM266.88,497.2h-15.98v-37.53h-13.38v-14.15h8.2v-7.93h11.39v5.81h9.77v53.8ZM287.03,472.88h-18.43v-58.72l-.3-.62-1.57-3.32h1.87v-7.02h-2.3v-.9h1.91l.39-.54.98-1.4.96,1.39.4.55h1.91v.9h-2.31v5.69h4.53v-2.6h2.34v-1.49h1.75v-7.31h4.61v-6.18h3.56v-8.09h14.9v8.09h4.39v3.39l-5.8,2.79h-.54v-5.03c0-2.81-2.32-5.11-5.17-5.11s-5.17,2.3-5.17,5.11v9.81l-2.59.08h-.71s-.28.64-.28.64l-.81,1.77-.28.6.09.68.28,1.97.09.68.36.6.94,1.58v62.01ZM295.11,390.23c-1.73,0-3.26.84-4.2,2.14.05-2.26,1.92-4.06,4.2-4.06s4.13,1.8,4.2,4.04c-.93-1.28-2.47-2.13-4.2-2.13ZM299.3,395.35v6.64l-8.4.24v-6.88c0-2.3,1.89-4.16,4.21-4.16s4.2,1.86,4.2,4.16ZM337.27,472.41v-5.71h-10.82v-2.62h-7.51v2.62h-9.79v-2.62h-10.16v8.8h-10.34v-57.72h53v36.98h-.07v.03h0v-.02h.07s0,0,0,0h0v20.25h-4.38ZM341.96,474.66h-.3v-.65h.3v.65ZM288.65,413.35v-2.9l-.35-.59-1.01-1.7-.36-2.54.78-1.68,13.02-.37v.04h20.92v-.04l9.9.73v2.61h6.53l2.84,1.23,1.72,1.66.19,2.03-.59,1.54h-53.61ZM357.1,483.7h-4.93v-9.04h-8.89v-17.54l13.82-1.17v27.75Z"/>
  <rect class="cls-2" x="328.32" y="417.06" width="3.78" height="5.08"/>
  <rect class="cls-2" x="328.32" y="424.16" width="3.78" height="5.07"/>
  <rect class="cls-2" x="328.32" y="432.11" width="3.78" height="5.07"/>
  <rect class="cls-2" x="374.14" y="512.56" width="4.33" height="9.52"/>
  <rect class="cls-2" x="374.14" y="498.53" width="4.33" height="9.52"/>
  <rect class="cls-2" x="367.35" y="498.53" width="4.33" height="9.52"/>
  <rect class="cls-2" x="320.78" y="417.06" width="3.78" height="5.08"/>
  <rect class="cls-2" x="328.32" y="439.21" width="3.78" height="5.08"/>
  <rect class="cls-2" x="320.78" y="424.16" width="3.78" height="5.07"/>
  <rect class="cls-2" x="328.32" y="447.56" width="3.78" height="5.08"/>
  <rect class="cls-2" x="328.32" y="454.67" width="3.78" height="5.07"/>
  <rect class="cls-2" x="346.25" y="524.81" width="4.33" height="9.52"/>
  <rect class="cls-2" x="352.86" y="524.81" width="4.34" height="9.52"/>
  <rect class="cls-2" x="352.86" y="512.56" width="4.34" height="9.52"/>
  <rect class="cls-2" x="346.25" y="498.53" width="4.33" height="9.52"/>
  <rect class="cls-2" x="352.86" y="498.53" width="4.34" height="9.52"/>
  <rect class="cls-2" x="359.65" y="512.56" width="4.34" height="9.52"/>
  <rect class="cls-2" x="346.25" y="512.56" width="4.33" height="9.52"/>
  <rect class="cls-2" x="339.46" y="498.53" width="4.33" height="9.52"/>
  <rect class="cls-2" x="359.65" y="498.53" width="4.34" height="9.52"/>
  <rect class="cls-2" x="339.46" y="524.81" width="4.33" height="9.52"/>
  <rect class="cls-2" x="339.46" y="512.56" width="4.33" height="9.52"/>
  <rect class="cls-2" x="367.35" y="512.56" width="4.33" height="9.52"/>
  <rect class="cls-2" x="320.78" y="432.11" width="3.78" height="5.07"/>
  <rect class="cls-2" x="320.78" y="439.21" width="3.78" height="5.08"/>
  <rect class="cls-2" x="305.75" y="439.21" width="3.79" height="5.08"/>
  <rect class="cls-2" x="305.75" y="432.11" width="3.79" height="5.07"/>
  <rect class="cls-2" x="305.75" y="417.06" width="3.79" height="5.08"/>
  <rect class="cls-2" x="305.75" y="424.16" width="3.79" height="5.07"/>
  <rect class="cls-2" x="310.67" y="447.56" width="3.81" height="5.08"/>
  <rect class="cls-2" x="310.67" y="439.21" width="3.81" height="5.08"/>
  <rect class="cls-2" x="310.67" y="454.67" width="3.81" height="5.07"/>
  <rect class="cls-2" x="299.38" y="432.11" width="3.79" height="5.07"/>
  <rect class="cls-2" x="299.38" y="424.16" width="3.79" height="5.07"/>
  <rect class="cls-2" x="299.38" y="417.06" width="3.79" height="5.08"/>
  <rect class="cls-2" x="305.75" y="454.67" width="3.79" height="5.07"/>
  <rect class="cls-2" x="305.75" y="447.56" width="3.79" height="5.08"/>
  <rect class="cls-2" x="310.67" y="417.06" width="3.81" height="5.08"/>
  <rect class="cls-2" x="315.58" y="424.16" width="3.78" height="5.07"/>
  <rect class="cls-2" x="315.58" y="417.06" width="3.78" height="5.08"/>
  <rect class="cls-2" x="310.67" y="432.11" width="3.81" height="5.07"/>
  <rect class="cls-2" x="320.78" y="447.56" width="3.78" height="5.08"/>
  <rect class="cls-2" x="315.58" y="432.11" width="3.78" height="5.07"/>
  <rect class="cls-2" x="320.78" y="454.67" width="3.78" height="5.07"/>
  <rect class="cls-2" x="310.67" y="424.16" width="3.81" height="5.07"/>
  <rect class="cls-2" x="299.38" y="439.21" width="3.79" height="5.08"/>
  <rect class="cls-2" x="315.58" y="447.56" width="3.78" height="5.08"/>
  <rect class="cls-2" x="315.58" y="439.21" width="3.78" height="5.08"/>
  <rect class="cls-2" x="315.58" y="454.67" width="3.78" height="5.07"/>
  <rect class="cls-2" x="282.76" y="433.23" width="2.34" height="5.37"/>
  <rect class="cls-2" x="371.02" y="386.48" width="2.16" height="4.81"/>
  <rect class="cls-2" x="190.81" y="374.03" width="3.81" height="5.42"/>
  <rect class="cls-2" x="371.02" y="379.12" width="2.16" height="4.81"/>
  <rect class="cls-2" x="371.02" y="371.76" width="2.16" height="4.82"/>
  <rect class="cls-2" x="190.81" y="412.98" width="3.81" height="5.43"/>
  <rect class="cls-2" x="371.02" y="400.35" width="2.16" height="4.81"/>
  <rect class="cls-2" x="190.81" y="343.59" width="3.81" height="5.42"/>
  <rect class="cls-2" x="190.81" y="403.68" width="3.81" height="5.42"/>
  <rect class="cls-2" x="371.02" y="364.41" width="2.16" height="4.81"/>
  <rect class="cls-2" x="190.81" y="396.9" width="3.81" height="5.44"/>
  <rect class="cls-2" x="371.02" y="392.99" width="2.16" height="4.81"/>
  <rect class="cls-2" x="190.81" y="380.84" width="3.81" height="5.42"/>
  <rect class="cls-2" x="374.32" y="407.71" width="2.16" height="4.81"/>
  <rect class="cls-2" x="190.81" y="367.23" width="3.81" height="5.44"/>
  <rect class="cls-2" x="190.81" y="357.16" width="3.81" height="5.42"/>
  <rect class="cls-2" x="190.81" y="350.36" width="3.81" height="5.46"/>
  <rect class="cls-2" x="374.32" y="400.35" width="2.16" height="4.81"/>
  <rect class="cls-2" x="374.32" y="421.88" width="2.16" height="4.81"/>
  <rect class="cls-2" x="371.02" y="349.69" width="2.16" height="4.82"/>
  <rect class="cls-2" x="371.02" y="342.38" width="2.16" height="4.81"/>
  <rect class="cls-2" x="374.32" y="414.52" width="2.16" height="4.82"/>
  <rect class="cls-2" x="371.02" y="334.97" width="2.16" height="4.82"/>
  <rect class="cls-2" x="371.02" y="357.04" width="2.16" height="4.82"/>
  <rect class="cls-2" x="190.81" y="390.11" width="3.81" height="5.43"/>
  <rect class="cls-2" x="167.32" y="419.76" width="3.79" height="5.44"/>
  <rect class="cls-2" x="167.32" y="426.55" width="3.79" height="5.43"/>
  <rect class="cls-2" x="172.9" y="442.26" width="3.79" height="5.44"/>
  <rect class="cls-2" x="167.32" y="412.98" width="3.79" height="5.43"/>
  <rect class="cls-2" x="167.32" y="435.27" width="3.79" height="5.43"/>
  <rect class="cls-2" x="371.02" y="414.52" width="2.16" height="4.82"/>
  <rect class="cls-2" x="172.9" y="435.27" width="3.79" height="5.43"/>
  <rect class="cls-2" x="371.02" y="407.71" width="2.16" height="4.81"/>
  <rect class="cls-2" x="196.42" y="329.27" width="3.78" height="5.44"/>
  <rect class="cls-2" x="374.32" y="334.97" width="2.16" height="4.82"/>
  <rect class="cls-2" x="190.81" y="419.76" width="3.81" height="5.44"/>
  <rect class="cls-2" x="196.42" y="308.7" width="3.78" height="5.4"/>
  <rect class="cls-2" x="178.03" y="419.76" width="3.79" height="5.44"/>
  <rect class="cls-2" x="190.81" y="442.26" width="3.81" height="5.44"/>
  <rect class="cls-2" x="178.03" y="412.98" width="3.79" height="5.43"/>
  <rect class="cls-2" x="190.81" y="426.55" width="3.81" height="5.43"/>
  <rect class="cls-2" x="190.81" y="435.47" width="3.81" height="5.46"/>
  <rect class="cls-2" x="172.9" y="412.98" width="3.79" height="5.43"/>
  <rect class="cls-2" x="172.9" y="419.76" width="3.79" height="5.44"/>
  <rect class="cls-2" x="172.9" y="426.55" width="3.79" height="5.43"/>
  <rect class="cls-2" x="178.03" y="426.55" width="3.79" height="5.43"/>
  <rect class="cls-2" x="178.03" y="435.27" width="3.79" height="5.43"/>
  <rect class="cls-2" x="178.03" y="442.26" width="3.79" height="5.44"/>
  <rect class="cls-2" x="374.32" y="379.12" width="2.16" height="4.81"/>
  <rect class="cls-2" x="221.08" y="435.47" width="3.78" height="5.46"/>
  <rect class="cls-2" x="201.53" y="343.59" width="3.8" height="5.42"/>
  <rect class="cls-2" x="374.32" y="371.76" width="2.16" height="4.82"/>
  <rect class="cls-2" x="210.13" y="426.55" width="3.78" height="5.43"/>
  <rect class="cls-2" x="210.13" y="419.76" width="3.78" height="5.44"/>
  <rect class="cls-2" x="201.53" y="350.36" width="3.8" height="5.46"/>
  <rect class="cls-2" x="201.53" y="357.16" width="3.8" height="5.42"/>
  <rect class="cls-2" x="201.53" y="380.84" width="3.8" height="5.42"/>
  <rect class="cls-2" x="201.53" y="390.11" width="3.8" height="5.43"/>
  <rect class="cls-2" x="201.53" y="367.23" width="3.8" height="5.44"/>
  <rect class="cls-2" x="201.53" y="374.03" width="3.8" height="5.42"/>
  <rect class="cls-2" x="215.72" y="412.98" width="3.79" height="5.43"/>
  <rect class="cls-2" x="220.85" y="412.98" width="3.77" height="5.43"/>
  <rect class="cls-2" x="215.72" y="419.76" width="3.79" height="5.44"/>
  <rect class="cls-2" x="196.42" y="442.26" width="3.78" height="5.44"/>
  <rect class="cls-2" x="374.32" y="349.69" width="2.16" height="4.82"/>
  <rect class="cls-2" x="374.32" y="342.38" width="2.16" height="4.81"/>
  <rect class="cls-2" x="374.32" y="357.04" width="2.16" height="4.82"/>
  <rect class="cls-2" x="220.85" y="426.55" width="3.77" height="5.43"/>
  <rect class="cls-2" x="220.85" y="419.76" width="3.77" height="5.44"/>
  <rect class="cls-2" x="201.53" y="396.9" width="3.8" height="5.44"/>
  <rect class="cls-2" x="215.95" y="435.47" width="3.8" height="5.46"/>
  <rect class="cls-2" x="374.32" y="364.41" width="2.16" height="4.81"/>
  <rect class="cls-2" x="196.42" y="390.11" width="3.78" height="5.43"/>
  <rect class="cls-2" x="196.42" y="367.23" width="3.78" height="5.44"/>
  <rect class="cls-2" x="196.42" y="380.84" width="3.78" height="5.42"/>
  <rect class="cls-2" x="196.42" y="403.68" width="3.78" height="5.42"/>
  <rect class="cls-2" x="196.42" y="374.03" width="3.78" height="5.42"/>
  <rect class="cls-2" x="196.42" y="396.9" width="3.78" height="5.44"/>
  <rect class="cls-2" x="196.42" y="426.55" width="3.78" height="5.43"/>
  <rect class="cls-2" x="374.32" y="392.99" width="2.16" height="4.81"/>
  <rect class="cls-2" x="196.42" y="435.47" width="3.78" height="5.46"/>
  <rect class="cls-2" x="201.53" y="403.68" width="3.8" height="5.42"/>
  <rect class="cls-2" x="196.42" y="419.76" width="3.78" height="5.44"/>
  <rect class="cls-2" x="196.42" y="412.98" width="3.78" height="5.43"/>
  <rect class="cls-2" x="201.53" y="426.55" width="3.8" height="5.43"/>
  <rect class="cls-2" x="201.53" y="442.26" width="3.8" height="5.44"/>
  <rect class="cls-2" x="201.53" y="435.47" width="3.8" height="5.46"/>
  <rect class="cls-2" x="201.53" y="419.76" width="3.8" height="5.44"/>
  <rect class="cls-2" x="201.53" y="412.98" width="3.8" height="5.43"/>
  <rect class="cls-2" x="371.02" y="421.88" width="2.16" height="4.81"/>
  <rect class="cls-2" x="374.32" y="386.48" width="2.16" height="4.81"/>
  <rect class="cls-2" x="196.42" y="343.59" width="3.78" height="5.42"/>
  <rect class="cls-2" x="196.42" y="357.16" width="3.78" height="5.42"/>
  <rect class="cls-2" x="196.42" y="350.36" width="3.78" height="5.46"/>
  <path class="cls-3" d="M139.4,352.21l-10.38-2.81,1.5-5.55c.6-2.22.74-4.45.45-6.7-.3-2.16-1-4.23-2.1-6.14-1.09-1.91-2.53-3.55-4.24-4.9-1.8-1.37-3.81-2.38-6.02-2.97-2.18-.59-4.45-.74-6.7-.46-2.16.31-4.22,1-6.1,2.11-1.91,1.1-3.55,2.53-4.9,4.25-1.41,1.79-2.41,3.79-3.01,6l-4.4,16.31,43,11.61,2.9-10.75ZM119.77,340.95l-1.5,5.55-11.12-3,1.5-5.56c.83-3.07,3.99-4.88,7.06-4.05,3.07.82,4.89,3.98,4.06,7.06Z"/>
  <polygon class="cls-3" points="158.75 303.88 124.6 273.21 119.23 283.36 144.31 305.88 111.58 297.82 106.21 307.97 150.78 318.95 158.75 303.88"/>
  <path class="cls-3" d="M179.02,276.72c1.62-1.79,2.86-3.89,3.65-6.18.78-2.2,1.11-4.52.97-6.88-.12-2.33-.69-4.6-1.65-6.71-1.07-2.2-2.47-4.16-4.29-5.8l-6.19-5.58c-1.82-1.64-3.91-2.84-6.21-3.66-2.2-.75-4.51-1.08-6.85-.95-2.36.09-4.63.66-6.74,1.67-2.2,1.02-4.15,2.47-5.77,4.27l-12.12,13.44,33.08,29.83,12.12-13.45ZM149.54,259.53l4.67-5.18c1.24-1.37,2.95-2.18,4.79-2.27,1.87-.12,3.66.51,5.05,1.76l6.19,5.58c1.4,1.26,2.21,2.98,2.28,4.84.1,1.84-.53,3.63-1.77,5.01l-4.67,5.17-16.54-14.91Z"/>
  <path class="cls-3" d="M197.54,227.71c1.64.98,3.52,1.6,5.57,1.88,3.84.48,7.94-.38,11.61-2.43,1.61-.9,3.36-1.29,4.78-1.1.82.1,1.44.37,1.63.7.2.36.1,1.04-.25,1.78-.58,1.3-1.84,2.59-3.45,3.48-1.58.89-3.33,1.28-4.78,1.1-.78-.1-1.41-.38-1.61-.74l-9.73,5.42c1.03,1.84,2.53,3.36,4.36,4.49,1.64.98,3.52,1.61,5.57,1.89,3.84.48,7.94-.39,11.61-2.43,3.7-2.06,6.6-5.1,8.18-8.6.84-1.89,1.29-3.82,1.32-5.73.03-2.16-.48-4.25-1.5-6.08-1.01-1.81-2.51-3.33-4.37-4.45-1.64-.98-3.52-1.6-5.57-1.88-3.81-.5-7.91.37-11.61,2.43-1.58.88-3.33,1.27-4.78,1.09-.79-.1-1.41-.37-1.61-.74-.19-.33-.09-1,.23-1.73.61-1.32,1.87-2.6,3.45-3.49,1.61-.9,3.36-1.29,4.78-1.09.81.09,1.44.36,1.63.69l9.72-5.42c-1.01-1.81-2.51-3.33-4.37-4.44-1.64-.99-3.52-1.61-5.57-1.89-3.81-.5-7.91.37-11.61,2.43-3.67,2.04-6.57,5.08-8.17,8.6-.84,1.89-1.3,3.81-1.33,5.72,0,2.15.51,4.24,1.51,6.05,1.03,1.83,2.53,3.36,4.36,4.49Z"/>
  <path class="cls-3" d="M236.22,214.46c.68,2.36,1.79,4.49,3.33,6.4,1.44,1.8,3.23,3.31,5.31,4.43,2.06,1.17,4.28,1.89,6.58,2.16,2.43.29,4.83.1,7.18-.58,2.33-.66,4.49-1.78,6.37-3.31,1.83-1.46,3.34-3.25,4.46-5.32,1.14-2.05,1.85-4.28,2.15-6.58.27-2.43.11-4.83-.57-7.18l-2.3-8.02c-.67-2.35-1.81-4.48-3.32-6.39-1.48-1.8-3.27-3.3-5.31-4.44-2.06-1.16-4.29-1.88-6.61-2.14-2.41-.3-4.83-.11-7.16.56-2.35.68-4.48,1.79-6.39,3.33-1.8,1.44-3.31,3.23-4.44,5.31-1.16,2.05-1.88,4.28-2.15,6.57-.29,2.44-.1,4.83.57,7.19l2.3,8.01ZM245.23,198.08c.89-1.62,2.37-2.8,4.18-3.32,1.77-.51,3.65-.29,5.27.6,1.64.89,2.83,2.37,3.35,4.17l2.3,8.02c.51,1.8.29,3.69-.63,5.31-.9,1.61-2.38,2.8-4.15,3.31-1.8.52-3.69.29-5.3-.6-1.62-.89-2.8-2.37-3.32-4.18l-2.3-8.01c-.52-1.81-.3-3.69.6-5.3Z"/>
  <polygon class="cls-3" points="314.34 219.64 313.82 208.52 292.37 209.52 290.8 176.16 279.68 176.68 281.77 221.17 314.34 219.64"/>
  <path class="cls-3" d="M323.45,215.3c1.35,1.94,3.04,3.55,5,4.79,2.06,1.32,4.31,2.18,6.72,2.59,2.39.4,4.82.33,7.17-.24,2.28-.51,4.42-1.48,6.33-2.86,1.91-1.36,3.52-3.05,4.78-5,1.29-2.07,2.19-4.31,2.6-6.72l4.41-26.07-10.97-1.86-4.42,26.06c-.32,1.86-1.33,3.46-2.87,4.52-1.5,1.07-3.35,1.5-5.17,1.19-1.85-.31-3.45-1.33-4.52-2.83-1.07-1.51-1.5-3.35-1.18-5.2l4.42-26.07-10.98-1.86-4.42,26.07c-.41,2.41-.33,4.81.23,7.2.52,2.25,1.48,4.38,2.87,6.29Z"/>
  <polygon class="cls-3" points="378.48 236.21 391.68 205.53 401.53 209.77 405.93 199.54 375.98 186.66 371.57 196.88 381.45 201.13 368.25 231.81 378.48 236.21"/>
  <polygon class="cls-3" points="400.07 234.63 393.62 243.7 416.3 259.83 422.75 250.75 415.96 245.93 428.86 227.78 435.65 232.6 442.1 223.53 419.42 207.4 412.97 216.48 419.79 221.33 406.88 239.48 400.07 234.63"/>
  <path class="cls-3" d="M433.64,250.55c-1.81,1.65-3.22,3.59-4.25,5.82-.98,2.09-1.53,4.36-1.62,6.72-.13,2.36.21,4.67.99,6.85.82,2.31,2.05,4.37,3.7,6.19,1.63,1.78,3.59,3.22,5.8,4.23,2.11.99,4.38,1.55,6.74,1.64,2.34.11,4.66-.24,6.85-.99,2.29-.84,4.38-2.05,6.19-3.7l6.16-5.62c1.81-1.65,3.21-3.61,4.25-5.81.96-2.12,1.51-4.39,1.62-6.73.13-2.36-.21-4.67-1.01-6.87-.8-2.29-2.05-4.38-3.68-6.16-1.65-1.81-3.59-3.23-5.82-4.26-2.09-.97-4.36-1.53-6.72-1.62-2.36-.13-4.67.22-6.85.99-2.31.82-4.37,2.05-6.19,3.7l-6.16,5.62ZM447.31,253.16c1.38-1.26,3.17-1.9,5.01-1.81,1.85.08,3.57.88,4.83,2.27,1.24,1.36,1.88,3.15,1.8,4.99-.07,1.87-.87,3.59-2.25,4.85l-6.17,5.62c-1.38,1.26-3.17,1.9-5.03,1.79-1.85-.08-3.57-.88-4.81-2.25-1.26-1.39-1.9-3.17-1.82-5.01.09-1.85.89-3.57,2.28-4.83l6.16-5.62Z"/>
  <polygon class="cls-3" points="453.17 303.83 473.06 293.05 460.47 317.31 465.09 325.85 504.26 304.64 498.96 294.84 479.07 305.61 491.66 281.36 487.04 272.82 447.87 294.03 453.17 303.83"/>
  <path class="cls-3" d="M496.66,323.36c-2.03.54-3.89,1.62-5.44,3.11-1.35,1.34-2.43,3.01-3.21,4.92-1.42,3.6-1.6,7.8-.54,11.86.47,1.78.42,3.57-.12,4.9-.3.77-.71,1.31-1.08,1.4-.4.11-1.03-.16-1.66-.68-1.12-.89-2.05-2.42-2.52-4.21-.46-1.75-.41-3.54.12-4.9.3-.74.72-1.28,1.12-1.38l-2.83-10.77c-2.03.53-3.88,1.61-5.43,3.11-1.36,1.34-2.44,3-3.22,4.92-1.42,3.6-1.6,7.79-.53,11.85,1.07,4.1,3.29,7.66,6.29,10.06,1.62,1.29,3.38,2.21,5.22,2.71,2.09.57,4.24.6,6.27.06,2-.52,3.85-1.6,5.39-3.13,1.36-1.34,2.44-3,3.22-4.92,1.43-3.57,1.61-7.76.53-11.85-.46-1.76-.4-3.55.13-4.91.3-.73.72-1.27,1.12-1.38.37-.09,1,.17,1.62.67,1.13.92,2.06,2.45,2.52,4.2.47,1.79.41,3.58-.13,4.9-.29.77-.71,1.31-1.08,1.41l2.83,10.77c2-.53,3.86-1.61,5.4-3.13,1.36-1.35,2.43-3.01,3.21-4.93,1.43-3.56,1.62-7.76.54-11.85-1.07-4.06-3.29-7.62-6.29-10.06-1.63-1.28-3.38-2.2-5.22-2.7-2.09-.54-4.23-.57-6.23-.05Z"/>
  <path class="cls-3" d="M482.89,219.11c-47.25-47.25-110.07-73.28-176.89-73.28s-129.64,26.03-176.89,73.28-73.28,110.07-73.28,176.89,26.03,129.64,73.28,176.89c47.25,47.26,110.07,73.28,176.89,73.28s129.64-26.02,176.89-73.28c47.26-47.25,73.28-110.07,73.28-176.89s-26.02-129.64-73.28-176.89ZM306,632.11c-130.19,0-236.11-105.92-236.11-236.11s105.92-236.11,236.11-236.11,236.11,105.92,236.11,236.11-105.92,236.11-236.11,236.11Z"/>
  <path class="cls-1" d="M306,159.89c-130.19,0-236.11,105.92-236.11,236.11s105.92,236.11,236.11,236.11,236.11-105.92,236.11-236.11-105.92-236.11-236.11-236.11ZM514.4,336.17c1.08,4.09.89,8.29-.54,11.85-.78,1.92-1.85,3.58-3.21,4.93-1.54,1.52-3.4,2.6-5.4,3.13l-2.83-10.77c.37-.1.79-.64,1.08-1.41.54-1.32.6-3.11.13-4.9-.46-1.75-1.39-3.28-2.52-4.2-.62-.5-1.25-.76-1.62-.67-.4.11-.82.65-1.12,1.38-.53,1.36-.59,3.15-.13,4.91,1.08,4.09.9,8.28-.53,11.85-.78,1.92-1.86,3.58-3.22,4.92-1.54,1.53-3.39,2.61-5.39,3.13-2.03.54-4.18.51-6.27-.06-1.84-.5-3.6-1.42-5.22-2.71-3-2.4-5.22-5.96-6.29-10.06-1.07-4.06-.89-8.25.53-11.85.78-1.92,1.86-3.58,3.22-4.92,1.55-1.5,3.4-2.58,5.43-3.11l2.83,10.77c-.4.1-.82.64-1.12,1.38-.53,1.36-.58,3.15-.12,4.9.47,1.79,1.4,3.32,2.52,4.21.63.52,1.26.79,1.66.68.37-.09.78-.63,1.08-1.4.54-1.33.59-3.12.12-4.9-1.06-4.06-.88-8.26.54-11.86.78-1.91,1.86-3.58,3.21-4.92,1.55-1.49,3.41-2.57,5.44-3.11,2-.52,4.14-.49,6.23.05,1.84.5,3.59,1.42,5.22,2.7,3,2.44,5.22,6,6.29,10.06ZM511.42,396c0,6.73-5.46,12.19-12.19,12.19s-12.19-5.46-12.19-12.19,5.45-12.19,12.19-12.19,12.19,5.46,12.19,12.19ZM487.04,272.82l4.62,8.54-12.59,24.25,19.89-10.77,5.3,9.8-39.17,21.21-4.62-8.54,12.59-24.26-19.89,10.78-5.3-9.8,39.17-21.21ZM452.84,240.24c2.36.09,4.63.65,6.72,1.62,2.23,1.03,4.17,2.45,5.82,4.26,1.63,1.78,2.88,3.87,3.68,6.16.8,2.2,1.14,4.51,1.01,6.87-.11,2.34-.66,4.61-1.62,6.73-1.04,2.2-2.44,4.16-4.25,5.81l-6.16,5.62c-1.81,1.65-3.9,2.86-6.19,3.7-2.19.75-4.51,1.1-6.85.99-2.36-.09-4.63-.65-6.74-1.64-2.21-1.01-4.17-2.45-5.8-4.23-1.65-1.82-2.88-3.88-3.7-6.19-.78-2.18-1.12-4.49-.99-6.85.09-2.36.64-4.63,1.62-6.72,1.03-2.23,2.44-4.17,4.25-5.82l6.16-5.62c1.82-1.65,3.88-2.88,6.19-3.7,2.18-.77,4.49-1.12,6.85-.99ZM412.97,216.48l6.45-9.08,22.68,16.13-6.45,9.07-6.79-4.82-12.9,18.15,6.79,4.82-6.45,9.08-22.68-16.13,6.45-9.07,6.81,4.85,12.91-18.15-6.82-4.85ZM371.57,196.88l4.41-10.22,29.95,12.88-4.4,10.23-9.85-4.24-13.2,30.68-10.23-4.4,13.2-30.68-9.88-4.25ZM320.35,201.81l4.42-26.07,10.98,1.86-4.42,26.07c-.32,1.85.11,3.69,1.18,5.2,1.07,1.5,2.67,2.52,4.52,2.83,1.82.31,3.67-.12,5.17-1.19,1.54-1.06,2.55-2.66,2.87-4.52l4.42-26.06,10.97,1.86-4.41,26.07c-.41,2.41-1.31,4.65-2.6,6.72-1.26,1.95-2.87,3.64-4.78,5-1.91,1.38-4.05,2.35-6.33,2.86-2.35.57-4.78.64-7.17.24-2.41-.41-4.66-1.27-6.72-2.59-1.96-1.24-3.65-2.85-5-4.79-1.39-1.91-2.35-4.04-2.87-6.29-.56-2.39-.64-4.79-.23-7.2ZM290.8,176.16l1.57,33.36,21.45-1,.52,11.12-32.57,1.53-2.09-44.49,11.12-.52ZM233.35,199.26c.27-2.29.99-4.52,2.15-6.57,1.13-2.08,2.64-3.87,4.44-5.31,1.91-1.54,4.04-2.65,6.39-3.33,2.33-.67,4.75-.86,7.16-.56,2.32.26,4.55.98,6.61,2.14,2.04,1.14,3.83,2.64,5.31,4.44,1.51,1.91,2.65,4.04,3.32,6.39l2.3,8.02c.68,2.35.84,4.75.57,7.18-.3,2.3-1.01,4.53-2.15,6.58-1.12,2.07-2.63,3.86-4.46,5.32-1.88,1.53-4.04,2.65-6.37,3.31-2.35.68-4.75.87-7.18.58-2.3-.27-4.52-.99-6.58-2.16-2.08-1.12-3.87-2.63-5.31-4.43-1.54-1.91-2.65-4.04-3.33-6.4l-2.3-8.01c-.67-2.36-.86-4.75-.57-7.19ZM193,211.45c1.6-3.52,4.5-6.56,8.17-8.6,3.7-2.06,7.8-2.93,11.61-2.43,2.05.28,3.93.9,5.57,1.89,1.86,1.11,3.36,2.63,4.37,4.44l-9.72,5.42c-.19-.33-.82-.6-1.63-.69-1.42-.2-3.17.19-4.78,1.09-1.58.89-2.84,2.17-3.45,3.49-.32.73-.42,1.4-.23,1.73.2.37.82.64,1.61.74,1.45.18,3.2-.21,4.78-1.09,3.7-2.06,7.8-2.93,11.61-2.43,2.05.28,3.93.9,5.57,1.88,1.86,1.12,3.36,2.64,4.37,4.45,1.02,1.83,1.53,3.92,1.5,6.08-.03,1.91-.48,3.84-1.32,5.73-1.58,3.5-4.48,6.54-8.18,8.6-3.67,2.04-7.77,2.91-11.61,2.43-2.05-.28-3.93-.91-5.57-1.89-1.83-1.13-3.33-2.65-4.36-4.49l9.73-5.42c.2.36.83.64,1.61.74,1.45.18,3.2-.21,4.78-1.1,1.61-.89,2.87-2.18,3.45-3.48.35-.74.45-1.42.25-1.78-.19-.33-.81-.6-1.63-.7-1.42-.19-3.17.2-4.78,1.1-3.67,2.05-7.77,2.91-11.61,2.43-2.05-.28-3.93-.9-5.57-1.88-1.83-1.13-3.33-2.66-4.36-4.49-1-1.81-1.51-3.9-1.51-6.05.03-1.91.49-3.83,1.33-5.72ZM145.94,246.9c1.62-1.8,3.57-3.25,5.77-4.27,2.11-1.01,4.38-1.58,6.74-1.67,2.34-.13,4.65.2,6.85.95,2.3.82,4.39,2.02,6.21,3.66l6.19,5.58c1.82,1.64,3.22,3.6,4.29,5.8.96,2.11,1.53,4.38,1.65,6.71.14,2.36-.19,4.68-.97,6.88-.79,2.29-2.03,4.39-3.65,6.18l-12.12,13.45-33.08-29.83,12.12-13.44ZM111.58,297.82l32.73,8.06-25.08-22.52,5.37-10.15,34.15,30.67-7.97,15.07-44.57-10.98,5.37-10.15ZM151.98,491.2l-1.23-1.32,1.76-2.79,1.72.53-2.25,3.58ZM156.58,485.86c.67-1.06,2.07-1.38,3.13-.71l25.83,16.21c1.06.67,1.38,2.06.71,3.12l-5.16,8.23c-.67,1.06-2.07,1.38-3.13.71l-25.82-16.21c-1.06-.67-1.38-2.06-.72-3.12l5.16-8.23ZM97.9,335.04c.6-2.21,1.6-4.21,3.01-6,1.35-1.72,2.99-3.15,4.9-4.25,1.88-1.11,3.94-1.8,6.1-2.11,2.25-.28,4.52-.13,6.7.46,2.21.59,4.22,1.6,6.02,2.97,1.71,1.35,3.15,2.99,4.24,4.9,1.1,1.91,1.8,3.98,2.1,6.14.29,2.25.15,4.48-.45,6.7l-1.5,5.55,10.38,2.81-2.9,10.75-43-11.61,4.4-16.31ZM119.88,396c0,6.73-5.45,12.19-12.19,12.19s-12.19-5.46-12.19-12.19,5.46-12.19,12.19-12.19,12.19,5.46,12.19,12.19ZM103.75,439.5c-.54-.52-1.4-.52-1.94-.01-.3.28-.44.66-.44,1.03s.14.74.43,1.02l.35.33h.01c.28.27.28.71,0,.97l-2.73,2.58c-.26.24-.66.24-.91,0l-1.49-1.42-5.26-5.01-.92-.87c-.27-.26-.27-.7,0-.96l2.74-2.58c.25-.24.65-.24.9,0,.28.26.63.39.98.39s.7-.13.97-.38c.29-.28.44-.66.44-1.03s-.15-.74-.44-1.02l-.34-.33c-.12-.11-.18-.26-.18-.41s.06-.3.18-.41l6.76-6.38c.65-.43,1.38-.86,2.2-1.25.88-.43,1.87-.83,2.95-1.14.51-.15,1.01-.28,1.51-.38,3.91-.8,7.43-.21,9.97.56.79.25,1.49.5,2.07.75.26.1.5.21.71.31l-1.52,1.44c-.35.33-.86.43-1.32.26h0c-.69-.26-1.44-.4-2.23-.4-.07,0-.13,0-.2.01-3.22.09-5.81,2.55-5.97,5.63,0,.09-.01.19-.01.29,0,.72.14,1.41.38,2.05l-7.19,6.79-.45-.43ZM132.05,468.33l-1.02-1.12h0s-3.43-3.82-3.43-3.82h-.01l-8.7-9.94-11.94-13.62,4.6-4.34,16.28,14.62,6.56,5.89,3.95,3.59,1.46,1.32c.7.91,1.11,2.04,1.11,3.27,0,1.15-.35,2.21-.96,3.08l-1.37,1.36c-.87.61-1.93.96-3.07.96-1.32,0-2.53-.47-3.46-1.25ZM142.7,547.71c-1.1,1.63-3.3,2.09-4.97,1.05-1.1-.69-1.71-1.88-1.71-3.1,0-.62.16-1.25.5-1.83l9.98-17.13,7.29,4.57-11.09,16.44ZM157.9,530.08l-.68,1.08c-.27.44-.85.57-1.29.3l-10.5-6.59c-.44-.28-.57-.85-.29-1.29l.68-1.09c.27-.43.85-.57,1.29-.29l10.5,6.59c.44.27.57.85.29,1.29ZM182.01,522.26l-1.51-.32-19.36-4.14c-1.14-.25-2.31.25-2.93,1.23l-4.04,6.44-2.65-1.66,4.87-7.75c.78-1.25,2.27-1.88,3.72-1.57l.84.18c.12.03.24.05.36.08.33.07.66.14.99.21.51.11,1.01.22,1.51.32.64.14,1.27.27,1.91.41.72.16,1.44.31,2.17.47.77.16,1.55.33,2.32.49.78.17,1.57.34,2.35.51.75.16,1.5.32,2.25.48.68.14,1.36.29,2.04.44.57.12,1.14.24,1.7.36.42.09.83.18,1.25.27.53.11,1.06.27,1.61.19.13-.02.25-.05.38-.08.53-.17.99-.53,1.3-1,.04-.06.07-.1.08-.13l2.96-4.72-.11-.49-2.46-1.95,1.72-2.75,2.74,2.18,1.53,1.21.37,1.64-5.22,8.32c-.57.9-1.64,1.36-2.69,1.13ZM217.36,547.7c0-1.36.33-2.64.9-3.77,1.38-2.68,4.17-4.52,7.39-4.52.82,0,1.6.12,2.35.34l-7.13,6.83.09.08,5.59,5.67.06.06,7.03-6.92c.2.71.3,1.46.3,2.23,0,3.26-1.88,6.08-4.61,7.44-1.11.55-2.36.86-3.68.86-.75,0-1.47-.1-2.16-.29l-6.04,6.67-1.51-1.66-.88.89-2.31,2.36-4.88-4.92-.3-.31,2.44-2.21,7.59-6.84c-.16-.64-.24-1.3-.24-1.99ZM211.84,564.9l-1.83,1.87-4.97-5.01-.39-.39-13.56-13.67-4.37-1.46-2.02-4.42,2.04-2.07,4.39,1.89,1.82,4.21,13.65,13.76.33.34,4.91,4.95ZM196.51,585.51l-1.56,1.73c-1.08.82-2.42,1.31-3.88,1.31-1.36,0-2.61-.42-3.65-1.14l-1.61-1.62c-.72-1.03-1.14-2.28-1.14-3.64,0-1.56.56-2.99,1.49-4.1l1.33-1.2,13.8-12.45,2.32-2.1.42.42,5,5.04-2.18,2.23-.99,1,1.9,2.1-11.25,12.42ZM232.96,587.82c-2.29,2.33-6.04,2.34-8.34.03l-15.83-15.91-1.03-1.04,8.21-8.37.71.7,16.25,16.34c1.14,1.15,1.71,2.64,1.71,4.14s-.56,2.97-1.68,4.11ZM333.12,593.23c0,1.59-1.29,2.87-2.87,2.87h-5.41c-1.16,0-2.21.72-2.64,1.8-.08.18-.16.37-.24.55-.47,1.08-.23,2.34.6,3.17l3.82,3.81c1.12,1.13,1.12,2.94,0,4.06l-5.17,5.17c-1.12,1.12-2.94,1.12-4.06,0l-3.9-3.9c-.83-.82-2.07-1.05-3.14-.6-.2.09-.4.17-.59.25-1.11.43-1.83,1.5-1.83,2.69v5.43c0,1.58-1.28,2.87-2.87,2.87h-7.31c-1.59,0-2.87-1.29-2.87-2.87v-5.55c0-1.18-.72-2.23-1.81-2.67-.2-.08-.4-.17-.6-.25-1.08-.48-2.34-.23-3.17.61l-3.81,3.81c-1.13,1.12-2.94,1.12-4.06,0l-5.17-5.17c-1.13-1.12-1.12-2.94,0-4.06l3.89-3.89c.82-.83,1.06-2.08.61-3.15-.05-.11-.09-.22-.14-.32-.44-1.08-1.49-1.79-2.65-1.79h-5.39c-1.59,0-2.87-1.28-2.87-2.87v-7.31c0-1.59,1.28-2.87,2.87-2.87h5.24c1.19,0,2.25-.74,2.68-1.85.08-.21.16-.41.25-.61.46-1.09.23-2.34-.61-3.17l-3.7-3.7c-1.12-1.12-1.12-2.94,0-4.06l5.17-5.17c1.12-1.12,2.94-1.12,4.06,0l3.63,3.62c.83.84,2.09,1.08,3.17.61.2-.09.4-.17.6-.25,1.09-.44,1.81-1.49,1.81-2.67v-5.18c0-1.58,1.28-2.87,2.87-2.87h7.31c1.59,0,2.87,1.29,2.87,2.87v5.1c0,1.18.73,2.22,1.83,2.65.19.08.39.16.59.24,1.07.46,2.31.23,3.14-.59l3.71-3.72c1.12-1.12,2.94-1.12,4.06,0l5.17,5.17c1.12,1.12,1.12,2.94,0,4.06l-3.63,3.63c-.83.84-1.07,2.1-.59,3.19.12.28.24.57.36.86.43,1.11,1.49,1.84,2.67,1.84h5.25c1.58,0,2.87,1.28,2.87,2.87v7.31ZM336.12,546.29c-8.2,1.63-16.66,2.61-25.3,2.87-.52.03-1.06.05-1.59.05-1.08.03-2.16.04-3.23.04-.46,0-.92,0-1.38-.01-.59,0-1.16-.01-1.75-.03-4.63-.09-9.22-.39-13.74-.88-.54-.06-1.07-.13-1.59-.2-2.23-.26-4.47-.57-6.67-.95-.58-.07-1.16-.18-1.75-.29-1.94-.33-3.88-.72-5.8-1.15-.38-.08-.76-.17-1.14-.26-.16-.03-.32-.07-.49-.1-.36-.08-.73-.16-1.1-.25-.67-.16-1.33-.32-2-.5-.65-.16-1.28-.32-1.92-.49-1.46-.38-2.91-.79-4.35-1.22-.59-.17-1.16-.34-1.74-.53-1.64-.5-3.27-1.04-4.89-1.59-1.38-.48-2.73-.97-4.08-1.49-6.36-2.41-12.51-5.23-18.42-8.44-2.41-1.29-4.76-2.65-7.08-4.06-.54-.34-1.06-.66-1.59-1-3.33-2.08-6.58-4.32-9.72-6.65-.54-.4-1.07-.79-1.6-1.2-.44-.34-.88-.68-1.31-1.01-.04-.04-.08-.07-.12-.1-.55-.43-1.09-.85-1.63-1.3-.06-.05-.12-.09-.18-.15-1.02-.8-2.03-1.64-3.02-2.48-1.4-1.17-2.75-2.36-4.09-3.59-1.13-1.02-2.24-2.07-3.35-3.15-.18-.17-.35-.33-.52-.51-.42-.39-.83-.79-1.22-1.2-.19-.2-.39-.39-.58-.59-1.3-1.3-2.55-2.61-3.79-3.97-.55-.56-1.08-1.15-1.59-1.73-.06-.08-.13-.15-.2-.22-.07-.09-.15-.17-.23-.25-.29-.33-.58-.67-.87-1.01-.88-1-1.75-2.02-2.59-3.04-.22-.25-.41-.49-.61-.74-.31-.36-.62-.74-.91-1.12-.43-.53-.86-1.07-1.28-1.61-.46-.59-.92-1.19-1.37-1.78-.74-.98-1.49-1.98-2.2-2.99-.13-.17-.26-.35-.39-.53-.32-.46-.64-.91-.96-1.37-.07-.1-.14-.21-.21-.3-.05-.07-.09-.13-.14-.18-.62-.92-1.25-1.85-1.86-2.78-.1-.15-.18-.29-.28-.43-.32-.48-.64-.97-.95-1.46-.08-.13-.16-.26-.24-.38-.2-.32-.41-.66-.61-.98-.53-.85-1.06-1.7-1.57-2.57-.45-.75-.89-1.51-1.33-2.28-.81-1.4-1.59-2.81-2.35-4.25-.49-.92-.97-1.85-1.44-2.78-.15-.29-.29-.56-.42-.84-.21-.42-.42-.84-.62-1.25-.53-1.09-1.04-2.18-1.55-3.27-.18-.38-.35-.77-.53-1.16-.49-1.1-.97-2.2-1.44-3.31-.1-.26-.22-.52-.33-.77-.14-.36-.29-.7-.42-1.06-.06-.16-.13-.32-.2-.48-.15-.38-.29-.75-.44-1.13-.46-1.21-.92-2.4-1.35-3.62-.02-.03-.03-.08-.05-.11-.11-.25-.19-.49-.27-.75,0-.02-.01-.03-.02-.06-.11-.25-.2-.51-.28-.79-1.54-4.38-2.88-8.87-4-13.41-.06-.22-.12-.45-.17-.66h0c-.09-.39-.19-.75-.27-1.13-.24-1.05-.49-2.11-.71-3.18-.09-.44-.19-.87-.27-1.29-.26-1.23-.5-2.48-.72-3.73l-.03-.18c-.24-1.36-.46-2.75-.68-4.14-.25-1.72-.48-3.45-.68-5.19-.51-4.47-.84-9-.97-13.58v-.02c-.03-1.33-.04-2.67-.04-4.02,0-24.01,5.54-46.76,15.39-66.98.45-.95.93-1.88,1.4-2.81,1.16-2.29,2.38-4.52,3.66-6.73.68-1.17,1.37-2.33,2.07-3.47.5-.84,1.01-1.66,1.54-2.48,2.73-4.25,5.66-8.38,8.78-12.32,28.05-35.6,71.57-58.46,120.41-58.46,62.61,0,116.45,37.55,140.22,91.36.18.38.34.75.51,1.13,1.28,2.98,2.48,6,3.57,9.08.19.52.37,1.03.55,1.55.8,2.28,1.53,4.58,2.22,6.91.24.84.49,1.69.72,2.54.01,0,.01.03.01.05.89,3.2,1.66,6.47,2.34,9.76,0,.01.01.03.01.04.02.09.03.18.05.27.11.53.2,1.07.3,1.6.01.03.02.07.02.1.14.71.27,1.42.4,2.14.1.57.19,1.13.28,1.71.06.32.11.63.16.95.07.49.15.98.22,1.49.06.33.1.65.15.98.03.24.06.47.09.71.1.73.2,1.45.29,2.19.06.52.13,1.05.18,1.59.26,2.25.46,4.52.61,6.8,0,.14.02.28.03.42.05.69.07,1.39.1,2.07v.02c0,.18.02.36.02.54.01.05.01.11.01.16.13,2.35.19,4.71.19,7.09,0,1.57-.03,3.13-.07,4.68l-.12,1.66-.03.51-.15,2.34-.17,2.56-.04.49-.2,3.22s0,.02,0,.04c-.03.5-.09.97-.15,1.44,0,.03-.01.07-.01.11l-.2,1.67-.23,1.92c-.03.17-.06.32-.07.48-.07.5-.14,1.01-.22,1.51-.05.34-.1.69-.16,1.02-.01.15-.03.27-.06.41-.01.05-.02.12-.02.18-.29,1.75-.59,3.5-.93,5.24-.14.69-.27,1.39-.42,2.08-.03.13-.05.27-.09.41-.04.18-.07.36-.12.55-.17.86-.37,1.71-.56,2.54-.06.23-.12.45-.16.67,0,.02-.01.04-.01.06-.09.33-.17.68-.26,1.02-.17.69-.34,1.38-.51,2.06-.08.28-.15.59-.23.88-.11.38-.22.77-.32,1.16-.2.72-.4,1.43-.61,2.14-.07.25-.15.51-.22.77-.08.25-.16.52-.25.78t-.01.02c-.16.55-.33,1.1-.5,1.65-.11.37-.24.75-.36,1.13-.24.73-.49,1.48-.75,2.21-.08.26-.17.52-.25.76,0,.01-.01.02-.01.03h.46s.03,0,.03,0h-.16l-.34.03c-.2.55-.39,1.11-.6,1.66-.04.11-.08.21-.12.31-.17.49-.34.97-.53,1.46-.2.55-.42,1.1-.63,1.65-.33.86-.66,1.71-1.02,2.55-.06.15-.12.28-.18.44-.48,1.14-.97,2.29-1.47,3.42-.05.11-.09.21-.14.33-.15.32-.28.63-.42.95-.15.33-.29.64-.45.96-.19.45-.4.89-.62,1.34-.3.64-.61,1.28-.93,1.91-.21.44-.42.88-.65,1.34-.09.18-.19.38-.3.56-.18.38-.38.77-.58,1.15-.11.23-.23.45-.35.67-.22.43-.44.85-.67,1.27-.07.15-.15.3-.24.45-.02.03-.04.05-.05.08-.22.4-.43.8-.65,1.19-.13.24-.27.48-.41.71-.31.57-.64,1.14-.96,1.72-.23.39-.46.78-.69,1.17-.08.13-.14.23-.21.36-.04.08-.09.18-.15.26-.43.73-.89,1.46-1.34,2.19-.49.79-.99,1.59-1.5,2.38-.43.66-.87,1.35-1.32,2.01-.07.11-.14.2-.21.31-.23.35-.47.71-.72,1.05-.36.55-.73,1.09-1.11,1.63-.23.33-.47.66-.71,1-.73,1.02-1.47,2.04-2.24,3.04-.01.02-.04.05-.06.08-.31.42-.63.84-.96,1.26-.74.98-1.51,1.95-2.28,2.91-.46.57-.92,1.14-1.39,1.69-.99,1.18-1.98,2.35-3,3.51-.53.6-1.07,1.2-1.61,1.79,0,.01-.02.03-.04.04-.36.41-.73.81-1.11,1.21-.38.4-.75.8-1.13,1.2-.07.07-.13.14-.2.21-.36.38-.71.75-1.07,1.12-.39.4-.79.8-1.19,1.2-.27.26-.54.54-.81.79-.97.97-1.95,1.92-2.95,2.84-.54.52-1.1,1.03-1.65,1.53-.08.07-.16.15-.25.22-.49.46-.99.9-1.49,1.34-.05.04-.08.07-.13.11-.31.28-.63.56-.95.83-.53.46-1.05.92-1.59,1.37-.2.17-.4.34-.6.5-.03.03-.07.06-.11.09-3.94,3.3-8.05,6.38-12.3,9.27-1.34.9-2.7,1.79-4.07,2.64-1.08.68-2.17,1.35-3.27,2.01-.53.31-1.07.63-1.61.94-1.31.77-2.63,1.5-3.96,2.22-3.79,2.06-7.7,3.96-11.69,5.7-1.34.59-2.7,1.17-4.07,1.71-8.11,3.26-16.57,5.84-25.3,7.67-.54.12-1.08.23-1.63.34ZM360.81,568.48c.91-4.47,5.1-6.75,6.94-7.76,4.9-2.67,10.22-2.39,10.92-2.34,2.33.15,3.82.68,6.43.1,2.83-.63,4.41-2,4.79-2.35,1.08-.97,1.18-1.55,1.94-2.45,1.85-2.19,4.56-2.7,7.55-3.26,1.9-.36,5.49-1,9.9.2,2.21.6,5.73,1.56,8.37,4.8.72.89,2.23,2.8,2.55,5.71.11,1.07.22,3.76-1.43,6.33-1.64,2.54-4.07,3.52-5.51,4.08-.77.3-1.64.55-9.18,1.22-3.6.32-4.62.37-6.03,1.13-1.92,1.03-2.56,2.3-3.87,3.77-3.27,3.64-7.54,4.92-9.19,5.41-6.37,1.9-11.89-.04-13.46-.62-2.62-.95-7.15-2.61-9.49-7.14-.5-.95-1.88-3.62-1.23-6.83ZM421.12,579.8c-1.8,3.82-5.84,5.33-7.15,5.82-2.93,1.09-3.22.2-9.59,1.53-3.45.72-4.76,1.18-6.12,2.04-2.13,1.35-2.43,2.46-4.29,4.08-2.8,2.45-5.88,3.21-7.75,3.67-2.03.51-7.73,1.59-13.88-1.22-1.97-.9-5.91-2.77-8.47-7.24-2.03-3.56-2.18-7.01-2.14-8.68,2.08,1.83,6.91,5.57,14.08,6.63,2.08.31,7.76,1.16,12.82-.71.39.96,1.33,1.63,2.43,1.63,1.45,0,2.62-1.17,2.62-2.62,0-.63-.22-1.22-.6-1.67,2.16-1.98,2.37-3.62,5.18-4.99,2.54-1.25,3.58-.5,8.67-1.53,2.24-.46,4.89-1.01,7.76-2.45,3.08-1.55,5.28-3.55,6.74-5.16.37,1.53.66,3.46.6,5.67-.05,1.86-.09,3.45-.91,5.2ZM458.29,550.82c-.2.46-.77.62-1.17.32l-3.13-2.23,1.19-4.9-3.36,3.34-9.44-6.76,1.63-3.1-3.11,2.04-9.99-7.15.41-2.14-1.58,1.3-1.84-1.31,1.75-4.39-4.23,2.61-2.39-1.72c-.41-.29-.44-.88-.08-1.21l6.84-6.25,32.17,23.04-3.67,8.51ZM465.17,540.16c0,.34-.4.54-.68.34l-33.52-24c-.28-.2-.22-.64.11-.76l3.67-1.27,9.58,6.86,2.81-2.82c.15-.14.39-.16.56-.04l9.58,6.86c.19.14.24.41.1.6l-2.27,3.12,10.16,7.28-.1,3.83ZM478.57,488.58l-22.32,32.21-5.12-3.66,23.35-31.48c.82-1.11,2.37-1.35,3.49-.55.69.49,1.05,1.26,1.05,2.05,0,.49-.14.99-.45,1.43ZM485.24,421.7c-.46,1.46-.58,3.11-.87,4.62l-7.19,37.3c-.07.32.02.66.24.9l1.16,1.33c.2.24.49.37.8.37h2.76c.66,0,1.16.59,1.04,1.24l-.3,1.71c-.09.51-.53.88-1.04.88h-16.29c-.8,0-1.31-.86-.93-1.57l.94-1.71c.18-.34.54-.55.93-.55h3.9c.31,0,.6-.13.8-.37l1.62-1.85c.12-.14.21-.31.24-.5l8.22-42.6.43-2.23c.8-2.04,2.66-3.55,4.89-3.87.29-.04.58-.06.88-.06s.62.02.92.07c2.23.33,4.07,1.85,4.86,3.89l.42,2.27,3.05,16.5c-1.37.77-2.62,1.75-3.62,2.82,0,0-2.57-13.89-2.58-13.94-.34-1.83-.25-6.89-3.04-6.89-1.2,0-1.92,1.23-2.24,2.24ZM496.91,470.05c-3.98-.01-7.55-1.93-9.24-5.1-1.27-2.37-1.1-4.71-.96-5.77l4.7-13.76c.5-.95,1.23-1.89,2.12-2.76,1.05-1.02,2.31-1.93,3.66-2.64.21-.11.41-.21.62-.31,1.25-.59,2.56-.99,3.84-1.14,2.72-.32,5.3.52,6.88,3.23v13.57c-.12,0-.23-.01-.34-.01-3.17,0-5.93,1.76-7.36,4.35-.66,1.2-1.04,2.59-1.04,4.06,0,2.5,1.09,4.74,2.82,6.28h-5.7ZM508.19,470.05c-3.47,0-6.28-2.81-6.28-6.28s2.81-6.28,6.28-6.28,6.28,2.81,6.28,6.28-2.81,6.28-6.28,6.28ZM511.53,450.59v-4.26c2.16-1.15,3.64-3.44,3.64-6.06,0-3.79-3.08-6.87-6.87-6.87-2.04,0-3.87.9-5.13,2.31-1.55-.08-3.2.28-4.77.93,1.46-4.22,5.48-7.26,10.2-7.26,5.97,0,10.81,4.84,10.81,10.81,0,4.95-3.33,9.13-7.88,10.4Z"/>
  <circle class="cls-3" cx="499.23" cy="396" r="12.19"/>
  <circle class="cls-3" cx="107.69" cy="396" r="12.19"/>
  <path class="cls-3" d="M216.68,563.23l-.71-.7-8.21,8.37,1.03,1.04,15.83,15.91c2.3,2.31,6.05,2.3,8.34-.03,1.12-1.14,1.68-2.62,1.68-4.11s-.57-2.99-1.71-4.14l-16.25-16.34ZM228.11,585.92c-.13.13-.3.19-.47.19-.18,0-.35-.06-.48-.19l-14.73-14.81c-.26-.26-.26-.68,0-.94s.68-.26.94,0l14.74,14.81c.26.26.26.68,0,.94ZM230.83,583.21c-.13.13-.3.19-.47.19s-.34-.06-.47-.2l-14.74-14.8c-.26-.26-.26-.69,0-.95.26-.25.69-.25.95,0l14.73,14.81c.26.26.26.68,0,.94Z"/>
  <path class="cls-3" d="M207.57,558.74l.3.31,4.88,4.92,2.31-2.36.88-.89,1.51,1.66,6.04-6.67c.69.19,1.41.29,2.16.29,1.32,0,2.57-.31,3.68-.86,2.73-1.36,4.61-4.18,4.61-7.44,0-.77-.1-1.52-.3-2.23l-7.03,6.92-.06-.06-5.59-5.67-.09-.08,7.13-6.83c-.75-.22-1.53-.34-2.35-.34-3.22,0-6.01,1.84-7.39,4.52-.57,1.13-.9,2.41-.9,3.77,0,.69.08,1.35.24,1.99l.54-.49-.54.51v-.02l-7.59,6.84-2.44,2.21Z"/>
  <polygon class="cls-3" points="206.6 559.61 192.95 545.85 191.13 541.64 186.74 539.75 184.7 541.82 186.72 546.24 191.09 547.7 204.65 561.37 205.04 561.76 210.01 566.77 211.84 564.9 206.93 559.95 206.6 559.61"/>
  <path class="cls-3" d="M206.85,569.99l2.18-2.23-5-5.04-.42-.42-2.32,2.1-13.8,12.45-1.33,1.2c-.93,1.11-1.49,2.54-1.49,4.1,0,1.36.42,2.61,1.14,3.64l1.61,1.62c1.04.72,2.29,1.14,3.65,1.14,1.46,0,2.8-.49,3.88-1.31l1.56-1.73,11.25-12.42-1.9-2.1.99-1ZM191.09,586.9c-2.61,0-4.72-2.11-4.72-4.72s2.11-4.72,4.72-4.72,4.72,2.11,4.72,4.72-2.11,4.72-4.72,4.72Z"/>
  <path class="cls-3" d="M191.09,578.81c-1.87,0-3.38,1.51-3.38,3.38s1.51,3.38,3.38,3.38,3.38-1.51,3.38-3.38-1.51-3.38-3.38-3.38Z"/>
  <path class="cls-3" d="M477.97,485.1c-1.12-.8-2.67-.56-3.49.55l-23.35,31.48,5.12,3.66,22.32-32.21c.31-.44.45-.94.45-1.43,0-.79-.36-1.56-1.05-2.05Z"/>
  <path class="cls-3" d="M422.95,525.52c-.36.33-.33.92.08,1.21l2.39,1.72,4.23-2.61-1.75,4.39,1.84,1.31,1.58-1.3-.41,2.14,9.99,7.15,3.11-2.04-1.63,3.1,9.44,6.76,3.36-3.34-1.19,4.9,3.13,2.23c.4.3.97.14,1.17-.32l3.67-8.51-32.17-23.04-6.84,6.25Z"/>
  <path class="cls-3" d="M457.38,525.93c.14-.19.09-.46-.1-.6l-9.58-6.86c-.17-.12-.41-.1-.56.04l-2.81,2.82-9.58-6.86-3.67,1.27c-.33.12-.39.56-.11.76l33.52,24c.28.2.68,0,.68-.34l.1-3.83-10.16-7.28,2.27-3.12Z"/>
  <path class="cls-3" d="M152.14,497.21l25.82,16.21c1.06.67,2.46.35,3.13-.71l5.16-8.23c.67-1.06.35-2.45-.71-3.12l-25.83-16.21c-1.06-.67-2.46-.35-3.13.71l-5.16,8.23c-.66,1.06-.34,2.45.72,3.12Z"/>
  <polygon class="cls-3" points="150.75 489.88 151.98 491.2 154.23 487.62 152.51 487.09 150.75 489.88"/>
  <path class="cls-3" d="M189.92,512.81l-.37-1.64-1.53-1.21-2.74-2.18-1.72,2.75,2.46,1.95.11.49-2.96,4.72s-.04.07-.08.13c-.31.47-.77.83-1.3,1-.13.03-.25.06-.38.08-.55.08-1.08-.08-1.61-.19-.42-.09-.83-.18-1.25-.27-.56-.12-1.13-.24-1.7-.36-.68-.15-1.36-.3-2.04-.44-.75-.16-1.5-.32-2.25-.48-.78-.17-1.57-.34-2.35-.51-.77-.16-1.55-.33-2.32-.49-.73-.16-1.45-.31-2.17-.47-.64-.14-1.27-.27-1.91-.41-.5-.1-1-.21-1.51-.32-.33-.07-.66-.14-.99-.21-.12-.03-.24-.05-.36-.08l-.84-.18c-1.45-.31-2.94.32-3.72,1.57l-4.87,7.75,2.65,1.66,4.04-6.44c.62-.98,1.79-1.48,2.93-1.23l19.36,4.14,1.51.32c1.05.23,2.12-.23,2.69-1.13l5.22-8.32Z"/>
  <path class="cls-3" d="M136.52,543.83c-.34.58-.5,1.21-.5,1.83,0,1.22.61,2.41,1.71,3.1,1.67,1.04,3.87.58,4.97-1.05l11.09-16.44-7.29-4.57-9.98,17.13Z"/>
  <path class="cls-3" d="M157.61,528.79l-10.5-6.59c-.44-.28-1.02-.14-1.29.29l-.68,1.09c-.28.44-.15,1.01.29,1.29l10.5,6.59c.44.27,1.02.14,1.29-.3l.68-1.08c.28-.44.15-1.02-.29-1.29Z"/>
  <path class="cls-3" d="M330.25,583.05h-5.25c-1.18,0-2.24-.73-2.67-1.84-.12-.29-.24-.58-.36-.86-.48-1.09-.24-2.35.59-3.19l3.63-3.63c1.12-1.12,1.12-2.94,0-4.06l-5.17-5.17c-1.12-1.12-2.94-1.12-4.06,0l-3.71,3.72c-.83.82-2.07,1.05-3.14.59-.2-.08-.4-.16-.59-.24-1.1-.43-1.83-1.47-1.83-2.65v-5.1c0-1.58-1.28-2.87-2.87-2.87h-7.31c-1.59,0-2.87,1.29-2.87,2.87v5.18c0,1.18-.72,2.23-1.81,2.67-.2.08-.4.16-.6.25-1.08.47-2.34.23-3.17-.61l-3.63-3.62c-1.12-1.12-2.94-1.12-4.06,0l-5.17,5.17c-1.12,1.12-1.12,2.94,0,4.06l3.7,3.7c.84.83,1.07,2.08.61,3.17-.09.2-.17.4-.25.61-.43,1.11-1.49,1.85-2.68,1.85h-5.24c-1.59,0-2.87,1.28-2.87,2.87v7.31c0,1.59,1.28,2.87,2.87,2.87h5.39c1.16,0,2.21.71,2.65,1.79.05.1.09.21.14.32.45,1.07.21,2.32-.61,3.15l-3.89,3.89c-1.12,1.12-1.13,2.94,0,4.06l5.17,5.17c1.12,1.12,2.93,1.12,4.06,0l3.81-3.81c.83-.84,2.09-1.09,3.17-.61.2.08.4.17.6.25,1.09.44,1.81,1.49,1.81,2.67v5.55c0,1.58,1.28,2.87,2.87,2.87h7.31c1.59,0,2.87-1.29,2.87-2.87v-5.43c0-1.19.72-2.26,1.83-2.69.19-.08.39-.16.59-.25,1.07-.45,2.31-.22,3.14.6l3.9,3.9c1.12,1.12,2.94,1.12,4.06,0l5.17-5.17c1.12-1.12,1.12-2.93,0-4.06l-3.82-3.81c-.83-.83-1.07-2.09-.6-3.17.08-.18.16-.37.24-.55.43-1.08,1.48-1.8,2.64-1.8h5.41c1.58,0,2.87-1.28,2.87-2.87v-7.31c0-1.59-1.29-2.87-2.87-2.87ZM315.07,594.12c-.23.68-.5,1.35-.82,1.98-1.41,2.83-3.72,5.13-6.56,6.53-.58.29-1.19.54-1.82.75-1.44.48-2.98.74-4.58.74-1.7,0-3.34-.29-4.85-.83-.62-.22-1.22-.48-1.8-.78-2.72-1.41-4.94-3.66-6.31-6.41-.36-.72-.67-1.48-.9-2.26-.41-1.33-.62-2.74-.62-4.2,0-1.6.26-3.14.74-4.58.23-.7.51-1.37.84-2.01,1.38-2.69,3.57-4.89,6.25-6.28.69-.36,1.42-.66,2.17-.91,1.41-.46,2.92-.71,4.48-.71,1.46,0,2.87.22,4.2.62.76.23,1.5.53,2.2.87,2.8,1.38,5.08,3.64,6.5,6.41.29.56.54,1.14.75,1.73.54,1.52.83,3.15.83,4.86,0,1.56-.24,3.07-.7,4.48Z"/>
  <path class="cls-3" d="M139.95,467.26c.61-.87.96-1.93.96-3.08,0-1.23-.41-2.36-1.11-3.27l-1.46-1.32-3.95-3.59-6.56-5.89-16.28-14.62-4.6,4.34,11.94,13.62,8.7,9.94h.01l3.43,3.81h0s1.02,1.13,1.02,1.13c.93.78,2.14,1.25,3.46,1.25,1.14,0,2.2-.35,3.07-.96l1.37-1.36Z"/>
  <path class="cls-3" d="M111.01,431.09c0-.1.01-.2.01-.29.16-3.08,2.75-5.54,5.97-5.63.07-.01.13-.01.2-.01.79,0,1.54.14,2.23.4h0c.46.17.97.07,1.32-.26l1.52-1.44c-.21-.1-.45-.21-.71-.31-.58-.25-1.28-.5-2.07-.75-2.54-.77-6.06-1.36-9.97-.56-.5.1-1,.23-1.51.38-1.08.31-2.07.71-2.95,1.14-.82.39-1.55.82-2.2,1.25l-6.76,6.38c-.12.11-.18.26-.18.41s.06.3.18.41l.34.33c.29.28.44.65.44,1.02s-.15.75-.44,1.03c-.27.25-.62.38-.97.38s-.7-.13-.98-.39c-.25-.24-.65-.24-.9,0l-2.74,2.58c-.27.26-.27.7,0,.96l.92.87,5.26,5.01,1.49,1.42c.25.24.65.24.91,0l2.73-2.58c.28-.26.28-.7,0-.96h-.01s-.35-.34-.35-.34c-.29-.28-.43-.65-.43-1.02s.14-.75.44-1.03c.54-.51,1.4-.51,1.94.01l.45.43,7.19-6.79c-.24-.64-.38-1.33-.38-2.05Z"/>
  <path class="cls-3" d="M371.53,582.45c1.57.58,7.09,2.52,13.46.62,1.65-.49,5.92-1.77,9.19-5.41,1.31-1.47,1.95-2.74,3.87-3.77,1.41-.76,2.43-.81,6.03-1.13,7.54-.67,8.41-.92,9.18-1.22,1.44-.56,3.87-1.54,5.51-4.08,1.65-2.57,1.54-5.26,1.43-6.33-.32-2.91-1.83-4.82-2.55-5.71-2.64-3.24-6.16-4.2-8.37-4.8-4.41-1.2-8-.56-9.9-.2-2.99.56-5.7,1.07-7.55,3.26-.76.9-.86,1.48-1.94,2.45-.38.35-1.96,1.72-4.79,2.35-2.61.58-4.1.05-6.43-.1-.7-.05-6.02-.33-10.92,2.34-1.84,1.01-6.03,3.29-6.94,7.76-.65,3.21.73,5.88,1.23,6.83,2.34,4.53,6.87,6.19,9.49,7.14ZM413.13,557.83c1.03,0,1.87.49,1.87,1.1s-.84,1.09-1.87,1.09-1.86-.49-1.86-1.09.83-1.1,1.86-1.1ZM408.34,565.24c0,1.03-1.42,1.86-3.18,1.86s-3.18-.83-3.18-1.86,1.42-1.86,3.18-1.86,3.18.83,3.18,1.86ZM401.98,552.18c1.76,0,3.18.83,3.18,1.86s-1.42,1.87-3.18,1.87-3.18-.84-3.18-1.87,1.43-1.86,3.18-1.86ZM386.52,563.84c1.53,0,2.78.73,2.78,1.63s-1.25,1.63-2.78,1.63-2.79-.73-2.79-1.63,1.25-1.63,2.79-1.63ZM383.13,571.38c3.08,0,5.57,1.47,5.57,3.27s-2.49,3.26-5.57,3.26-5.57-1.46-5.57-3.26,2.5-3.27,5.57-3.27ZM368.58,568.22c1.8,0,3.26.86,3.26,1.91s-1.46,1.92-3.26,1.92-3.27-.86-3.27-1.92,1.46-1.91,3.27-1.91Z"/>
  <path class="cls-3" d="M414.69,574.09c-2.87,1.44-5.52,1.99-7.76,2.45-5.09,1.03-6.13.28-8.67,1.53-2.81,1.37-3.02,3.01-5.18,4.99.38.45.6,1.04.6,1.67,0,1.45-1.17,2.62-2.62,2.62-1.1,0-2.04-.67-2.43-1.63-5.06,1.87-10.74,1.02-12.82.71-7.17-1.06-12-4.8-14.08-6.63-.04,1.67.11,5.12,2.14,8.68,2.56,4.47,6.5,6.34,8.47,7.24,6.15,2.81,11.85,1.73,13.88,1.22,1.87-.46,4.95-1.22,7.75-3.67,1.86-1.62,2.16-2.73,4.29-4.08,1.36-.86,2.67-1.32,6.12-2.04,6.37-1.33,6.66-.44,9.59-1.53,1.31-.49,5.35-2,7.15-5.82.82-1.75.86-3.34.91-5.2.06-2.21-.23-4.14-.6-5.67-1.46,1.61-3.66,3.61-6.74,5.16ZM370.59,592.46c-.98,0-1.77-1.14-1.77-2.55s.79-2.56,1.77-2.56,1.76,1.15,1.76,2.56-.79,2.55-1.76,2.55ZM384.25,592.46c-.98,0-1.77-.79-1.77-1.76s.79-1.77,1.77-1.77,1.77.79,1.77,1.77-.8,1.76-1.77,1.76ZM404.23,583.24c-1.24,0-2.25-1.19-2.25-2.66s1.01-2.67,2.25-2.67,2.25,1.2,2.25,2.67-1.01,2.66-2.25,2.66ZM413.13,583.24c-.8,0-1.45-.77-1.45-1.72s.65-1.72,1.45-1.72,1.45.77,1.45,1.72-.65,1.72-1.45,1.72ZM418.64,577.31c-.89,0-1.61-.85-1.61-1.91s.72-1.91,1.61-1.91,1.61.86,1.61,1.91-.72,1.91-1.61,1.91Z"/>
  <path class="cls-3" d="M499.79,463.77c0-1.47.38-2.86,1.04-4.06,1.43-2.59,4.19-4.35,7.36-4.35.11,0,.22.01.34.01v-13.57c-1.58-2.71-4.16-3.55-6.88-3.23-1.28.15-2.59.55-3.84,1.14-.21.1-.41.2-.62.31-1.35.71-2.61,1.62-3.66,2.64-.89.87-1.62,1.81-2.12,2.76l-4.7,13.76c-.14,1.06-.31,3.4.96,5.77,1.69,3.17,5.26,5.09,9.24,5.1h5.7c-1.73-1.54-2.82-3.78-2.82-6.28Z"/>
  <path class="cls-3" d="M508.19,457.49c-3.47,0-6.28,2.81-6.28,6.28s2.81,6.28,6.28,6.28,6.28-2.81,6.28-6.28-2.81-6.28-6.28-6.28ZM508.19,466.97c-1.6,0-2.9-1.3-2.9-2.91s1.3-2.9,2.9-2.9,2.91,1.3,2.91,2.9-1.31,2.91-2.91,2.91Z"/>
  <path class="cls-3" d="M508.6,429.38c-4.72,0-8.74,3.04-10.2,7.26,1.57-.65,3.22-1.01,4.77-.93,1.26-1.41,3.09-2.31,5.13-2.31,3.79,0,6.87,3.08,6.87,6.87,0,2.62-1.48,4.91-3.64,6.06v4.26c4.55-1.27,7.88-5.45,7.88-10.4,0-5.97-4.84-10.81-10.81-10.81Z"/>
  <path class="cls-3" d="M490.52,426.35s2.58,13.94,2.58,13.94c1-1.07,2.25-2.05,3.62-2.82l-3.05-16.5-.42-2.27c-.79-2.04-2.63-3.56-4.86-3.89-.3-.05-.61-.07-.92-.07s-.59.02-.88.06c-2.23.32-4.09,1.83-4.89,3.87l-.43,2.23-8.22,42.6c-.03.19-.12.36-.24.5l-1.62,1.85c-.2.24-.49.37-.8.37h-3.9c-.39,0-.75.21-.93.55l-.94,1.71c-.38.71.13,1.57.93,1.57h16.29c.51,0,.95-.37,1.04-.88l.3-1.71c.12-.65-.38-1.24-1.04-1.24h-2.76c-.31,0-.6-.13-.8-.37l-1.16-1.33c-.22-.24-.31-.58-.24-.9l7.19-37.3c.29-1.51.41-3.16.87-4.62.32-1.01,1.04-2.24,2.24-2.24,2.79,0,2.7,5.06,3.04,6.89Z"/>
  <polygon class="cls-3" points="450.52 350.62 450.44 350.63 450.6 350.63 450.52 350.62"/>
  <polygon class="cls-3" points="451.18 350.63 450.6 350.63 451.21 350.76 451.18 350.63"/>
  <path class="cls-3" d="M341.66,452.16v-.02h-.07v.03h0s0-.02,0-.02h.07v-36.99h-53v57.72h10.34v-8.8h10.16v2.62h9.79v-2.62h7.51v2.62h10.82v5.71h4.38v-20.25h0ZM298.37,459.74h-3.78v-5.07h3.78v5.07ZM298.37,452.64h-3.78v-5.08h3.78v5.08ZM298.37,444.29h-3.78v-5.08h3.78v5.08ZM298.37,437.18h-3.78v-5.07h3.78v5.07ZM298.37,429.23h-3.78v-5.07h3.78v5.07ZM298.37,422.14h-3.78v-5.08h3.78v5.08ZM303.17,459.74h-3.79v-5.07h3.79v5.07ZM303.17,452.64h-3.79v-5.08h3.79v5.08ZM303.17,444.29h-3.79v-5.08h3.79v5.08ZM303.17,437.18h-3.79v-5.07h3.79v5.07ZM303.17,429.23h-3.79v-5.07h3.79v5.07ZM303.17,422.14h-3.79v-5.08h3.79v5.08ZM309.54,459.74h-3.79v-5.07h3.79v5.07ZM309.54,452.64h-3.79v-5.08h3.79v5.08ZM309.54,444.29h-3.79v-5.08h3.79v5.08ZM309.54,437.18h-3.79v-5.07h3.79v5.07ZM309.54,429.23h-3.79v-5.07h3.79v5.07ZM309.54,422.14h-3.79v-5.08h3.79v5.08ZM314.48,459.74h-3.81v-5.07h3.81v5.07ZM314.48,452.64h-3.81v-5.08h3.81v5.08ZM314.48,444.29h-3.81v-5.08h3.81v5.08ZM314.48,437.18h-3.81v-5.07h3.81v5.07ZM314.48,429.23h-3.81v-5.07h3.81v5.07ZM314.48,422.14h-3.81v-5.08h3.81v5.08ZM319.36,459.74h-3.78v-5.07h3.78v5.07ZM319.36,452.64h-3.78v-5.08h3.78v5.08ZM319.36,444.29h-3.78v-5.08h3.78v5.08ZM319.36,437.18h-3.78v-5.07h3.78v5.07ZM319.36,429.23h-3.78v-5.07h3.78v5.07ZM319.36,422.14h-3.78v-5.08h3.78v5.08ZM324.56,459.74h-3.78v-5.07h3.78v5.07ZM324.56,452.64h-3.78v-5.08h3.78v5.08ZM324.56,444.29h-3.78v-5.08h3.78v5.08ZM324.56,437.18h-3.78v-5.07h3.78v5.07ZM324.56,429.23h-3.78v-5.07h3.78v5.07ZM324.56,422.14h-3.78v-5.08h3.78v5.08ZM332.1,459.74h-3.78v-5.07h3.78v5.07ZM332.1,452.64h-3.78v-5.08h3.78v5.08ZM332.1,444.29h-3.78v-5.08h3.78v5.08ZM332.1,437.18h-3.78v-5.07h3.78v5.07ZM332.1,429.23h-3.78v-5.07h3.78v5.07ZM332.1,422.14h-3.78v-5.08h3.78v5.08Z"/>
  <polygon class="cls-3" points="407.27 450.03 407.27 450.1 408.05 450.03 407.27 450.03"/>
  <rect class="cls-3" x="341.66" y="474.01" width=".3" height=".65"/>
  <polygon class="cls-3" points="451.23 446.39 451.1 446.4 451.26 446.4 451.23 446.39"/>
  <path class="cls-3" d="M451.34,372.04l6.24,1.39c-.07-.51-.15-1-.22-1.49-.05-.32-.1-.63-.16-.95l-5.86-1.3v2.35Z"/>
  <path class="cls-3" d="M451.34,364.36l4.86,1.08c-.02-.09-.03-.18-.05-.27,0-.01-.01-.03-.01-.04-.68-3.29-1.45-6.56-2.34-9.76,0-.02,0-.04-.01-.05-.23-.85-.48-1.7-.72-2.54l-1.73-.36v11.94Z"/>
  <path class="cls-3" d="M451.34,368.04l5.58,1.24c-.13-.72-.26-1.43-.4-2.14l-5.18-1.15v2.05Z"/>
  <path class="cls-3" d="M451.34,440.75l1.31-.15c.09-.26.17-.53.25-.78.07-.26.15-.52.22-.77.21-.71.41-1.42.61-2.14.1-.39.21-.78.32-1.16.08-.29.15-.6.23-.88.17-.68.34-1.37.51-2.06v-5.07l1.11.23c.04-.14.06-.28.09-.41.15-.69.28-1.39.42-2.08l-1.62-.35v-7.09l2.79.59c.08-.5.15-1.01.22-1.51.01-.16.04-.31.07-.48l.23-1.92-3.31-.71v-7.08l3.92.82.17-2.56-4.09-.86v-7.1l4.27.91v4.2l.12-1.66c.04-1.55.07-3.11.07-4.68,0-2.38-.06-4.74-.19-7.09v6.92l-4.27-.9v-7.09l4.26.91c0-.18-.01-.36-.02-.54v-.02c-.03-.68-.05-1.38-.1-2.07l-4.14-.88v-7.09l3.5.75c-.05-.54-.12-1.07-.18-1.59-.09-.74-.19-1.46-.29-2.19l-6.48-1.44v67.07Z"/>
  <path class="cls-3" d="M390.64,374.95l1.21.3.83.21h0v.21s0,4.45,0,4.45l-.73.18-2.51.65v2.11l1.47.4.69.19v45.94h13.23v5.12l31.9-2.95.67-.06.46.51,7.84,9.12,4.01-.42v-67.38l-55.68,10.19-.3-1.57,55.98-10.26v-2.24l-55.68,10.19-.3-1.57,55.98-10.26v-2.05l-55.68,10.35-.3-1.58.8-.15,55.18-10.25v-11.9l-38.65,8.25-.7.16-19.72,4.21v9.9ZM439.89,379.23l3.24-.58v6.99l-3.24.58v-6.99ZM439.89,389.03l3.24-.59v6.2l-3.24.6v-6.21ZM439.89,399.36l3.24-.59v6.21l-3.24.58v-6.2ZM439.89,409.52l3.24-.59v6.21l-3.24.58v-6.2ZM439.89,420.39l3.24-.59v6.21l-3.24.58v-6.2ZM405.27,411.78l-1.92.34,1.92-.34h0ZM405.27,405.41l-1.61.29,1.61-.29h0ZM433.49,380.38l3.24-.59v7l-3.24.59v-7ZM433.49,390.18l3.24-.58v6.2l-3.24.57v-6.19ZM433.49,400.5l3.24-.57v6.19l-3.24.59v-6.21ZM433.49,410.67l3.24-.58v6.2l-3.24.58v-6.2ZM433.49,421.53l3.24-.57v6.19l-3.24.6v-6.22ZM427.35,381.47l3.26-.58v7.01l-3.26.58v-7.01ZM427.35,391.28l3.26-.59v6.21l-3.26.58v-6.2ZM427.35,401.6l3.26-.57v6.19l-3.26.59v-6.21ZM427.35,411.77l3.26-.58v6.2l-3.26.58v-6.2ZM427.35,422.63l3.26-.57v6.19l-3.26.59v-6.21ZM420.97,382.63l3.25-.6v7.02l-3.25.57v-6.99ZM420.97,392.42l3.25-.58v6.2l-3.25.59v-6.21ZM420.97,402.75l3.25-.57v6.19l-3.25.59v-6.21ZM420.97,412.92l3.25-.59v6.2l-3.25.59v-6.2ZM420.97,423.78l3.25-.58v6.19l-3.25.6v-6.21ZM414.56,383.77l3.24-.58v7l-3.24.59v-7.01ZM414.56,393.58l3.24-.58v6.2l-3.24.58v-6.2ZM414.56,403.91l3.24-.59v6.21l-3.24.57v-6.19ZM414.56,414.07l3.24-.58v6.2l-3.24.58v-6.2ZM414.56,424.94l3.24-.59v6.2l-3.24.58v-6.19ZM408.16,384.92l3.24-.57v6.99l-3.24.58v-7ZM408.16,394.73l3.24-.59v6.21l-3.24.58v-6.2ZM408.16,405.05l3.24-.58v6.2l-3.24.58v-6.2ZM408.16,415.22l3.24-.59v6.21l-3.24.57v-6.19ZM408.16,426.09l3.24-.6v6.22l-3.24.57v-6.19ZM402.02,386.02l3.25-.58v7.01l-3.25.58v-7.01ZM402.02,395.82l3.25-.57v6.19l-3.25.58v-6.2ZM402.02,405.99h0s0,.17,0,.17l3.25-.58v6.03l-3.25.58v.17h0s0-6.36,0-6.36ZM402.02,416.31l3.25-.57v6.19l-3.25.59v-6.21ZM395.79,387.14l3.26-.58v7l-3.26.59v-7.01ZM395.79,396.95l3.26-.59v6.21l-3.26.57v-6.19ZM395.79,407.11h.01l2-.36-2,.36v.16l3.25-.59v-.16h0v6.35h0v-.16l-3.25.58v.17l1.38-.25-1.38.26h-.01v-6.37ZM395.79,417.44l3.26-.58v6.19l-3.26.58v-6.19ZM392.71,375.57v.04s.02-.14.02-.14h0l-.03.1Z"/>
  <polygon class="cls-3" points="367.86 331.85 409.45 331.85 409.45 319.16 407.21 318.24 366.65 318.24 364.61 320.05 364.61 438.42 367.86 438.12 367.86 331.85"/>
  <path class="cls-3" d="M369.48,437.97l15.09-1.4v-6.98h5.4v-44.72l-1.46-.4-.69-.19v-4.56l.73-.19,2.51-.65v-2.16l-1.31-.34-.73-.17v-12.46l.71-.15,19.72-4.22v-25.92h-39.97v104.51ZM405.02,334.97h2.16v4.82h-2.16v-4.82ZM405.02,342.38h2.16v4.81h-2.16v-4.81ZM405.02,349.69h2.16v4.82h-2.16v-4.82ZM401.71,334.97h2.17v4.82h-2.17v-4.82ZM401.71,342.38h2.17v4.81h-2.17v-4.81ZM401.71,349.69h2.17v4.82h-2.17v-4.82ZM398.38,334.97h2.16v4.82h-2.16v-4.82ZM398.38,342.38h2.16v4.81h-2.16v-4.81ZM398.38,349.69h2.16v4.82h-2.16v-4.82ZM394.68,334.97h2.16v4.82h-2.16v-4.82ZM394.68,342.38h2.16v4.81h-2.16v-4.81ZM394.68,349.69h2.16v4.82h-2.16v-4.82ZM391.37,334.97h2.16v4.82h-2.16v-4.82ZM391.37,342.38h2.16v4.81h-2.16v-4.81ZM391.37,349.69h2.16v4.82h-2.16v-4.82ZM388.04,334.97h2.16v4.82h-2.16v-4.82ZM388.04,342.38h2.16v4.81h-2.16v-4.81ZM388.04,349.69h2.16v4.82h-2.16v-4.82ZM388.04,357.04h2.16v4.82h-2.16v-4.82ZM384.73,334.97h2.17v4.82h-2.17v-4.82ZM384.73,342.38h2.17v4.81h-2.17v-4.81ZM384.73,349.69h2.17v4.82h-2.17v-4.82ZM384.73,357.04h2.17v4.82h-2.17v-4.82ZM384.73,364.41h2.17v4.81h-2.17v-4.81ZM384.73,371.76h2.17v4.82h-2.17v-4.82ZM384.73,379.12h2.17v4.81h-2.17v-4.81ZM384.73,386.48h2.17v4.81h-2.17v-4.81ZM384.73,392.99h2.17v4.81h-2.17v-4.81ZM384.73,400.35h2.17v4.81h-2.17v-4.81ZM384.73,407.71h2.17v4.81h-2.17v-4.81ZM384.73,414.52h2.17v4.82h-2.17v-4.82ZM384.73,421.88h2.17v4.81h-2.17v-4.81ZM380.96,334.97h2.16v4.82h-2.16v-4.82ZM380.96,342.38h2.16v4.81h-2.16v-4.81ZM380.96,349.69h2.16v4.82h-2.16v-4.82ZM380.96,357.04h2.16v4.82h-2.16v-4.82ZM380.96,364.41h2.16v4.81h-2.16v-4.81ZM380.96,371.76h2.16v4.82h-2.16v-4.82ZM380.96,379.12h2.16v4.81h-2.16v-4.81ZM380.96,386.48h2.16v4.81h-2.16v-4.81ZM380.96,392.99h2.16v4.81h-2.16v-4.81ZM380.96,400.35h2.16v4.81h-2.16v-4.81ZM380.96,407.71h2.16v4.81h-2.16v-4.81ZM380.96,414.52h2.16v4.82h-2.16v-4.82ZM380.96,421.88h2.16v4.81h-2.16v-4.81ZM377.65,334.97h2.17v4.82h-2.17v-4.82ZM377.65,342.38h2.17v4.81h-2.17v-4.81ZM377.65,349.69h2.17v4.82h-2.17v-4.82ZM377.65,357.04h2.17v4.82h-2.17v-4.82ZM377.65,364.41h2.17v4.81h-2.17v-4.81ZM377.65,371.76h2.17v4.82h-2.17v-4.82ZM377.65,379.12h2.17v4.81h-2.17v-4.81ZM377.65,386.48h2.17v4.81h-2.17v-4.81ZM377.65,392.99h2.17v4.81h-2.17v-4.81ZM377.65,400.35h2.17v4.81h-2.17v-4.81ZM377.65,407.71h2.17v4.81h-2.17v-4.81ZM377.65,414.52h2.17v4.82h-2.17v-4.82ZM377.65,421.88h2.17v4.81h-2.17v-4.81ZM374.32,334.97h2.16v4.82h-2.16v-4.82ZM374.32,342.38h2.16v4.81h-2.16v-4.81ZM374.32,349.69h2.16v4.82h-2.16v-4.82ZM374.32,357.04h2.16v4.82h-2.16v-4.82ZM374.32,364.41h2.16v4.81h-2.16v-4.81ZM374.32,371.76h2.16v4.82h-2.16v-4.82ZM374.32,379.12h2.16v4.81h-2.16v-4.81ZM374.32,386.48h2.16v4.81h-2.16v-4.81ZM374.32,392.99h2.16v4.81h-2.16v-4.81ZM374.32,400.35h2.16v4.81h-2.16v-4.81ZM374.32,407.71h2.16v4.81h-2.16v-4.81ZM374.32,414.52h2.16v4.82h-2.16v-4.82ZM374.32,421.88h2.16v4.81h-2.16v-4.81ZM371.02,334.97h2.16v4.82h-2.16v-4.82ZM371.02,342.38h2.16v4.81h-2.16v-4.81ZM371.02,349.69h2.16v4.82h-2.16v-4.82ZM371.02,357.04h2.16v4.82h-2.16v-4.82ZM371.02,364.41h2.16v4.81h-2.16v-4.81ZM371.02,371.76h2.16v4.82h-2.16v-4.82ZM371.02,379.12h2.16v4.81h-2.16v-4.81ZM371.02,386.48h2.16v4.81h-2.16v-4.81ZM371.02,392.99h2.16v4.81h-2.16v-4.81ZM371.02,400.35h2.16v4.81h-2.16v-4.81ZM371.02,407.71h2.16v4.81h-2.16v-4.81ZM371.02,414.52h2.16v4.82h-2.16v-4.82ZM371.02,421.88h2.16v4.81h-2.16v-4.81Z"/>
  <polygon class="cls-3" points="386.19 436.43 403.2 434.85 403.2 431.2 386.19 431.2 386.19 436.43"/>
  <polygon class="cls-3" points="436.72 433.38 404.82 436.33 404.1 436.39 386.19 438.05 384.57 438.2 364.61 440.04 364.61 447.02 362.15 447.02 362.15 448.5 361.7 448.99 360.64 450.17 443.74 441.53 436.72 433.38"/>
  <path class="cls-3" d="M449.94,442.5l-4.24.44-.68.08-86,8.93h0s-.04.01-.04.01h0s-15.7,1.63-15.7,1.63h0s-.59.06-.59.06l.58-.06v1.92l13.82-1.17.78-.06,49.39-4.18v-.07h.78l42.26-3.57h.2s.25-.03.25-.03l.34-.03h-.33s.01-.02.01-.03c.08-.24.17-.5.25-.76.26-.73.51-1.48.75-2.21.12-.38.25-.76.36-1.13l-.8.08-1.4.15Z"/>
  <polygon class="cls-3" points="343.28 474.66 352.17 474.66 352.17 483.7 357.1 483.7 357.1 455.95 343.28 457.12 343.28 474.66"/>
  <path class="cls-3" d="M408.89,509.55c.09-.07.17-.15.25-.22.55-.5,1.11-1.01,1.65-1.53h-.05s0-5.63,0-5.63l3-.25v3.04c.27-.25.54-.53.81-.79.4-.4.8-.8,1.19-1.2v-1.22l1.27-.11c.38-.4.75-.8,1.13-1.2.38-.4.75-.8,1.11-1.21.02-.01.03-.03.04-.04.54-.59,1.08-1.19,1.61-1.79v-3.95l3-.25v.69c.47-.55.93-1.12,1.39-1.69.77-.96,1.54-1.93,2.28-2.91.33-.42.65-.84.96-1.26v-4.46l3.01-.25v.59c.38-.54.75-1.08,1.11-1.63.25-.34.49-.7.72-1.05.07-.11.14-.2.21-.31l-.18.02v-5.64l3-.25v1.48c.45-.73.91-1.46,1.34-2.19.06-.08.11-.18.15-.26.07-.13.13-.23.21-.36.23-.39.46-.78.69-1.17.32-.58.65-1.15.96-1.72.14-.23.28-.47.41-.71l-1.05.09v-5.63l3.01-.26v2.14c.2-.38.4-.77.58-1.15.11-.18.21-.38.3-.56.23-.46.44-.9.65-1.34.32-.63.63-1.27.93-1.91.22-.45.43-.89.62-1.34.16-.32.3-.63.45-.96.14-.32.27-.63.42-.95.05-.12.09-.22.14-.33.5-1.13.99-2.28,1.47-3.42.06-.16.12-.29.18-.44.36-.84.69-1.69,1.02-2.55.21-.55.43-1.1.63-1.65.19-.49.36-.97.53-1.46.04-.1.08-.2.12-.31l-41.27,3.49v57.97ZM439.11,456.72l3.01-.26v5.64l-3.01.25v-5.63ZM433.4,457.2l3-.25v5.62l-3,.27v-5.64ZM433.4,465.07l3-.27v5.64l-3,.25v-5.62ZM428.53,457.6l3-.25h0v5.64l-3.01.25v-5.64ZM428.53,465.47l3.01-.26v5.63h0l-3,.27v-5.64ZM428.53,475.72l3.01-.26v5.64l-3.01.25v-5.63ZM420.9,458.25l3-.25v5.63l-3,.26v-5.64ZM420.9,466.11l3-.26v5.64l-3,.26v-5.64ZM420.9,476.36l3-.25v5.63l-3,.25v-5.63ZM420.9,484.22l3-.25v5.63l-3,.25v-5.63ZM415.74,458.68l2.99-.24v5.62l-2.99.26v-5.64ZM415.74,466.55l2.99-.26v5.63l-2.99.25v-5.62ZM415.74,476.8l2.99-.26v5.64l-2.99.25v-5.63ZM415.74,484.65l2.99-.25v5.63l-2.99.26v-5.64ZM415.74,493.89l2.99-.25v5.63l-2.99.25v-5.63ZM410.74,459.11l3-.26v5.64l-3,.26v-5.64ZM410.74,466.97l3-.27v5.64l-3,.26v-5.63ZM410.74,477.22l3-.26v5.64l-3,.25v-5.63ZM410.74,485.08l3-.26v5.63l-3,.26v-5.63ZM410.74,494.31l3-.26v5.64l-3,.26v-5.64Z"/>
  <path class="cls-3" d="M358.72,455.81v27.89h1.02v6.77h14.43v1.67h11.96l.54.4v.66l-.39.55-1.9,2.56v31.4c1.1-.66,2.19-1.33,3.27-2.01,1.37-.85,2.73-1.74,4.07-2.64,4.25-2.89,8.36-5.97,12.3-9.27.04-.03.08-.06.11-.09.2-.16.4-.33.6-.5.54-.45,1.06-.91,1.59-1.37.32-.27.64-.55.95-.83v-59.29l-48.55,4.1ZM362.99,482.6l-3,.25v-5.63l3-.26v5.64ZM362.99,472.34l-3,.26v-5.63l3-.27v5.64ZM362.99,464.49l-3,.26v-5.64l3-.26v5.64ZM367.98,482.18l-3,.25v-5.63l3-.26v5.64ZM367.98,471.92l-3,.25v-5.62l3-.26v5.63ZM367.98,464.06l-3,.26v-5.64l3-.24v5.62ZM373.72,482.6l-3.01.25v-5.63l3.01-.26v5.64ZM373.72,472.34h0l-3,.26v-5.63l3.01-.27v5.64ZM373.72,464.49h0l-3,.26v-5.64l3.01-.26v5.64ZM378.71,482.18l-3.01.25v-5.63l3.01-.26v5.64ZM378.71,471.92l-3.01.25v-5.62l3.01-.26v5.63ZM378.71,464.06l-3.01.26v-5.64l3.01-.24v5.62ZM383.87,481.74l-3,.25v-5.63l3-.25v5.63ZM383.87,471.49l-3,.26v-5.64l3-.26v5.64ZM383.87,463.63l-3,.26v-5.64l3-.25v5.63ZM393.15,507.55l-2.99.26v-5.64l2.99-.25v5.63ZM393.15,499.69l-2.99.26v-5.64l2.99-.26v5.64ZM393.15,490.45l-2.99.26v-5.63l2.99-.26v5.63ZM393.15,482.6l-2.99.25v-5.63l2.99-.26v5.64ZM393.15,472.34l-2.99.26v-5.63l2.99-.27v5.64ZM393.15,464.49l-2.99.26v-5.64l2.99-.26v5.64ZM398.14,507.14l-2.99.24v-5.63l2.99-.25v5.64ZM398.14,499.27l-2.99.25v-5.63l2.99-.25v5.63ZM398.14,490.03l-2.99.26v-5.64l2.99-.25v5.63ZM398.14,482.18l-2.99.25v-5.63l2.99-.26v5.64ZM398.14,471.92l-2.99.25v-5.62l2.99-.26v5.63ZM398.14,464.06l-2.99.26v-5.64l2.99-.24v5.62ZM403.31,506.7l-3,.25v-5.64l3-.25v5.64ZM403.31,498.84l-3,.25v-5.64l3-.25v5.64ZM403.31,489.6l-3,.25v-5.63l3-.25v5.63ZM403.31,481.74l-3,.25v-5.63l3-.25v5.63ZM403.31,471.49l-3,.26v-5.64l3-.26v5.64ZM403.31,463.63l-3,.26v-5.64l3-.25v5.63Z"/>
  <path class="cls-3" d="M367.12,536.57c3.99-1.74,7.9-3.64,11.69-5.7,1.33-.72,2.65-1.45,3.96-2.22v-31.81h-45.02v49.11c8.73-1.83,17.19-4.41,25.3-7.67,1.37-.54,2.73-1.12,4.07-1.71ZM374.14,498.53h4.33v9.52h-4.33v-9.52ZM374.14,512.56h4.33v9.52h-4.33v-9.52ZM367.35,498.53h4.33v9.52h-4.33v-9.52ZM367.35,512.56h4.33v9.52h-4.33v-9.52ZM359.65,498.53h4.34v9.52h-4.34v-9.52ZM343.79,534.33h-4.33v-9.52h4.33v9.52ZM343.79,522.08h-4.33v-9.52h4.33v9.52ZM343.79,508.05h-4.33v-9.52h4.33v9.52ZM350.58,534.33h-4.33v-9.52h4.33v9.52ZM350.58,522.08h-4.33v-9.52h4.33v9.52ZM350.58,508.05h-4.33v-9.52h4.33v9.52ZM357.2,534.33h-4.34v-9.52h4.34v9.52ZM357.2,522.08h-4.34v-9.52h4.34v9.52ZM357.2,508.05h-4.34v-9.52h4.34v9.52ZM359.65,512.56h4.34v9.52h-4.34v-9.52Z"/>
  <path class="cls-3" d="M383.17,495.23l1.09-1.48h-11.71v-1.61h1.62v-.05h-1.62s-14.43,0-14.43,0v-6.79h-84.8v60.44c1.92.43,3.86.82,5.8,1.15.59.11,1.17.22,1.75.29,2.2.38,4.44.69,6.67.95.52.07,1.05.14,1.59.2,4.52.49,9.11.79,13.74.88.59.02,1.16.03,1.75.03.46.01.92.01,1.38.01,1.07,0,2.15-.01,3.23-.04.53,0,1.07-.02,1.59-.05,8.64-.26,17.1-1.24,25.3-2.87v-51.06h47.05ZM332.37,530.94h-52.52v-38.9h52.52v38.9Z"/>
  <path class="cls-3" d="M330.54,493.85h-48.87v35.28h48.87v-35.28ZM288.12,525.08h-4.32v-5.71h4.32v5.71ZM288.12,517.24h-4.32v-5.71h4.32v5.71ZM288.12,509.39h-4.32v-5.7h4.32v5.7ZM288.12,501.54h-4.32v-5.7h4.32v5.7ZM294.9,525.08h-4.32v-5.71h4.32v5.71ZM294.9,517.24h-4.32v-5.71h4.32v5.71ZM294.9,509.39h-4.32v-5.7h4.32v5.7ZM294.9,501.54h-4.32v-5.7h4.32v5.7ZM301.91,525.08h-4.32v-5.71h4.32v5.71ZM301.91,517.24h-4.32v-5.71h4.32v5.71ZM301.91,509.39h-4.32v-5.7h4.32v5.7ZM301.91,501.54h-4.32v-5.7h4.32v5.7ZM308.69,525.08h-4.32v-5.71h4.32v5.71ZM308.69,517.24h-4.32v-5.71h4.32v5.71ZM308.69,509.39h-4.32v-5.7h4.32v5.7ZM308.69,501.54h-4.32v-5.7h4.32v5.7ZM315.87,525.08h-4.32v-5.71h4.32v5.71ZM315.87,517.24h-4.32v-5.71h4.32v5.71ZM315.87,509.39h-4.32v-5.7h4.32v5.7ZM315.87,501.54h-4.32v-5.7h4.32v5.7ZM322.67,525.08h-4.33v-5.71h4.33v5.71ZM322.67,517.24h-4.33v-5.71h4.33v5.71ZM322.67,509.39h-4.33v-5.7h4.33v5.7ZM322.67,501.54h-4.33v-5.7h4.33v5.7ZM329.67,525.08h-4.33v-5.71h4.33v5.71ZM329.67,517.24h-4.33v-5.71h4.33v5.71ZM329.67,509.39h-4.33v-5.7h4.33v5.7ZM329.67,501.54h-4.33v-5.7h4.33v5.7Z"/>
  <path class="cls-3" d="M350.55,483.7v-7.44h-10.21v-2.25h-4.7v-5.71h-10.82v-2.61h-4.25v2.61h-13.05v-2.61h-6.92v8.79h-32.01v70.15c.67.18,1.33.34,2,.5.37.09.74.17,1.1.25v-61.68h78.86Z"/>
  <path class="cls-3" d="M295.11,388.31c-2.28,0-4.14,1.8-4.2,4.06.93-1.3,2.47-2.14,4.2-2.14s3.26.84,4.2,2.13c-.06-2.24-1.92-4.04-4.2-4.04Z"/>
  <polygon class="cls-3" points="320.87 396.44 313.23 393.91 313.23 401.79 320.87 401.79 320.87 396.44"/>
  <polygon class="cls-3" points="301.82 401.79 311.6 401.79 311.6 394.08 308.24 395.7 307.86 395.88 301.82 398.79 301.82 401.79"/>
  <path class="cls-3" d="M295.11,391.19c-2.31,0-4.21,1.86-4.21,4.16v6.88l8.4-.24v-6.64c0-2.3-1.87-4.16-4.2-4.16Z"/>
  <path class="cls-3" d="M285.73,408.69l-.09-.68-.28-1.97-.09-.68.28-.6.81-1.77.28-.63h.71s2.59-.09,2.59-.09v-9.81c0-2.81,2.32-5.11,5.17-5.11s5.17,2.3,5.17,5.11v5.03h.54l5.8-2.79v-3.39h-4.39v-8.09h-14.9v8.09h-3.56v6.18h-4.61v7.31h-1.75v1.49h-2.34v2.6h-4.53v-5.69h2.31v-.9h-1.91l-.4-.55-.96-1.39-.98,1.4-.39.54h-1.91v.9h2.3v7.02h-1.87l1.57,3.32.3.62v58.72h18.43v-62.01l-.94-1.58-.36-.6ZM274.22,470.06h-2.34v-5.35h2.34v5.35ZM274.22,462.51h-2.34v-5.36h2.34v5.36ZM274.22,455.23h-2.34v-5.36h2.34v5.36ZM274.22,447.67h-2.34v-5.35h2.34v5.35ZM274.22,438.6h-2.34v-5.37h2.34v5.37ZM274.22,431.03h-2.34v-5.35h2.34v5.35ZM274.22,424.58h-2.34v-5.36h2.34v5.36ZM274.22,417.02h-2.34v-5.35h2.34v5.35ZM277.84,470.06h-2.34v-5.35h2.34v5.35ZM277.84,462.51h-2.34v-5.36h2.34v5.36ZM277.84,455.23h-2.34v-5.36h2.34v5.36ZM277.84,447.67h-2.34v-5.35h2.34v5.35ZM277.84,438.6h-2.34v-5.37h2.34v5.37ZM277.84,431.03h-2.34v-5.35h2.34v5.35ZM277.84,424.58h-2.34v-5.36h2.34v5.36ZM277.84,417.02h-2.34v-5.35h2.34v5.35ZM281.8,470.06h-2.35v-5.35h2.35v5.35ZM281.8,462.51h-2.35v-5.36h2.35v5.36ZM281.8,455.23h-2.35v-5.36h2.35v5.36ZM281.8,447.67h-2.35v-5.35h2.35v5.35ZM281.8,438.6h-2.35v-5.37h2.35v5.37ZM281.8,431.03h-2.35v-5.35h2.35v5.35ZM281.8,424.58h-2.35v-5.36h2.35v5.36ZM281.8,417.02h-2.35v-5.35h2.35v5.35ZM285.1,470.06h-2.34v-5.35h2.34v5.35ZM285.1,462.51h-2.34v-5.36h2.34v5.36ZM285.1,455.23h-2.34v-5.36h2.34v5.36ZM285.1,447.67h-2.34v-5.35h2.34v5.35ZM285.1,438.6h-2.34v-5.37h2.34v5.37ZM285.1,431.03h-2.34v-5.35h2.34v5.35ZM285.1,424.58h-2.34v-5.36h2.34v5.36ZM285.1,417.02h-2.34v-5.35h2.34v5.35Z"/>
  <polygon class="cls-3" points="342.65 409.78 340.93 408.13 338.09 406.9 331.56 406.9 331.56 404.29 321.66 403.56 321.66 403.6 300.74 403.6 300.74 403.56 287.72 403.93 286.94 405.61 287.3 408.16 288.3 409.86 288.65 410.44 288.65 413.35 342.26 413.35 342.84 411.81 342.65 409.78"/>
  <path class="cls-3" d="M192.97,336.84h9.2v-4.51h9.6v27.24h1.88v43.29h6.5v-47.37h-2.59v-27.87h-11.4v-7.93h-8.97v-1.93h4.98v-16.12l-5.01-9.53-4.19,9.89v17.69h-3.18v10.5h3.18v6.65ZM196.42,308.7h3.78v5.4h-3.78v-5.4ZM196.42,329.27h3.78v5.44h-3.78v-5.44Z"/>
  <path class="cls-3" d="M211.85,361.5h-1.89v-27.24h-5.99v4.52h-12.78v-6.65h-4.6v23.36h-5.2v49.31h-13.73l-3.26,5.11v36.4h3.26l.56.52,9.87,9.53,2.9-2.31.6-.48h17.39v6.1h13.97v-12.22h14.99v-42.65h-16.09v-43.3ZM171.11,440.7h-3.79v-5.43h3.79v5.43ZM171.11,431.98h-3.79v-5.43h3.79v5.43ZM171.11,425.2h-3.79v-5.44h3.79v5.44ZM171.11,418.41h-3.79v-5.43h3.79v5.43ZM176.69,447.7h-3.79v-5.44h3.79v5.44ZM176.69,440.7h-3.79v-5.43h3.79v5.43ZM176.69,431.98h-3.79v-5.43h3.79v5.43ZM176.69,425.2h-3.79v-5.44h3.79v5.44ZM176.69,418.41h-3.79v-5.43h3.79v5.43ZM181.82,447.7h-3.79v-5.44h3.79v5.44ZM181.82,440.7h-3.79v-5.43h3.79v5.43ZM181.82,431.98h-3.79v-5.43h3.79v5.43ZM181.82,425.2h-3.79v-5.44h3.79v5.44ZM181.82,418.41h-3.79v-5.43h3.79v5.43ZM194.62,447.7h-3.81v-5.44h3.81v5.44ZM194.62,440.93h-3.81v-5.46h3.81v5.46ZM194.62,431.98h-3.81v-5.43h3.81v5.43ZM194.62,425.2h-3.81v-5.44h3.81v5.44ZM194.62,418.41h-3.81v-5.43h3.81v5.43ZM194.62,409.1h-3.81v-5.42h3.81v5.42ZM194.62,402.34h-3.81v-5.44h3.81v5.44ZM194.62,395.54h-3.81v-5.43h3.81v5.43ZM194.62,386.26h-3.81v-5.42h3.81v5.42ZM194.62,379.45h-3.81v-5.42h3.81v5.42ZM194.62,372.67h-3.81v-5.44h3.81v5.44ZM194.62,362.58h-3.81v-5.42h3.81v5.42ZM194.62,355.82h-3.81v-5.46h3.81v5.46ZM194.62,349.01h-3.81v-5.42h3.81v5.42ZM200.2,447.7h-3.78v-5.44h3.78v5.44ZM200.2,440.93h-3.78v-5.46h3.78v5.46ZM200.2,431.98h-3.78v-5.43h3.78v5.43ZM200.2,425.2h-3.78v-5.44h3.78v5.44ZM200.2,418.41h-3.78v-5.43h3.78v5.43ZM200.2,409.1h-3.78v-5.42h3.78v5.42ZM200.2,402.34h-3.78v-5.44h3.78v5.44ZM200.2,395.54h-3.78v-5.43h3.78v5.43ZM200.2,386.26h-3.78v-5.42h3.78v5.42ZM200.2,379.45h-3.78v-5.42h3.78v5.42ZM200.2,372.67h-3.78v-5.44h3.78v5.44ZM200.2,362.58h-3.78v-5.42h3.78v5.42ZM200.2,355.82h-3.78v-5.46h3.78v5.46ZM200.2,349.01h-3.78v-5.42h3.78v5.42ZM205.33,447.7h-3.8v-5.44h3.8v5.44ZM205.33,440.93h-3.8v-5.46h3.8v5.46ZM205.33,431.98h-3.8v-5.43h3.8v5.43ZM205.33,425.2h-3.8v-5.44h3.8v5.44ZM205.33,418.41h-3.8v-5.43h3.8v5.43ZM205.33,409.1h-3.8v-5.42h3.8v5.42ZM205.33,402.34h-3.8v-5.44h3.8v5.44ZM205.33,395.54h-3.8v-5.43h3.8v5.43ZM205.33,386.26h-3.8v-5.42h3.8v5.42ZM205.33,379.45h-3.8v-5.42h3.8v5.42ZM205.33,372.67h-3.8v-5.44h3.8v5.44ZM205.33,362.58h-3.8v-5.42h3.8v5.42ZM205.33,355.82h-3.8v-5.46h3.8v5.46ZM205.33,349.01h-3.8v-5.42h3.8v5.42ZM210.13,419.76h3.78v5.44h-3.78v-5.44ZM210.13,426.55h3.78v5.43h-3.78v-5.43ZM224.86,440.93h-3.78v-5.46h3.78v5.46ZM220.85,412.98h3.77v5.43h-3.77v-5.43ZM220.85,419.76h3.77v5.44h-3.77v-5.44ZM220.85,426.55h3.77v5.43h-3.77v-5.43ZM219.75,440.93h-3.8v-5.46h3.8v5.46ZM215.72,412.98h3.79v5.43h-3.79v-5.43ZM215.72,419.76h3.79v5.44h-3.79v-5.44ZM215.72,426.55h3.79v5.43h-3.79v-5.43ZM214.16,440.93h-3.8v-5.46h3.8v5.46ZM213.91,412.98v5.43h-3.78v-5.43h3.78Z"/>
  <path class="cls-3" d="M257.11,437.59h-11.39v7.93h-8.2v14.15h13.38v37.53h15.98v-53.8h-9.77v-5.81ZM259.69,492.53h-3.38v-3.62h3.38v3.62ZM259.69,484.22h-3.38v-3.63h3.38v3.63ZM259.69,475.89h-3.38v-3.62h3.38v3.62ZM259.69,467.56h-3.38v-3.62h3.38v3.62ZM259.69,459.23h-3.38v-3.63h3.38v3.63ZM261.2,447.28h3.39v3.62h-3.39v-3.62ZM261.2,455.6h3.39v3.63h-3.39v-3.63ZM261.2,463.94h3.39v3.62h-3.39v-3.62ZM261.2,472.27h3.39v3.62h-3.39v-3.62ZM259.69,447.28v3.62h-3.38v-3.62h3.38Z"/>
  <path class="cls-3" d="M249.11,497.2v-35.58h-21.17v-12.25h-13.19v12.25h-15.77v44.05c.17.18.34.34.52.51,1.11,1.08,2.22,2.13,3.35,3.15,1.34,1.23,2.69,2.42,4.09,3.59.99.84,2,1.68,3.02,2.48v-18.2h39.15ZM222.75,464.86h20.93v4.42h-20.93v-4.42ZM222.75,472.87h20.93v4.43h-20.93v-4.43ZM222.75,480.51h20.93v4.43h-20.93v-4.43ZM222.75,488.52h20.93v4.43h-20.93v-4.43ZM202.8,464.86h14.81v4.42h-14.81v-4.42ZM202.8,472.87h14.81v4.43h-14.81v-4.43ZM202.8,480.51h14.81v4.43h-14.81v-4.43ZM202.8,492.95v-4.43h14.81v4.43h-14.81Z"/>
  <path class="cls-3" d="M211.77,499.14v17.71s.08.06.12.1c.43.33.87.67,1.31,1.01.53.41,1.06.8,1.6,1.2,3.14,2.33,6.39,4.57,9.72,6.65.53.34,1.05.66,1.59,1,2.32,1.41,4.67,2.77,7.08,4.06,5.91,3.21,12.06,6.03,18.42,8.44,1.35.52,2.7,1.01,4.08,1.49,1.62.55,3.25,1.09,4.89,1.59.58.19,1.15.36,1.74.53,1.44.43,2.89.84,4.35,1.22v-45h-54.9ZM220.42,508.91h-4.53v-8.24h4.53v8.24ZM227,508.91h-4.52v-8.24h4.52v8.24ZM233.58,508.91h-4.52v-8.24h4.52v8.24ZM240.16,508.91h-4.5v-8.24h4.5v8.24ZM246.75,508.91h-4.52v-8.24h4.52v8.24ZM253.33,508.91h-4.49v-8.24h4.49v8.24ZM259.92,508.91h-4.52v-8.24h4.52v8.24Z"/>
  <path class="cls-3" d="M182.18,455.49l-3.55,2.85h-.04s-.49.6-.49.6l-.12-.11-3.18,2.52v4.91l7.1-5.61h9.7v5.04h-9.7l-7.1,5.6v3.59l7.1-5.6h9.7v5.04h-9.7l-5.15,4.05c.31.49.63.98.95,1.46.1.14.18.28.28.43l3.92-3.11h9.7v5.01h-9.7l-1.71,1.36c.32.46.64.91.96,1.37.13.18.26.36.39.53l.36-.27h9.7v5.04h-6.49c.42.54.85,1.08,1.28,1.61.29.38.6.76.91,1.12.2.25.39.49.61.74h3.69v4.3c.07.07.14.14.2.22.51.58,1.04,1.17,1.59,1.73,1.24,1.36,2.49,2.67,3.79,3.97v-48.39h-15Z"/>
  <path class="cls-3" d="M172.91,460.46l.09-.1.88-.69,2.73-2.14-9.64-9.29h-5.06c.43,1.22.89,2.41,1.35,3.62.15.38.29.75.44,1.13.07.16.14.32.2.48.13.36.28.7.42,1.06h4.89v5.24h-2.59c.51,1.09,1.02,2.18,1.55,3.27.2.41.41.83.62,1.25h.42v.84c.47.93.95,1.86,1.44,2.78.76,1.44,1.54,2.85,2.35,4.25v-11.6l-.09-.1Z"/>
</svg>