<svg version="1.0" preserveAspectRatio="xMidYMid meet" viewBox="147 596.9999733340001 1203 329.99998526" zoomAndPan="magnify" xmlns:xlink="http://www.w3.org/1999/xlink" xmlns="http://www.w3.org/2000/svg" style="max-height: 500px" width="1203" height="329.99998526"><defs><g/><clipPath id="36fd5362bf"><rect height="192" y="0" width="643" x="0"/></clipPath><clipPath id="ee23ffd54f"><rect height="192" y="0" width="1013" x="0"/></clipPath></defs><g transform="matrix(1, 0, 0, 1, 150, 574)"><g clip-path="url(#36fd5362bf)"><g fill-opacity="1" fill="#08c8f0"><g transform="translate(0.00002043, 143.496146)"><g><path d="M 48.03125 33.296875 C 38.101562 33.296875 30.65625 30.863281 25.6875 26 C 20.71875 21.132812 18.234375 13.894531 18.234375 4.28125 L 18.234375 -18.859375 C 18.234375 -22.242188 17.148438 -24.941406 14.984375 -26.953125 C 12.816406 -28.960938 9.9375 -29.96875 6.34375 -29.96875 L 5.546875 -29.96875 L 5.546875 -49.296875 L 6.34375 -49.296875 C 9.9375 -49.296875 12.816406 -50.300781 14.984375 -52.3125 C 17.148438 -54.320312 18.234375 -57.019531 18.234375 -60.40625 L 18.234375 -83.546875 C 18.234375 -93.160156 20.71875 -100.398438 25.6875 -105.265625 C 30.65625 -110.128906 38.101562 -112.5625 48.03125 -112.5625 L 53.734375 -112.5625 L 53.734375 -93.375 L 47.875 -93.375 C 45.125 -93.375 42.929688 -92.445312 41.296875 -90.59375 C 39.660156 -88.75 38.84375 -86.398438 38.84375 -83.546875 L 38.84375 -60.40625 C 38.84375 -54.695312 37.863281 -50.097656 35.90625 -46.609375 C 33.945312 -43.117188 31.226562 -40.898438 27.75 -39.953125 L 27.75 -39.3125 C 31.226562 -38.363281 33.945312 -36.144531 35.90625 -32.65625 C 37.863281 -29.164062 38.84375 -24.566406 38.84375 -18.859375 L 38.84375 4.28125 C 38.84375 7.132812 39.660156 9.484375 41.296875 11.328125 C 42.929688 13.179688 45.125 14.109375 47.875 14.109375 L 53.734375 14.109375 L 53.734375 33.296875 Z M 48.03125 33.296875"/></g></g></g><g fill-opacity="1" fill="#ffffff"><g transform="translate(58.509148, 143.496146)"><g/></g></g><g fill-opacity="1" fill="#ffffff"><g transform="translate(93.387018, 143.496146)"><g><path d="M 29.171875 2.21875 C 25.472656 2.21875 22.085938 1.632812 19.015625 0.46875 C 15.953125 -0.6875 13.3125 -2.296875 11.09375 -4.359375 C 8.875 -6.421875 7.128906 -8.851562 5.859375 -11.65625 C 4.597656 -14.457031 3.96875 -17.492188 3.96875 -20.765625 C 3.96875 -24.253906 4.679688 -27.503906 6.109375 -30.515625 C 7.535156 -33.523438 9.566406 -36.140625 12.203125 -38.359375 C 14.847656 -40.578125 17.941406 -42.296875 21.484375 -43.515625 C 25.023438 -44.734375 28.960938 -45.34375 33.296875 -45.34375 C 40.054688 -45.34375 46.128906 -43.863281 51.515625 -40.90625 L 51.515625 -42.328125 C 51.515625 -46.660156 50.085938 -50.117188 47.234375 -52.703125 C 44.390625 -55.296875 40.742188 -56.59375 36.296875 -56.59375 C 30.171875 -56.59375 25.15625 -54.003906 21.25 -48.828125 L 8.5625 -63.578125 C 13 -67.585938 17.644531 -70.515625 22.5 -72.359375 C 27.363281 -74.210938 32.8125 -75.140625 38.84375 -75.140625 C 43.914062 -75.140625 48.507812 -74.320312 52.625 -72.6875 C 56.75 -71.050781 60.316406 -68.78125 63.328125 -65.875 C 66.335938 -62.96875 68.660156 -59.503906 70.296875 -55.484375 C 71.941406 -51.472656 72.765625 -47.035156 72.765625 -42.171875 L 72.765625 0 L 51.515625 0 L 51.515625 -7.453125 C 48.453125 -3.960938 45.125 -1.476562 41.53125 0 C 37.9375 1.476562 33.816406 2.21875 29.171875 2.21875 Z M 35.984375 -13.796875 C 40.109375 -13.796875 43.597656 -14.929688 46.453125 -17.203125 C 49.304688 -19.472656 50.992188 -22.457031 51.515625 -26.15625 C 46.660156 -29.320312 41.800781 -30.90625 36.9375 -30.90625 C 33.238281 -30.90625 30.359375 -30.113281 28.296875 -28.53125 C 26.234375 -26.945312 25.203125 -24.832031 25.203125 -22.1875 C 25.203125 -19.550781 26.148438 -17.492188 28.046875 -16.015625 C 29.953125 -14.535156 32.597656 -13.796875 35.984375 -13.796875 Z M 35.984375 -13.796875"/></g></g></g><g fill-opacity="1" fill="#ffffff"><g transform="translate(174.081734, 143.496146)"><g><path d="M 39.953125 2.21875 C 31.390625 2.21875 24.863281 -0.179688 20.375 -4.984375 C 15.882812 -9.796875 13.640625 -16.585938 13.640625 -25.359375 L 13.640625 -55.796875 L 2.375 -55.796875 L 2.375 -72.921875 L 13.640625 -72.921875 L 13.640625 -93.53125 L 34.875 -93.53125 L 34.875 -72.921875 L 55.015625 -72.921875 L 55.015625 -55.796875 L 34.875 -55.796875 L 34.875 -27.109375 C 34.875 -23.722656 35.5625 -21.078125 36.9375 -19.171875 C 38.3125 -17.273438 40.53125 -16.328125 43.59375 -16.328125 C 46.976562 -16.328125 50.359375 -17.703125 53.734375 -20.453125 L 62.140625 -6.34375 C 56.648438 -0.632812 49.253906 2.21875 39.953125 2.21875 Z M 39.953125 2.21875"/></g></g></g><g fill-opacity="1" fill="#d665ff"><g transform="translate(237.816727, 143.496146)"><g><path d="M 11.890625 -106.21875 L 45.1875 -106.21875 C 50.675781 -106.21875 55.769531 -105.367188 60.46875 -103.671875 C 65.175781 -101.984375 69.222656 -99.609375 72.609375 -96.546875 C 75.992188 -93.484375 78.632812 -89.835938 80.53125 -85.609375 C 82.4375 -81.378906 83.390625 -76.78125 83.390625 -71.8125 C 83.390625 -65.46875 81.851562 -59.734375 78.78125 -54.609375 C 75.71875 -49.484375 71.492188 -45.492188 66.109375 -42.640625 L 91 0 L 64.046875 0 L 43.4375 -37.25 L 35.03125 -37.25 L 35.03125 0 L 11.890625 0 Z M 44.078125 -57.703125 C 49.035156 -57.703125 52.96875 -58.941406 55.875 -61.421875 C 58.78125 -63.910156 60.234375 -67.320312 60.234375 -71.65625 C 60.234375 -75.988281 58.753906 -79.210938 55.796875 -81.328125 C 52.835938 -83.441406 48.929688 -84.5 44.078125 -84.5 L 35.03125 -84.5 L 35.03125 -57.703125 Z M 44.078125 -57.703125"/></g></g></g><g fill-opacity="1" fill="#ffffff"><g transform="translate(331.1991, 143.496146)"><g><path d="M 43.90625 2.21875 C 38.414062 2.21875 33.289062 1.210938 28.53125 -0.796875 C 23.78125 -2.804688 19.632812 -5.550781 16.09375 -9.03125 C 12.550781 -12.519531 9.773438 -16.613281 7.765625 -21.3125 C 5.753906 -26.019531 4.75 -31.070312 4.75 -36.46875 C 4.75 -41.851562 5.753906 -46.894531 7.765625 -51.59375 C 9.773438 -56.300781 12.550781 -60.398438 16.09375 -63.890625 C 19.632812 -67.378906 23.78125 -70.125 28.53125 -72.125 C 33.289062 -74.132812 38.414062 -75.140625 43.90625 -75.140625 C 49.40625 -75.140625 54.53125 -74.132812 59.28125 -72.125 C 64.039062 -70.125 68.191406 -67.378906 71.734375 -63.890625 C 75.273438 -60.398438 78.050781 -56.300781 80.0625 -51.59375 C 82.070312 -46.894531 83.078125 -41.851562 83.078125 -36.46875 C 83.078125 -31.070312 82.070312 -26.019531 80.0625 -21.3125 C 78.050781 -16.613281 75.273438 -12.519531 71.734375 -9.03125 C 68.191406 -5.550781 64.039062 -2.804688 59.28125 -0.796875 C 54.53125 1.210938 49.40625 2.21875 43.90625 2.21875 Z M 43.90625 -17.90625 C 49.09375 -17.90625 53.296875 -19.625 56.515625 -23.0625 C 59.742188 -26.5 61.359375 -31.019531 61.359375 -36.625 C 61.359375 -42.007812 59.742188 -46.421875 56.515625 -49.859375 C 53.296875 -53.296875 49.09375 -55.015625 43.90625 -55.015625 C 38.726562 -55.015625 34.523438 -53.296875 31.296875 -49.859375 C 28.078125 -46.421875 26.46875 -42.007812 26.46875 -36.625 C 26.46875 -31.019531 28.078125 -26.5 31.296875 -23.0625 C 34.523438 -19.625 38.726562 -17.90625 43.90625 -17.90625 Z M 43.90625 -17.90625"/></g></g></g><g fill-opacity="1" fill="#ffffff"><g transform="translate(419.027929, 143.496146)"><g><path d="M 43.4375 23.46875 C 48.507812 23.46875 52.523438 22.59375 55.484375 20.84375 C 58.441406 19.101562 59.921875 16.703125 59.921875 13.640625 C 59.921875 10.566406 58.46875 8.160156 55.5625 6.421875 C 52.65625 4.679688 48.664062 3.8125 43.59375 3.8125 C 38.519531 3.8125 34.53125 4.679688 31.625 6.421875 C 28.71875 8.160156 27.265625 10.566406 27.265625 13.640625 C 27.265625 16.703125 28.691406 19.101562 31.546875 20.84375 C 34.398438 22.59375 38.363281 23.46875 43.4375 23.46875 Z M 43.28125 39.625 C 37.675781 39.625 32.601562 39.015625 28.0625 37.796875 C 23.519531 36.585938 19.632812 34.875 16.40625 32.65625 C 13.1875 30.4375 10.703125 27.738281 8.953125 24.5625 C 7.210938 21.394531 6.34375 17.910156 6.34375 14.109375 C 6.34375 6.609375 9.515625 0.742188 15.859375 -3.484375 C 10.148438 -6.441406 7.296875 -10.671875 7.296875 -16.171875 C 7.296875 -19.234375 8.140625 -21.875 9.828125 -24.09375 C 11.515625 -26.3125 13.785156 -28.109375 16.640625 -29.484375 C 14.109375 -31.921875 12.128906 -34.695312 10.703125 -37.8125 C 9.273438 -40.925781 8.5625 -44.332031 8.5625 -48.03125 C 8.5625 -51.945312 9.378906 -55.566406 11.015625 -58.890625 C 12.648438 -62.222656 14.921875 -65.101562 17.828125 -67.53125 C 20.734375 -69.96875 24.195312 -71.84375 28.21875 -73.15625 C 32.238281 -74.476562 36.675781 -75.140625 41.53125 -75.140625 C 46.5 -75.140625 51.097656 -74.398438 55.328125 -72.921875 L 80.6875 -72.921875 L 80.6875 -58.5 L 71.8125 -58.5 C 72.65625 -57.019531 73.285156 -55.40625 73.703125 -53.65625 C 74.128906 -51.914062 74.34375 -50.148438 74.34375 -48.359375 C 74.34375 -44.335938 73.523438 -40.660156 71.890625 -37.328125 C 70.253906 -34.003906 67.984375 -31.125 65.078125 -28.6875 C 62.171875 -26.257812 58.679688 -24.382812 54.609375 -23.0625 C 50.546875 -21.738281 46.132812 -21.078125 41.375 -21.078125 C 37.46875 -21.078125 33.769531 -21.554688 30.28125 -22.515625 C 27.53125 -21.773438 26.15625 -20.132812 26.15625 -17.59375 C 26.15625 -15.800781 26.972656 -14.476562 28.609375 -13.625 C 30.253906 -12.78125 32.925781 -12.359375 36.625 -12.359375 L 45.96875 -12.359375 C 50.519531 -12.359375 54.90625 -11.882812 59.125 -10.9375 C 63.351562 -9.988281 67.050781 -8.484375 70.21875 -6.421875 C 73.394531 -4.359375 75.929688 -1.742188 77.828125 1.421875 C 79.734375 4.597656 80.6875 8.351562 80.6875 12.6875 C 80.6875 16.800781 79.8125 20.523438 78.0625 23.859375 C 76.320312 27.191406 73.8125 30.019531 70.53125 32.34375 C 67.257812 34.664062 63.328125 36.457031 58.734375 37.71875 C 54.140625 38.988281 48.988281 39.625 43.28125 39.625 Z M 41.375 -37.25 C 45.070312 -37.25 48.03125 -38.226562 50.25 -40.1875 C 52.46875 -42.144531 53.578125 -44.757812 53.578125 -48.03125 C 53.578125 -51.414062 52.46875 -54.082031 50.25 -56.03125 C 48.03125 -57.988281 45.070312 -58.96875 41.375 -58.96875 C 37.675781 -58.96875 34.742188 -57.988281 32.578125 -56.03125 C 30.410156 -54.082031 29.328125 -51.414062 29.328125 -48.03125 C 29.328125 -44.757812 30.410156 -42.144531 32.578125 -40.1875 C 34.742188 -38.226562 37.675781 -37.25 41.375 -37.25 Z M 41.375 -37.25"/></g></g></g><g fill-opacity="1" fill="#ffffff"><g transform="translate(502.893359, 143.496146)"><g><path d="M 44.078125 2.21875 C 38.265625 2.21875 32.953125 1.269531 28.140625 -0.625 C 23.328125 -2.53125 19.175781 -5.175781 15.6875 -8.5625 C 12.207031 -11.945312 9.515625 -15.988281 7.609375 -20.6875 C 5.703125 -25.394531 4.75 -30.546875 4.75 -36.140625 C 4.75 -41.742188 5.703125 -46.921875 7.609375 -51.671875 C 9.515625 -56.429688 12.15625 -60.554688 15.53125 -64.046875 C 18.914062 -67.535156 22.929688 -70.253906 27.578125 -72.203125 C 32.234375 -74.160156 37.304688 -75.140625 42.796875 -75.140625 C 47.984375 -75.140625 52.769531 -74.265625 57.15625 -72.515625 C 61.539062 -70.773438 65.367188 -68.320312 68.640625 -65.15625 C 71.921875 -61.988281 74.484375 -58.238281 76.328125 -53.90625 C 78.179688 -49.570312 79.109375 -44.8125 79.109375 -39.625 C 79.109375 -37.726562 79.054688 -36.144531 78.953125 -34.875 C 78.847656 -33.601562 78.632812 -32.070312 78.3125 -30.28125 L 26.796875 -30.28125 C 27.847656 -25.84375 30.035156 -22.351562 33.359375 -19.8125 C 36.691406 -17.28125 40.945312 -16.015625 46.125 -16.015625 C 49.832031 -16.015625 53.320312 -16.703125 56.59375 -18.078125 C 59.875 -19.453125 62.941406 -21.671875 65.796875 -24.734375 L 77.046875 -12.203125 C 72.921875 -7.453125 68.003906 -3.859375 62.296875 -1.421875 C 56.585938 1.003906 50.515625 2.21875 44.078125 2.21875 Z M 58.015625 -45.015625 C 57.066406 -49.460938 55.242188 -52.847656 52.546875 -55.171875 C 49.859375 -57.492188 46.503906 -58.65625 42.484375 -58.65625 C 38.359375 -58.65625 34.894531 -57.4375 32.09375 -55 C 29.300781 -52.570312 27.425781 -49.242188 26.46875 -45.015625 Z M 58.015625 -45.015625"/></g></g></g><g fill-opacity="1" fill="#ffffff"><g transform="translate(586.758789, 143.496146)"><g><path d="M 8.71875 -72.921875 L 29.171875 -72.921875 L 29.171875 -63.578125 C 33.398438 -71.285156 39.796875 -75.140625 48.359375 -75.140625 C 49.515625 -75.140625 50.617188 -75.085938 51.671875 -74.984375 C 52.734375 -74.878906 53.53125 -74.722656 54.0625 -74.515625 L 51.515625 -52 C 48.773438 -52.945312 46.238281 -53.421875 43.90625 -53.421875 C 39.46875 -53.421875 36.035156 -52.046875 33.609375 -49.296875 C 31.179688 -46.554688 29.96875 -42.804688 29.96875 -38.046875 L 29.96875 0 L 8.71875 0 Z M 8.71875 -72.921875"/></g></g></g></g></g><g transform="matrix(1, 0, 0, 1, 331, 733)"><g clip-path="url(#ee23ffd54f)"><g fill-opacity="1" fill="#ffffff"><g transform="translate(1.027495, 143.634355)"><g><path d="M 39.796875 2.21875 C 34.828125 2.21875 30.226562 1.242188 26 -0.703125 C 21.769531 -2.660156 18.066406 -5.382812 14.890625 -8.875 C 11.722656 -12.363281 9.238281 -16.457031 7.4375 -21.15625 C 5.644531 -25.863281 4.75 -30.96875 4.75 -36.46875 C 4.75 -41.851562 5.644531 -46.894531 7.4375 -51.59375 C 9.238281 -56.300781 11.722656 -60.398438 14.890625 -63.890625 C 18.066406 -67.378906 21.820312 -70.125 26.15625 -72.125 C 30.488281 -74.132812 35.140625 -75.140625 40.109375 -75.140625 C 44.441406 -75.140625 48.429688 -74.398438 52.078125 -72.921875 C 55.722656 -71.441406 58.921875 -69.328125 61.671875 -66.578125 L 61.671875 -112.5625 L 82.90625 -112.5625 L 82.90625 0 L 62.625 0 L 62.625 -7.921875 C 59.875 -4.859375 56.566406 -2.398438 52.703125 -0.546875 C 48.847656 1.296875 44.546875 2.21875 39.796875 2.21875 Z M 44.390625 -17.125 C 47.035156 -17.125 49.46875 -17.625 51.6875 -18.625 C 53.90625 -19.632812 55.832031 -21.007812 57.46875 -22.75 C 59.101562 -24.488281 60.367188 -26.519531 61.265625 -28.84375 C 62.171875 -31.175781 62.625 -33.71875 62.625 -36.46875 C 62.625 -39.207031 62.171875 -41.738281 61.265625 -44.0625 C 60.367188 -46.394531 59.101562 -48.429688 57.46875 -50.171875 C 55.832031 -51.921875 53.90625 -53.296875 51.6875 -54.296875 C 49.46875 -55.296875 47.035156 -55.796875 44.390625 -55.796875 C 41.847656 -55.796875 39.46875 -55.296875 37.25 -54.296875 C 35.03125 -53.296875 33.128906 -51.921875 31.546875 -50.171875 C 29.960938 -48.429688 28.71875 -46.394531 27.8125 -44.0625 C 26.914062 -41.738281 26.46875 -39.207031 26.46875 -36.46875 C 26.46875 -33.71875 26.914062 -31.175781 27.8125 -28.84375 C 28.71875 -26.519531 29.960938 -24.488281 31.546875 -22.75 C 33.128906 -21.007812 35.03125 -19.632812 37.25 -18.625 C 39.46875 -17.625 41.847656 -17.125 44.390625 -17.125 Z M 44.390625 -17.125"/></g></g></g><g fill-opacity="1" fill="#ffffff"><g transform="translate(92.661187, 143.634355)"><g><path d="M 44.078125 2.21875 C 38.265625 2.21875 32.953125 1.269531 28.140625 -0.625 C 23.328125 -2.53125 19.175781 -5.175781 15.6875 -8.5625 C 12.207031 -11.945312 9.515625 -15.988281 7.609375 -20.6875 C 5.703125 -25.394531 4.75 -30.546875 4.75 -36.140625 C 4.75 -41.742188 5.703125 -46.921875 7.609375 -51.671875 C 9.515625 -56.429688 12.15625 -60.554688 15.53125 -64.046875 C 18.914062 -67.535156 22.929688 -70.253906 27.578125 -72.203125 C 32.234375 -74.160156 37.304688 -75.140625 42.796875 -75.140625 C 47.984375 -75.140625 52.769531 -74.265625 57.15625 -72.515625 C 61.539062 -70.773438 65.367188 -68.320312 68.640625 -65.15625 C 71.921875 -61.988281 74.484375 -58.238281 76.328125 -53.90625 C 78.179688 -49.570312 79.109375 -44.8125 79.109375 -39.625 C 79.109375 -37.726562 79.054688 -36.144531 78.953125 -34.875 C 78.847656 -33.601562 78.632812 -32.070312 78.3125 -30.28125 L 26.796875 -30.28125 C 27.847656 -25.84375 30.035156 -22.351562 33.359375 -19.8125 C 36.691406 -17.28125 40.945312 -16.015625 46.125 -16.015625 C 49.832031 -16.015625 53.320312 -16.703125 56.59375 -18.078125 C 59.875 -19.453125 62.941406 -21.671875 65.796875 -24.734375 L 77.046875 -12.203125 C 72.921875 -7.453125 68.003906 -3.859375 62.296875 -1.421875 C 56.585938 1.003906 50.515625 2.21875 44.078125 2.21875 Z M 58.015625 -45.015625 C 57.066406 -49.460938 55.242188 -52.847656 52.546875 -55.171875 C 49.859375 -57.492188 46.503906 -58.65625 42.484375 -58.65625 C 38.359375 -58.65625 34.894531 -57.4375 32.09375 -55 C 29.300781 -52.570312 27.425781 -49.242188 26.46875 -45.015625 Z M 58.015625 -45.015625"/></g></g></g><g fill-opacity="1" fill="#ffffff"><g transform="translate(176.526616, 143.634355)"><g><path d="M 0 -72.921875 L 22.671875 -72.921875 L 37.734375 -33.921875 L 52.796875 -72.921875 L 74.671875 -72.921875 L 43.125 1.90625 L 31.078125 1.90625 Z M 0 -72.921875"/></g></g></g><g fill-opacity="1" fill="#ffffff"><g transform="translate(251.196978, 143.634355)"><g><path d="M 44.078125 2.21875 C 38.265625 2.21875 32.953125 1.269531 28.140625 -0.625 C 23.328125 -2.53125 19.175781 -5.175781 15.6875 -8.5625 C 12.207031 -11.945312 9.515625 -15.988281 7.609375 -20.6875 C 5.703125 -25.394531 4.75 -30.546875 4.75 -36.140625 C 4.75 -41.742188 5.703125 -46.921875 7.609375 -51.671875 C 9.515625 -56.429688 12.15625 -60.554688 15.53125 -64.046875 C 18.914062 -67.535156 22.929688 -70.253906 27.578125 -72.203125 C 32.234375 -74.160156 37.304688 -75.140625 42.796875 -75.140625 C 47.984375 -75.140625 52.769531 -74.265625 57.15625 -72.515625 C 61.539062 -70.773438 65.367188 -68.320312 68.640625 -65.15625 C 71.921875 -61.988281 74.484375 -58.238281 76.328125 -53.90625 C 78.179688 -49.570312 79.109375 -44.8125 79.109375 -39.625 C 79.109375 -37.726562 79.054688 -36.144531 78.953125 -34.875 C 78.847656 -33.601562 78.632812 -32.070312 78.3125 -30.28125 L 26.796875 -30.28125 C 27.847656 -25.84375 30.035156 -22.351562 33.359375 -19.8125 C 36.691406 -17.28125 40.945312 -16.015625 46.125 -16.015625 C 49.832031 -16.015625 53.320312 -16.703125 56.59375 -18.078125 C 59.875 -19.453125 62.941406 -21.671875 65.796875 -24.734375 L 77.046875 -12.203125 C 72.921875 -7.453125 68.003906 -3.859375 62.296875 -1.421875 C 56.585938 1.003906 50.515625 2.21875 44.078125 2.21875 Z M 58.015625 -45.015625 C 57.066406 -49.460938 55.242188 -52.847656 52.546875 -55.171875 C 49.859375 -57.492188 46.503906 -58.65625 42.484375 -58.65625 C 38.359375 -58.65625 34.894531 -57.4375 32.09375 -55 C 29.300781 -52.570312 27.425781 -49.242188 26.46875 -45.015625 Z M 58.015625 -45.015625"/></g></g></g><g fill-opacity="1" fill="#ffffff"><g transform="translate(335.062421, 143.634355)"><g><path d="M 8.71875 -112.5625 L 29.96875 -112.5625 L 29.96875 0 L 8.71875 0 Z M 8.71875 -112.5625"/></g></g></g><g fill-opacity="1" fill="#ffffff"><g transform="translate(373.74514, 143.634355)"><g><path d="M 43.90625 2.21875 C 38.414062 2.21875 33.289062 1.210938 28.53125 -0.796875 C 23.78125 -2.804688 19.632812 -5.550781 16.09375 -9.03125 C 12.550781 -12.519531 9.773438 -16.613281 7.765625 -21.3125 C 5.753906 -26.019531 4.75 -31.070312 4.75 -36.46875 C 4.75 -41.851562 5.753906 -46.894531 7.765625 -51.59375 C 9.773438 -56.300781 12.550781 -60.398438 16.09375 -63.890625 C 19.632812 -67.378906 23.78125 -70.125 28.53125 -72.125 C 33.289062 -74.132812 38.414062 -75.140625 43.90625 -75.140625 C 49.40625 -75.140625 54.53125 -74.132812 59.28125 -72.125 C 64.039062 -70.125 68.191406 -67.378906 71.734375 -63.890625 C 75.273438 -60.398438 78.050781 -56.300781 80.0625 -51.59375 C 82.070312 -46.894531 83.078125 -41.851562 83.078125 -36.46875 C 83.078125 -31.070312 82.070312 -26.019531 80.0625 -21.3125 C 78.050781 -16.613281 75.273438 -12.519531 71.734375 -9.03125 C 68.191406 -5.550781 64.039062 -2.804688 59.28125 -0.796875 C 54.53125 1.210938 49.40625 2.21875 43.90625 2.21875 Z M 43.90625 -17.90625 C 49.09375 -17.90625 53.296875 -19.625 56.515625 -23.0625 C 59.742188 -26.5 61.359375 -31.019531 61.359375 -36.625 C 61.359375 -42.007812 59.742188 -46.421875 56.515625 -49.859375 C 53.296875 -53.296875 49.09375 -55.015625 43.90625 -55.015625 C 38.726562 -55.015625 34.523438 -53.296875 31.296875 -49.859375 C 28.078125 -46.421875 26.46875 -42.007812 26.46875 -36.625 C 26.46875 -31.019531 28.078125 -26.5 31.296875 -23.0625 C 34.523438 -19.625 38.726562 -17.90625 43.90625 -17.90625 Z M 43.90625 -17.90625"/></g></g></g><g fill-opacity="1" fill="#ffffff"><g transform="translate(461.573995, 143.634355)"><g><path d="M 47.25 -17.125 C 49.78125 -17.125 52.15625 -17.625 54.375 -18.625 C 56.59375 -19.632812 58.519531 -21.007812 60.15625 -22.75 C 61.800781 -24.488281 63.070312 -26.519531 63.96875 -28.84375 C 64.863281 -31.175781 65.3125 -33.71875 65.3125 -36.46875 C 65.3125 -39.207031 64.863281 -41.738281 63.96875 -44.0625 C 63.070312 -46.394531 61.800781 -48.429688 60.15625 -50.171875 C 58.519531 -51.921875 56.59375 -53.296875 54.375 -54.296875 C 52.15625 -55.296875 49.78125 -55.796875 47.25 -55.796875 C 44.601562 -55.796875 42.171875 -55.296875 39.953125 -54.296875 C 37.734375 -53.296875 35.828125 -51.921875 34.234375 -50.171875 C 32.648438 -48.429688 31.410156 -46.394531 30.515625 -44.0625 C 29.617188 -41.738281 29.171875 -39.207031 29.171875 -36.46875 C 29.171875 -33.71875 29.617188 -31.175781 30.515625 -28.84375 C 31.410156 -26.519531 32.648438 -24.488281 34.234375 -22.75 C 35.828125 -21.007812 37.734375 -19.632812 39.953125 -18.625 C 42.171875 -17.625 44.601562 -17.125 47.25 -17.125 Z M 8.71875 -72.921875 L 29.171875 -72.921875 L 29.171875 -65 C 31.921875 -68.0625 35.222656 -70.515625 39.078125 -72.359375 C 42.929688 -74.210938 47.238281 -75.140625 52 -75.140625 C 56.863281 -75.140625 61.40625 -74.160156 65.625 -72.203125 C 69.851562 -70.253906 73.5 -67.535156 76.5625 -64.046875 C 79.632812 -60.554688 82.066406 -56.457031 83.859375 -51.75 C 85.660156 -47.050781 86.5625 -41.957031 86.5625 -36.46875 C 86.5625 -31.070312 85.660156 -26.019531 83.859375 -21.3125 C 82.066406 -16.613281 79.609375 -12.519531 76.484375 -9.03125 C 73.367188 -5.550781 69.671875 -2.804688 65.390625 -0.796875 C 61.109375 1.210938 56.484375 2.21875 51.515625 2.21875 C 47.296875 2.21875 43.332031 1.476562 39.625 0 C 35.925781 -1.476562 32.707031 -3.59375 29.96875 -6.34375 L 29.96875 39.625 L 8.71875 39.625 Z M 8.71875 -72.921875"/></g></g></g><g fill-opacity="1" fill="#ffffff"><g transform="translate(552.890587, 143.634355)"><g><path d="M 8.71875 -72.921875 L 29.171875 -72.921875 L 29.171875 -64.203125 C 31.703125 -67.691406 34.738281 -70.382812 38.28125 -72.28125 C 41.820312 -74.1875 45.707031 -75.140625 49.9375 -75.140625 C 54.800781 -75.140625 59.1875 -74.003906 63.09375 -71.734375 C 67.007812 -69.460938 70.179688 -66.375 72.609375 -62.46875 C 75.566406 -66.476562 79.050781 -69.59375 83.0625 -71.8125 C 87.082031 -74.03125 91.523438 -75.140625 96.390625 -75.140625 C 100.503906 -75.140625 104.28125 -74.375 107.71875 -72.84375 C 111.15625 -71.3125 114.140625 -69.222656 116.671875 -66.578125 C 119.210938 -63.941406 121.195312 -60.769531 122.625 -57.0625 C 124.050781 -53.363281 124.765625 -49.40625 124.765625 -45.1875 L 124.765625 0 L 103.515625 0 L 103.515625 -39.953125 C 103.515625 -44.816406 102.351562 -48.671875 100.03125 -51.515625 C 97.707031 -54.367188 94.535156 -55.796875 90.515625 -55.796875 C 86.503906 -55.796875 83.304688 -54.316406 80.921875 -51.359375 C 78.546875 -48.398438 77.359375 -44.4375 77.359375 -39.46875 L 77.359375 0 L 56.125 0 L 56.125 -39.953125 C 56.125 -44.816406 54.957031 -48.671875 52.625 -51.515625 C 50.300781 -54.367188 47.132812 -55.796875 43.125 -55.796875 C 39.101562 -55.796875 35.90625 -54.316406 33.53125 -51.359375 C 31.15625 -48.398438 29.96875 -44.4375 29.96875 -39.46875 L 29.96875 0 L 8.71875 0 Z M 8.71875 -72.921875"/></g></g></g><g fill-opacity="1" fill="#ffffff"><g transform="translate(685.58504, 143.634355)"><g><path d="M 44.078125 2.21875 C 38.265625 2.21875 32.953125 1.269531 28.140625 -0.625 C 23.328125 -2.53125 19.175781 -5.175781 15.6875 -8.5625 C 12.207031 -11.945312 9.515625 -15.988281 7.609375 -20.6875 C 5.703125 -25.394531 4.75 -30.546875 4.75 -36.140625 C 4.75 -41.742188 5.703125 -46.921875 7.609375 -51.671875 C 9.515625 -56.429688 12.15625 -60.554688 15.53125 -64.046875 C 18.914062 -67.535156 22.929688 -70.253906 27.578125 -72.203125 C 32.234375 -74.160156 37.304688 -75.140625 42.796875 -75.140625 C 47.984375 -75.140625 52.769531 -74.265625 57.15625 -72.515625 C 61.539062 -70.773438 65.367188 -68.320312 68.640625 -65.15625 C 71.921875 -61.988281 74.484375 -58.238281 76.328125 -53.90625 C 78.179688 -49.570312 79.109375 -44.8125 79.109375 -39.625 C 79.109375 -37.726562 79.054688 -36.144531 78.953125 -34.875 C 78.847656 -33.601562 78.632812 -32.070312 78.3125 -30.28125 L 26.796875 -30.28125 C 27.847656 -25.84375 30.035156 -22.351562 33.359375 -19.8125 C 36.691406 -17.28125 40.945312 -16.015625 46.125 -16.015625 C 49.832031 -16.015625 53.320312 -16.703125 56.59375 -18.078125 C 59.875 -19.453125 62.941406 -21.671875 65.796875 -24.734375 L 77.046875 -12.203125 C 72.921875 -7.453125 68.003906 -3.859375 62.296875 -1.421875 C 56.585938 1.003906 50.515625 2.21875 44.078125 2.21875 Z M 58.015625 -45.015625 C 57.066406 -49.460938 55.242188 -52.847656 52.546875 -55.171875 C 49.859375 -57.492188 46.503906 -58.65625 42.484375 -58.65625 C 38.359375 -58.65625 34.894531 -57.4375 32.09375 -55 C 29.300781 -52.570312 27.425781 -49.242188 26.46875 -45.015625 Z M 58.015625 -45.015625"/></g></g></g><g fill-opacity="1" fill="#ffffff"><g transform="translate(769.450458, 143.634355)"><g><path d="M 8.71875 -72.921875 L 29.171875 -72.921875 L 29.171875 -64.203125 C 31.703125 -67.691406 34.738281 -70.382812 38.28125 -72.28125 C 41.820312 -74.1875 45.707031 -75.140625 49.9375 -75.140625 C 53.84375 -75.140625 57.488281 -74.375 60.875 -72.84375 C 64.257812 -71.3125 67.164062 -69.195312 69.59375 -66.5 C 72.019531 -63.8125 73.921875 -60.640625 75.296875 -56.984375 C 76.671875 -53.335938 77.359375 -49.40625 77.359375 -45.1875 L 77.359375 0 L 56.125 0 L 56.125 -39.953125 C 56.125 -44.816406 54.957031 -48.671875 52.625 -51.515625 C 50.300781 -54.367188 47.132812 -55.796875 43.125 -55.796875 C 39.101562 -55.796875 35.90625 -54.316406 33.53125 -51.359375 C 31.15625 -48.398438 29.96875 -44.4375 29.96875 -39.46875 L 29.96875 0 L 8.71875 0 Z M 8.71875 -72.921875"/></g></g></g><g fill-opacity="1" fill="#ffffff"><g transform="translate(854.742772, 143.634355)"><g><path d="M 39.953125 2.21875 C 31.390625 2.21875 24.863281 -0.179688 20.375 -4.984375 C 15.882812 -9.796875 13.640625 -16.585938 13.640625 -25.359375 L 13.640625 -55.796875 L 2.375 -55.796875 L 2.375 -72.921875 L 13.640625 -72.921875 L 13.640625 -93.53125 L 34.875 -93.53125 L 34.875 -72.921875 L 55.015625 -72.921875 L 55.015625 -55.796875 L 34.875 -55.796875 L 34.875 -27.109375 C 34.875 -23.722656 35.5625 -21.078125 36.9375 -19.171875 C 38.3125 -17.273438 40.53125 -16.328125 43.59375 -16.328125 C 46.976562 -16.328125 50.359375 -17.703125 53.734375 -20.453125 L 62.140625 -6.34375 C 56.648438 -0.632812 49.253906 2.21875 39.953125 2.21875 Z M 39.953125 2.21875"/></g></g></g><g fill-opacity="1" fill="#ffffff"><g transform="translate(918.474157, 143.634355)"><g/></g></g><g fill-opacity="1" fill="#08c8f0"><g transform="translate(953.352242, 143.634355)"><g><path d="M 4.75 14.109375 L 10.625 14.109375 C 13.375 14.109375 15.566406 13.179688 17.203125 11.328125 C 18.835938 9.484375 19.65625 7.132812 19.65625 4.28125 L 19.65625 -18.859375 C 19.65625 -24.566406 20.632812 -29.164062 22.59375 -32.65625 C 24.550781 -36.144531 27.269531 -38.363281 30.75 -39.3125 L 30.75 -39.953125 C 27.269531 -40.898438 24.550781 -43.117188 22.59375 -46.609375 C 20.632812 -50.097656 19.65625 -54.695312 19.65625 -60.40625 L 19.65625 -83.546875 C 19.65625 -86.398438 18.835938 -88.75 17.203125 -90.59375 C 15.566406 -92.445312 13.375 -93.375 10.625 -93.375 L 4.75 -93.375 L 4.75 -112.5625 L 10.46875 -112.5625 C 20.394531 -112.5625 27.84375 -110.128906 32.8125 -105.265625 C 37.78125 -100.398438 40.265625 -93.160156 40.265625 -83.546875 L 40.265625 -60.40625 C 40.265625 -57.019531 41.347656 -54.320312 43.515625 -52.3125 C 45.679688 -50.300781 48.5625 -49.296875 52.15625 -49.296875 L 52.953125 -49.296875 L 52.953125 -29.96875 L 52.15625 -29.96875 C 48.5625 -29.96875 45.679688 -28.960938 43.515625 -26.953125 C 41.347656 -24.941406 40.265625 -22.242188 40.265625 -18.859375 L 40.265625 4.28125 C 40.265625 13.894531 37.78125 21.132812 32.8125 26 C 27.84375 30.863281 20.394531 33.296875 10.46875 33.296875 L 4.75 33.296875 Z M 4.75 14.109375"/></g></g></g></g></g></svg>