<svg version="1.0" preserveAspectRatio="xMidYMid meet" viewBox="156 608.999972798 1182 311.999986064" zoomAndPan="magnify" xmlns:xlink="http://www.w3.org/1999/xlink" xmlns="http://www.w3.org/2000/svg" style="max-height: 500px" width="1182" height="311.999986064"><defs><g/><clipPath id="ab6be9672c"><rect height="281" y="0" width="969" x="0"/></clipPath><clipPath id="ea4a767274"><path clip-rule="nonzero" d="M 79 1.082031 L 171.3125 1.082031 L 171.3125 301.34375 L 79 301.34375 Z M 79 1.082031"/></clipPath><clipPath id="fca635046f"><path clip-rule="nonzero" d="M 0.652344 180.339844 L 45.777344 180.339844 L 45.777344 225.464844 L 0.652344 225.464844 Z M 0.652344 180.339844"/></clipPath><clipPath id="3acd0c3ff9"><path clip-rule="nonzero" d="M 0.652344 202.902344 C 0.652344 215.363281 10.753906 225.464844 23.214844 225.464844 C 35.675781 225.464844 45.777344 215.363281 45.777344 202.902344 C 45.777344 190.441406 35.675781 180.339844 23.214844 180.339844 C 10.753906 180.339844 0.652344 190.441406 0.652344 202.902344 Z M 0.652344 202.902344"/></clipPath><clipPath id="0243c243f2"><path clip-rule="nonzero" d="M 0.652344 0.339844 L 45.777344 0.339844 L 45.777344 45.464844 L 0.652344 45.464844 Z M 0.652344 0.339844"/></clipPath><clipPath id="14d1554ec3"><path clip-rule="nonzero" d="M 0.652344 22.902344 C 0.652344 35.363281 10.753906 45.464844 23.214844 45.464844 C 35.675781 45.464844 45.777344 35.363281 45.777344 22.902344 C 45.777344 10.441406 35.675781 0.339844 23.214844 0.339844 C 10.753906 0.339844 0.652344 10.441406 0.652344 22.902344 Z M 0.652344 22.902344"/></clipPath><clipPath id="e85f3a1ea8"><rect height="46" y="0" width="46" x="0"/></clipPath><clipPath id="9995bd7dcb"><path clip-rule="nonzero" d="M 0.652344 76.671875 L 45.777344 76.671875 L 45.777344 121.792969 L 0.652344 121.792969 Z M 0.652344 76.671875"/></clipPath><clipPath id="0dee5e9d3d"><path clip-rule="nonzero" d="M 0.652344 99.230469 C 0.652344 111.691406 10.753906 121.792969 23.214844 121.792969 C 35.675781 121.792969 45.777344 111.691406 45.777344 99.230469 C 45.777344 86.769531 35.675781 76.671875 23.214844 76.671875 C 10.753906 76.671875 0.652344 86.769531 0.652344 99.230469 Z M 0.652344 99.230469"/></clipPath><clipPath id="71fc96649f"><path clip-rule="nonzero" d="M 0.652344 0.671875 L 45.777344 0.671875 L 45.777344 45.792969 L 0.652344 45.792969 Z M 0.652344 0.671875"/></clipPath><clipPath id="755db9ea28"><path clip-rule="nonzero" d="M 0.652344 23.230469 C 0.652344 35.691406 10.753906 45.792969 23.214844 45.792969 C 35.675781 45.792969 45.777344 35.691406 45.777344 23.230469 C 45.777344 10.769531 35.675781 0.671875 23.214844 0.671875 C 10.753906 0.671875 0.652344 10.769531 0.652344 23.230469 Z M 0.652344 23.230469"/></clipPath><clipPath id="955879c6f4"><rect height="46" y="0" width="46" x="0"/></clipPath><clipPath id="fc065df888"><rect height="302" y="0" width="189" x="0"/></clipPath></defs><g transform="matrix(1, 0, 0, 1, 150, 606)"><g clip-path="url(#ab6be9672c)"><g fill-opacity="1" fill="#ffffff"><g transform="translate(0.00002043, 210.006627)"><g><path d="M 92.40625 43.53125 C 80.769531 40.882812 70.140625 36.570312 60.515625 30.59375 C 50.898438 24.625 42.640625 17.332031 35.734375 8.71875 C 28.828125 0.113281 23.472656 -9.578125 19.671875 -20.359375 C 15.867188 -31.148438 13.96875 -42.597656 13.96875 -54.703125 C 13.96875 -69.128906 16.601562 -82.472656 21.875 -94.734375 C 27.15625 -106.992188 34.445312 -117.582031 43.75 -126.5 C 53.0625 -135.425781 64.117188 -142.445312 76.921875 -147.5625 C 89.722656 -152.6875 103.578125 -155.25 118.484375 -155.25 C 132.597656 -155.25 145.785156 -152.957031 158.046875 -148.375 C 170.304688 -143.800781 180.894531 -137.476562 189.8125 -129.40625 C 198.738281 -121.34375 205.757812 -111.800781 210.875 -100.78125 C 216 -89.769531 218.5625 -77.820312 218.5625 -64.9375 C 218.5625 -56.40625 217.4375 -48.722656 215.1875 -41.890625 C 212.9375 -35.066406 209.832031 -29.25 205.875 -24.4375 C 201.925781 -19.625 197.195312 -15.898438 191.6875 -13.265625 C 186.175781 -10.628906 180.238281 -9.3125 173.875 -9.3125 C 166.738281 -9.3125 160.414062 -10.863281 154.90625 -13.96875 C 149.394531 -17.070312 144.929688 -21.335938 141.515625 -26.765625 C 137.953125 -21.179688 133.335938 -16.757812 127.671875 -13.5 C 122.003906 -10.238281 115.679688 -8.609375 108.703125 -8.609375 C 102.804688 -8.609375 97.335938 -9.769531 92.296875 -12.09375 C 87.253906 -14.425781 82.867188 -17.609375 79.140625 -21.640625 C 75.410156 -25.679688 72.457031 -30.378906 70.28125 -35.734375 C 68.113281 -41.085938 67.03125 -46.867188 67.03125 -53.078125 C 67.03125 -59.273438 68.113281 -65.050781 70.28125 -70.40625 C 72.457031 -75.757812 75.410156 -80.453125 79.140625 -84.484375 C 82.867188 -88.523438 87.289062 -91.707031 92.40625 -94.03125 C 97.53125 -96.363281 103.039062 -97.53125 108.9375 -97.53125 C 113.90625 -97.53125 118.484375 -96.710938 122.671875 -95.078125 C 126.859375 -93.453125 130.660156 -91.085938 134.078125 -87.984375 L 134.078125 -96.59375 L 159.671875 -96.59375 L 159.671875 -52.609375 C 159.671875 -46.554688 160.953125 -41.628906 163.515625 -37.828125 C 166.078125 -34.023438 169.609375 -32.125 174.109375 -32.125 C 179.234375 -32.125 183.34375 -34.722656 186.4375 -39.921875 C 189.539062 -45.117188 191.09375 -52.601562 191.09375 -62.375 C 191.09375 -72.15625 189.269531 -81.273438 185.625 -89.734375 C 181.976562 -98.191406 176.9375 -105.519531 170.5 -111.71875 C 164.0625 -117.925781 156.421875 -122.816406 147.578125 -126.390625 C 138.734375 -129.960938 129.035156 -131.75 118.484375 -131.75 C 107.304688 -131.75 96.984375 -129.769531 87.515625 -125.8125 C 78.054688 -121.851562 69.910156 -116.421875 63.078125 -109.515625 C 56.253906 -102.609375 50.941406 -94.460938 47.140625 -85.078125 C 43.335938 -75.691406 41.4375 -65.566406 41.4375 -54.703125 C 41.4375 -45.390625 42.867188 -36.617188 45.734375 -28.390625 C 48.609375 -20.171875 52.601562 -12.800781 57.71875 -6.28125 C 62.84375 0.226562 68.972656 5.734375 76.109375 10.234375 C 83.253906 14.734375 91.171875 17.914062 99.859375 19.78125 Z M 114.28125 -32.359375 C 120.1875 -32.359375 125 -34.332031 128.71875 -38.28125 C 132.445312 -42.238281 134.3125 -47.171875 134.3125 -53.078125 C 134.3125 -58.972656 132.445312 -63.9375 128.71875 -67.96875 C 125 -72 120.1875 -74.015625 114.28125 -74.015625 C 108.695312 -74.015625 104.003906 -72 100.203125 -67.96875 C 96.398438 -63.9375 94.5 -58.972656 94.5 -53.078125 C 94.5 -47.171875 96.398438 -42.238281 100.203125 -38.28125 C 104.003906 -34.332031 108.695312 -32.359375 114.28125 -32.359375 Z M 114.28125 -32.359375"/></g></g></g><g fill-opacity="1" fill="#ffffff"><g transform="translate(230.196738, 210.006627)"><g><path d="M 17.453125 -155.953125 L 66.34375 -155.953125 C 74.40625 -155.953125 81.890625 -154.707031 88.796875 -152.21875 C 95.703125 -149.738281 101.640625 -146.25 106.609375 -141.75 C 111.578125 -137.25 115.457031 -131.894531 118.25 -125.6875 C 121.039062 -119.488281 122.4375 -112.738281 122.4375 -105.4375 C 122.4375 -96.132812 120.1875 -87.71875 115.6875 -80.1875 C 111.1875 -72.664062 104.976562 -66.804688 97.0625 -62.609375 L 133.609375 0 L 94.03125 0 L 63.78125 -54.703125 L 51.4375 -54.703125 L 51.4375 0 L 17.453125 0 Z M 64.703125 -84.734375 C 72.003906 -84.734375 77.785156 -86.554688 82.046875 -90.203125 C 86.316406 -93.847656 88.453125 -98.847656 88.453125 -105.203125 C 88.453125 -111.566406 86.28125 -116.300781 81.9375 -119.40625 C 77.59375 -122.507812 71.847656 -124.0625 64.703125 -124.0625 L 51.4375 -124.0625 L 51.4375 -84.734375 Z M 64.703125 -84.734375"/></g></g></g><g fill-opacity="1" fill="#ffffff"><g transform="translate(367.290621, 210.006627)"><g><path d="M 88.6875 3.265625 C 77.195312 3.265625 66.5625 1.171875 56.78125 -3.015625 C 47.007812 -7.210938 38.515625 -12.957031 31.296875 -20.25 C 24.085938 -27.539062 18.425781 -36.113281 14.3125 -45.96875 C 10.195312 -55.820312 8.140625 -66.488281 8.140625 -77.96875 C 8.140625 -89.457031 10.195312 -100.164062 14.3125 -110.09375 C 18.425781 -120.03125 24.085938 -128.644531 31.296875 -135.9375 C 38.515625 -143.226562 47.007812 -148.929688 56.78125 -153.046875 C 66.5625 -157.160156 77.195312 -159.21875 88.6875 -159.21875 C 100.007812 -159.21875 110.597656 -157.160156 120.453125 -153.046875 C 130.304688 -148.929688 138.84375 -143.226562 146.0625 -135.9375 C 153.28125 -128.644531 158.941406 -120.03125 163.046875 -110.09375 C 167.160156 -100.164062 169.21875 -89.457031 169.21875 -77.96875 C 169.21875 -66.488281 167.160156 -55.820312 163.046875 -45.96875 C 158.941406 -36.113281 153.28125 -27.539062 146.0625 -20.25 C 138.84375 -12.957031 130.304688 -7.210938 120.453125 -3.015625 C 110.597656 1.171875 100.007812 3.265625 88.6875 3.265625 Z M 88.6875 -29.796875 C 95.195312 -29.796875 101.164062 -31 106.59375 -33.40625 C 112.03125 -35.8125 116.726562 -39.1875 120.6875 -43.53125 C 124.644531 -47.875 127.75 -52.992188 130 -58.890625 C 132.25 -64.785156 133.375 -71.144531 133.375 -77.96875 C 133.375 -84.800781 132.25 -91.164062 130 -97.0625 C 127.75 -102.957031 124.644531 -108.035156 120.6875 -112.296875 C 116.726562 -116.566406 112.03125 -119.941406 106.59375 -122.421875 C 101.164062 -124.910156 95.195312 -126.15625 88.6875 -126.15625 C 82.164062 -126.15625 76.1875 -124.910156 70.75 -122.421875 C 65.320312 -119.941406 60.628906 -116.566406 56.671875 -112.296875 C 52.722656 -108.035156 49.625 -102.957031 47.375 -97.0625 C 45.125 -91.164062 44 -84.800781 44 -77.96875 C 44 -71.144531 45.125 -64.785156 47.375 -58.890625 C 49.625 -52.992188 52.722656 -47.910156 56.671875 -43.640625 C 60.628906 -39.378906 65.320312 -36.003906 70.75 -33.515625 C 76.1875 -31.035156 82.164062 -29.796875 88.6875 -29.796875 Z M 88.6875 -29.796875"/></g></g></g><g fill-opacity="1" fill="#ffffff"><g transform="translate(544.651536, 210.006627)"><g><path d="M 87.046875 3.03125 C 75.722656 3.03125 65.25 1.015625 55.625 -3.015625 C 46.007812 -7.054688 37.671875 -12.679688 30.609375 -19.890625 C 23.546875 -27.109375 18.035156 -35.566406 14.078125 -45.265625 C 10.117188 -54.972656 8.140625 -65.566406 8.140625 -77.046875 C 8.140625 -88.835938 10.195312 -99.738281 14.3125 -109.75 C 18.425781 -119.757812 24.128906 -128.410156 31.421875 -135.703125 C 38.710938 -142.992188 47.285156 -148.734375 57.140625 -152.921875 C 66.992188 -157.117188 77.664062 -159.21875 89.15625 -159.21875 C 101.40625 -159.21875 112.769531 -156.847656 123.25 -152.109375 C 133.726562 -147.378906 142.691406 -140.742188 150.140625 -132.203125 L 126.390625 -108.9375 C 121.421875 -114.363281 115.832031 -118.585938 109.625 -121.609375 C 103.425781 -124.640625 96.832031 -126.15625 89.84375 -126.15625 C 83.175781 -126.15625 77.046875 -124.953125 71.453125 -122.546875 C 65.867188 -120.140625 61.019531 -116.765625 56.90625 -112.421875 C 52.800781 -108.078125 49.625 -102.957031 47.375 -97.0625 C 45.125 -91.164062 44 -84.726562 44 -77.75 C 44 -70.757812 45.125 -64.316406 47.375 -58.421875 C 49.625 -52.523438 52.84375 -47.484375 57.03125 -43.296875 C 61.21875 -39.109375 66.179688 -35.847656 71.921875 -33.515625 C 77.660156 -31.191406 84.023438 -30.03125 91.015625 -30.03125 C 96.910156 -30.03125 102.378906 -30.804688 107.421875 -32.359375 C 112.460938 -33.910156 117.15625 -36.46875 121.5 -40.03125 L 121.5 -61.21875 L 91.703125 -61.21875 L 91.703125 -89.15625 L 155.484375 -89.15625 L 155.484375 -26.53125 C 147.265625 -17.070312 137.21875 -9.78125 125.34375 -4.65625 C 113.46875 0.46875 100.703125 3.03125 87.046875 3.03125 Z M 87.046875 3.03125"/></g></g></g><g fill-opacity="1" fill="#ffffff"><g transform="translate(711.771076, 210.006627)"><g><path d="M 17.453125 -155.953125 L 106.609375 -155.953125 L 106.609375 -124.0625 L 51.4375 -124.0625 L 51.4375 -95.4375 L 91.703125 -95.4375 L 91.703125 -63.546875 L 51.4375 -63.546875 L 51.4375 -31.890625 L 107.765625 -31.890625 L 107.765625 0 L 17.453125 0 Z M 17.453125 -155.953125"/></g></g></g><g fill-opacity="1" fill="#ffffff"><g transform="translate(831.175397, 210.006627)"><g><path d="M 17.453125 -155.953125 L 66.34375 -155.953125 C 74.40625 -155.953125 81.890625 -154.707031 88.796875 -152.21875 C 95.703125 -149.738281 101.640625 -146.25 106.609375 -141.75 C 111.578125 -137.25 115.457031 -131.894531 118.25 -125.6875 C 121.039062 -119.488281 122.4375 -112.738281 122.4375 -105.4375 C 122.4375 -96.132812 120.1875 -87.71875 115.6875 -80.1875 C 111.1875 -72.664062 104.976562 -66.804688 97.0625 -62.609375 L 133.609375 0 L 94.03125 0 L 63.78125 -54.703125 L 51.4375 -54.703125 L 51.4375 0 L 17.453125 0 Z M 64.703125 -84.734375 C 72.003906 -84.734375 77.785156 -86.554688 82.046875 -90.203125 C 86.316406 -93.847656 88.453125 -98.847656 88.453125 -105.203125 C 88.453125 -111.566406 86.28125 -116.300781 81.9375 -119.40625 C 77.59375 -122.507812 71.847656 -124.0625 64.703125 -124.0625 L 51.4375 -124.0625 L 51.4375 -84.734375 Z M 64.703125 -84.734375"/></g></g></g></g></g><g fill-opacity="1" fill="#ffffff"><g transform="translate(288.455327, 896.692991)"><g><path d="M 5.046875 -37.515625 L 17.296875 -37.515625 C 20.171875 -37.515625 22.820312 -37.046875 25.25 -36.109375 C 27.675781 -35.179688 29.773438 -33.878906 31.546875 -32.203125 C 33.328125 -30.523438 34.71875 -28.535156 35.71875 -26.234375 C 36.726562 -23.941406 37.234375 -21.453125 37.234375 -18.765625 C 37.234375 -16.078125 36.726562 -13.582031 35.71875 -11.28125 C 34.71875 -8.988281 33.328125 -7.007812 31.546875 -5.34375 C 29.773438 -3.6875 27.675781 -2.378906 25.25 -1.421875 C 22.820312 -0.472656 20.171875 0 17.296875 0 L 5.046875 0 Z M 17.25 -3.640625 C 19.519531 -3.640625 21.625 -4.007812 23.5625 -4.75 C 25.507812 -5.5 27.179688 -6.546875 28.578125 -7.890625 C 29.984375 -9.234375 31.078125 -10.828125 31.859375 -12.671875 C 32.648438 -14.523438 33.046875 -16.554688 33.046875 -18.765625 C 33.046875 -20.960938 32.648438 -22.984375 31.859375 -24.828125 C 31.078125 -26.679688 29.984375 -28.28125 28.578125 -29.625 C 27.179688 -30.96875 25.507812 -32.007812 23.5625 -32.75 C 21.625 -33.5 19.519531 -33.875 17.25 -33.875 L 8.953125 -33.875 L 8.953125 -3.640625 Z M 17.25 -3.640625"/></g></g></g><g fill-opacity="1" fill="#ffffff"><g transform="translate(366.009744, 896.692991)"><g><path d="M 5.046875 -37.515625 L 24.359375 -37.515625 L 24.359375 -33.875 L 8.953125 -33.875 L 8.953125 -21.28125 L 20.71875 -21.28125 L 20.71875 -17.640625 L 8.953125 -17.640625 L 8.953125 -3.640625 L 24.640625 -3.640625 L 24.640625 0 L 5.046875 0 Z M 5.046875 -37.515625"/></g></g></g><g fill-opacity="1" fill="#ffffff"><g transform="translate(431.525848, 896.692991)"><g><path d="M 1.6875 -37.515625 L 5.828125 -37.515625 L 16.078125 -8.171875 L 26.9375 -37.515625 L 30.796875 -37.515625 L 16.40625 1.125 L 15.28125 1.125 Z M 1.6875 -37.515625"/></g></g></g><g fill-opacity="1" fill="#ffffff"><g transform="translate(501.521318, 896.692991)"><g><path d="M 5.046875 -37.515625 L 24.359375 -37.515625 L 24.359375 -33.875 L 8.953125 -33.875 L 8.953125 -21.28125 L 20.71875 -21.28125 L 20.71875 -17.640625 L 8.953125 -17.640625 L 8.953125 -3.640625 L 24.640625 -3.640625 L 24.640625 0 L 5.046875 0 Z M 5.046875 -37.515625"/></g></g></g><g fill-opacity="1" fill="#ffffff"><g transform="translate(567.037433, 896.692991)"><g><path d="M 5.046875 -37.515625 L 8.953125 -37.515625 L 8.953125 -3.640625 L 24.078125 -3.640625 L 24.078125 0 L 5.046875 0 Z M 5.046875 -37.515625"/></g></g></g><g fill-opacity="1" fill="#ffffff"><g transform="translate(627.794043, 896.692991)"><g><path d="M 21.5625 0.5625 C 18.988281 0.5625 16.5625 0.0546875 14.28125 -0.953125 C 12 -1.960938 10.007812 -3.34375 8.3125 -5.09375 C 6.613281 -6.851562 5.269531 -8.898438 4.28125 -11.234375 C 3.289062 -13.566406 2.796875 -16.078125 2.796875 -18.765625 C 2.796875 -21.410156 3.289062 -23.910156 4.28125 -26.265625 C 5.269531 -28.617188 6.613281 -30.671875 8.3125 -32.421875 C 10.007812 -34.179688 12 -35.5625 14.28125 -36.5625 C 16.5625 -37.570312 18.988281 -38.078125 21.5625 -38.078125 C 24.132812 -38.078125 26.554688 -37.570312 28.828125 -36.5625 C 31.109375 -35.5625 33.097656 -34.179688 34.796875 -32.421875 C 36.503906 -30.671875 37.847656 -28.628906 38.828125 -26.296875 C 39.816406 -23.960938 40.3125 -21.453125 40.3125 -18.765625 C 40.3125 -16.109375 39.816406 -13.613281 38.828125 -11.28125 C 37.847656 -8.945312 36.503906 -6.898438 34.796875 -5.140625 C 33.097656 -3.390625 31.109375 -2 28.828125 -0.96875 C 26.554688 0.0507812 24.132812 0.5625 21.5625 0.5625 Z M 21.5625 -3.296875 C 23.613281 -3.296875 25.535156 -3.6875 27.328125 -4.46875 C 29.117188 -5.257812 30.65625 -6.34375 31.9375 -7.71875 C 33.226562 -9.101562 34.25 -10.738281 35 -12.625 C 35.75 -14.507812 36.125 -16.554688 36.125 -18.765625 C 36.125 -20.960938 35.75 -23.003906 35 -24.890625 C 34.25 -26.773438 33.226562 -28.40625 31.9375 -29.78125 C 30.65625 -31.164062 29.117188 -32.25 27.328125 -33.03125 C 25.535156 -33.820312 23.613281 -34.21875 21.5625 -34.21875 C 19.46875 -34.21875 17.535156 -33.820312 15.765625 -33.03125 C 13.992188 -32.25 12.460938 -31.164062 11.171875 -29.78125 C 9.878906 -28.40625 8.859375 -26.773438 8.109375 -24.890625 C 7.367188 -23.003906 7 -20.960938 7 -18.765625 C 7 -16.554688 7.367188 -14.507812 8.109375 -12.625 C 8.859375 -10.738281 9.878906 -9.101562 11.171875 -7.71875 C 12.460938 -6.34375 13.992188 -5.257812 15.765625 -4.46875 C 17.535156 -3.6875 19.46875 -3.296875 21.5625 -3.296875 Z M 21.5625 -3.296875"/></g></g></g><g fill-opacity="1" fill="#ffffff"><g transform="translate(708.428008, 896.692991)"><g><path d="M 5.046875 -37.515625 L 14 -37.515625 C 15.863281 -37.515625 17.585938 -37.234375 19.171875 -36.671875 C 20.765625 -36.117188 22.128906 -35.335938 23.265625 -34.328125 C 24.398438 -33.316406 25.285156 -32.117188 25.921875 -30.734375 C 26.554688 -29.359375 26.875 -27.847656 26.875 -26.203125 C 26.875 -24.566406 26.554688 -23.054688 25.921875 -21.671875 C 25.285156 -20.285156 24.398438 -19.085938 23.265625 -18.078125 C 22.128906 -17.078125 20.765625 -16.296875 19.171875 -15.734375 C 17.585938 -15.171875 15.863281 -14.890625 14 -14.890625 L 8.953125 -14.890625 L 8.953125 0 L 5.046875 0 Z M 14 -18.53125 C 16.6875 -18.53125 18.847656 -19.226562 20.484375 -20.625 C 22.128906 -22.03125 22.953125 -23.910156 22.953125 -26.265625 C 22.953125 -28.578125 22.128906 -30.421875 20.484375 -31.796875 C 18.847656 -33.179688 16.6875 -33.875 14 -33.875 L 8.953125 -33.875 L 8.953125 -18.53125 Z M 14 -18.53125"/></g></g></g><g fill-opacity="1" fill="#ffffff"><g transform="translate(775.343942, 896.692991)"><g><path d="M 5.046875 -38.640625 L 6.15625 -38.640625 L 22.796875 -15.0625 L 39.203125 -38.640625 L 40.3125 -38.640625 L 40.3125 0 L 36.40625 0 L 36.40625 -28.0625 L 23.234375 -9.234375 L 22.125 -9.234375 L 8.953125 -27.78125 L 8.953125 0 L 5.046875 0 Z M 5.046875 -38.640625"/></g></g></g><g fill-opacity="1" fill="#ffffff"><g transform="translate(858.217607, 896.692991)"><g><path d="M 5.046875 -37.515625 L 24.359375 -37.515625 L 24.359375 -33.875 L 8.953125 -33.875 L 8.953125 -21.28125 L 20.71875 -21.28125 L 20.71875 -17.640625 L 8.953125 -17.640625 L 8.953125 -3.640625 L 24.640625 -3.640625 L 24.640625 0 L 5.046875 0 Z M 5.046875 -37.515625"/></g></g></g><g fill-opacity="1" fill="#ffffff"><g transform="translate(923.733699, 896.692991)"><g><path d="M 8.84375 -29.171875 L 8.84375 0 L 5.046875 0 L 5.046875 -38.640625 L 6.15625 -38.640625 L 31.46875 -8.34375 L 31.46875 -37.515625 L 35.28125 -37.515625 L 35.28125 1.125 L 34.15625 1.125 Z M 8.84375 -29.171875"/></g></g></g><g fill-opacity="1" fill="#ffffff"><g transform="translate(1001.568119, 896.692991)"><g><path d="M 14 -33.875 L 1.6875 -33.875 L 1.6875 -37.515625 L 30.234375 -37.515625 L 30.234375 -33.875 L 17.921875 -33.875 L 17.921875 0 L 14 0 Z M 14 -33.875"/></g></g></g><g transform="matrix(1, 0, 0, 1, 1158, 613)"><g clip-path="url(#fc065df888)"><g clip-path="url(#ea4a767274)"><path fill-rule="evenodd" fill-opacity="1" d="M 87.773438 267.949219 L 79.425781 267.949219 L 79.425781 301.34375 L 87.773438 301.34375 C 115.4375 301.34375 137.863281 278.917969 137.863281 251.253906 L 137.863281 192.816406 C 137.863281 187.5625 140.339844 182.613281 144.542969 179.457031 L 164.578125 164.433594 C 168.585938 161.425781 171.035156 156.773438 171.242188 151.769531 C 171.449219 146.761719 169.398438 141.921875 165.652344 138.59375 L 143.46875 118.882812 C 139.902344 115.714844 137.863281 111.171875 137.863281 106.402344 L 137.863281 50.898438 C 137.863281 23.230469 115.4375 0.808594 87.773438 0.808594 L 79.425781 0.808594 L 79.425781 34.199219 L 87.773438 34.199219 C 96.996094 34.199219 104.472656 41.675781 104.472656 50.898438 L 104.472656 106.402344 C 104.472656 120.710938 110.589844 134.335938 121.285156 143.84375 L 128.191406 149.980469 L 124.507812 152.746094 C 111.894531 162.203125 104.472656 177.050781 104.472656 192.816406 L 104.472656 251.253906 C 104.472656 260.472656 96.996094 267.949219 87.773438 267.949219 Z M 87.773438 267.949219" fill="#02c8f0"/></g><g clip-path="url(#fca635046f)"><g clip-path="url(#3acd0c3ff9)"><g transform="matrix(1, 0, 0, 1, -0.000000000000227374, 180)"><g clip-path="url(#e85f3a1ea8)"><g clip-path="url(#0243c243f2)"><g clip-path="url(#14d1554ec3)"><path fill-rule="nonzero" fill-opacity="1" d="M 0.652344 45.464844 L 0.652344 0.339844 L 45.777344 0.339844 L 45.777344 45.464844 Z M 0.652344 45.464844" fill="#02c8f0"/></g></g></g></g></g></g><g clip-path="url(#9995bd7dcb)"><g clip-path="url(#0dee5e9d3d)"><g transform="matrix(1, 0, 0, 1, -0.000000000000227374, 76)"><g clip-path="url(#955879c6f4)"><g clip-path="url(#71fc96649f)"><g clip-path="url(#755db9ea28)"><path fill-rule="nonzero" fill-opacity="1" d="M 0.652344 45.792969 L 0.652344 0.671875 L 45.777344 0.671875 L 45.777344 45.792969 Z M 0.652344 45.792969" fill="#02c8f0"/></g></g></g></g></g></g></g></g></svg>