<svg version="1.0" preserveAspectRatio="xMidYMid meet" viewBox="306 449.9999799 900 635.999971592" zoomAndPan="magnify" xmlns:xlink="http://www.w3.org/1999/xlink" xmlns="http://www.w3.org/2000/svg" style="max-height: 500px" width="900" height="635.999971592"><defs><g/><clipPath id="2eabfe8abd"><path clip-rule="nonzero" d="M 0.582031 149 L 568.871094 149 L 568.871094 323.78125 L 0.582031 323.78125 Z M 0.582031 149"/></clipPath><clipPath id="2fd98dd30e"><path clip-rule="nonzero" d="M 144.191406 0.789062 L 229.59375 0.789062 L 229.59375 86.191406 L 144.191406 86.191406 Z M 144.191406 0.789062"/></clipPath><clipPath id="d469ba349d"><path clip-rule="nonzero" d="M 186.894531 0.789062 C 163.3125 0.789062 144.191406 19.90625 144.191406 43.488281 C 144.191406 67.070312 163.3125 86.191406 186.894531 86.191406 C 210.476562 86.191406 229.59375 67.070312 229.59375 43.488281 C 229.59375 19.90625 210.476562 0.789062 186.894531 0.789062 Z M 186.894531 0.789062"/></clipPath><clipPath id="7de7fc847e"><path clip-rule="nonzero" d="M 0.191406 0.789062 L 85.59375 0.789062 L 85.59375 86.191406 L 0.191406 86.191406 Z M 0.191406 0.789062"/></clipPath><clipPath id="e9ad453a54"><path clip-rule="nonzero" d="M 42.894531 0.789062 C 19.3125 0.789062 0.191406 19.90625 0.191406 43.488281 C 0.191406 67.070312 19.3125 86.191406 42.894531 86.191406 C 66.476562 86.191406 85.59375 67.070312 85.59375 43.488281 C 85.59375 19.90625 66.476562 0.789062 42.894531 0.789062 Z M 42.894531 0.789062"/></clipPath><clipPath id="f78778d23b"><rect height="87" y="0" width="86" x="0"/></clipPath><clipPath id="9693c4c365"><path clip-rule="nonzero" d="M 340.40625 0.789062 L 425.808594 0.789062 L 425.808594 86.191406 L 340.40625 86.191406 Z M 340.40625 0.789062"/></clipPath><clipPath id="1c8b015f77"><path clip-rule="nonzero" d="M 383.105469 0.789062 C 359.523438 0.789062 340.40625 19.90625 340.40625 43.488281 C 340.40625 67.070312 359.523438 86.191406 383.105469 86.191406 C 406.6875 86.191406 425.808594 67.070312 425.808594 43.488281 C 425.808594 19.90625 406.6875 0.789062 383.105469 0.789062 Z M 383.105469 0.789062"/></clipPath><clipPath id="a5512d8082"><path clip-rule="nonzero" d="M 0.40625 0.789062 L 85.808594 0.789062 L 85.808594 86.191406 L 0.40625 86.191406 Z M 0.40625 0.789062"/></clipPath><clipPath id="32c39459a1"><path clip-rule="nonzero" d="M 43.105469 0.789062 C 19.523438 0.789062 0.40625 19.90625 0.40625 43.488281 C 0.40625 67.070312 19.523438 86.191406 43.105469 86.191406 C 66.6875 86.191406 85.808594 67.070312 85.808594 43.488281 C 85.808594 19.90625 66.6875 0.789062 43.105469 0.789062 Z M 43.105469 0.789062"/></clipPath><clipPath id="c205fb9b58"><rect height="87" y="0" width="86" x="0"/></clipPath><clipPath id="d2a3268793"><rect height="356" y="0" width="570" x="0"/></clipPath><clipPath id="e3ef5bdf80"><rect height="262" y="0" width="904" x="0"/></clipPath></defs><g transform="matrix(1, 0, 0, 1, 465, 455)"><g clip-path="url(#d2a3268793)"><g clip-path="url(#2eabfe8abd)"><path fill-rule="evenodd" fill-opacity="1" d="M 63.785156 165.675781 L 63.785156 149.875 L 0.582031 149.875 L 0.582031 165.675781 C 0.582031 218.03125 43.027344 260.476562 95.382812 260.476562 L 205.984375 260.476562 C 215.929688 260.476562 225.296875 265.160156 231.265625 273.117188 L 259.707031 311.039062 C 265.398438 318.625 274.195312 323.257812 283.675781 323.648438 C 293.152344 324.042969 302.304688 320.160156 308.605469 313.070312 L 345.914062 271.085938 C 351.910156 264.335938 360.511719 260.476562 369.535156 260.476562 L 474.585938 260.476562 C 526.945312 260.476562 569.386719 218.03125 569.386719 165.675781 L 569.386719 149.875 L 506.1875 149.875 L 506.1875 165.675781 C 506.1875 183.128906 492.039062 197.277344 474.585938 197.277344 L 369.535156 197.277344 C 342.453125 197.277344 316.664062 208.859375 298.675781 229.101562 L 287.058594 242.171875 L 281.824219 235.195312 C 263.921875 211.324219 235.824219 197.277344 205.984375 197.277344 L 95.382812 197.277344 C 77.933594 197.277344 63.785156 183.128906 63.785156 165.675781 Z M 63.785156 165.675781" fill="#02c8f0"/></g><g clip-path="url(#2fd98dd30e)"><g clip-path="url(#d469ba349d)"><g transform="matrix(1, 0, 0, 1, 144, 0.000000000000113687)"><g clip-path="url(#f78778d23b)"><g clip-path="url(#7de7fc847e)"><g clip-path="url(#e9ad453a54)"><path fill-rule="nonzero" fill-opacity="1" d="M 0.191406 0.789062 L 85.59375 0.789062 L 85.59375 86.191406 L 0.191406 86.191406 Z M 0.191406 0.789062" fill="#02c8f0"/></g></g></g></g></g></g><g clip-path="url(#9693c4c365)"><g clip-path="url(#1c8b015f77)"><g transform="matrix(1, 0, 0, 1, 340, 0.000000000000113687)"><g clip-path="url(#c205fb9b58)"><g clip-path="url(#a5512d8082)"><g clip-path="url(#32c39459a1)"><path fill-rule="nonzero" fill-opacity="1" d="M 0.40625 0.789062 L 85.808594 0.789062 L 85.808594 86.191406 L 0.40625 86.191406 Z M 0.40625 0.789062" fill="#02c8f0"/></g></g></g></g></g></g></g></g><g transform="matrix(1, 0, 0, 1, 299, 798)"><g clip-path="url(#e3ef5bdf80)"><g fill-opacity="1" fill="#ffffff"><g transform="translate(0.809676, 196.132448)"><g><path d="M 85.90625 40.46875 C 75.09375 38.019531 65.210938 34.015625 56.265625 28.453125 C 47.316406 22.898438 39.632812 16.117188 33.21875 8.109375 C 26.800781 0.109375 21.820312 -8.898438 18.28125 -18.921875 C 14.75 -28.953125 12.984375 -39.597656 12.984375 -50.859375 C 12.984375 -64.273438 15.4375 -76.679688 20.34375 -88.078125 C 25.25 -99.472656 32.03125 -109.316406 40.6875 -117.609375 C 49.34375 -125.910156 59.617188 -132.441406 71.515625 -137.203125 C 83.421875 -141.960938 96.300781 -144.34375 110.15625 -144.34375 C 123.28125 -144.34375 135.539062 -142.210938 146.9375 -137.953125 C 158.332031 -133.703125 168.175781 -127.820312 176.46875 -120.3125 C 184.769531 -112.8125 191.300781 -103.941406 196.0625 -93.703125 C 200.820312 -83.460938 203.203125 -72.351562 203.203125 -60.375 C 203.203125 -52.4375 202.15625 -45.296875 200.0625 -38.953125 C 197.976562 -32.609375 195.09375 -27.195312 191.40625 -22.71875 C 187.726562 -18.25 183.328125 -14.785156 178.203125 -12.328125 C 173.085938 -9.878906 167.570312 -8.65625 161.65625 -8.65625 C 155.019531 -8.65625 149.140625 -10.097656 144.015625 -12.984375 C 138.898438 -15.867188 134.753906 -19.835938 131.578125 -24.890625 C 128.253906 -19.691406 123.957031 -15.578125 118.6875 -12.546875 C 113.425781 -9.515625 107.550781 -8 101.0625 -8 C 95.582031 -8 90.492188 -9.082031 85.796875 -11.25 C 81.109375 -13.414062 77.035156 -16.375 73.578125 -20.125 C 70.117188 -23.875 67.378906 -28.238281 65.359375 -33.21875 C 63.335938 -38.195312 62.328125 -43.570312 62.328125 -49.34375 C 62.328125 -55.113281 63.335938 -60.484375 65.359375 -65.453125 C 67.378906 -70.429688 70.117188 -74.796875 73.578125 -78.546875 C 77.035156 -82.304688 81.144531 -85.265625 85.90625 -87.421875 C 90.675781 -89.585938 95.800781 -90.671875 101.28125 -90.671875 C 105.894531 -90.671875 110.148438 -89.910156 114.046875 -88.390625 C 117.941406 -86.878906 121.476562 -84.679688 124.65625 -81.796875 L 124.65625 -89.8125 L 148.453125 -89.8125 L 148.453125 -48.90625 C 148.453125 -43.28125 149.640625 -38.695312 152.015625 -35.15625 C 154.398438 -31.625 157.6875 -29.859375 161.875 -29.859375 C 166.632812 -29.859375 170.457031 -32.273438 173.34375 -37.109375 C 176.226562 -41.941406 177.671875 -48.90625 177.671875 -58 C 177.671875 -67.082031 175.972656 -75.554688 172.578125 -83.421875 C 169.191406 -91.285156 164.503906 -98.101562 158.515625 -103.875 C 152.523438 -109.644531 145.414062 -114.1875 137.1875 -117.5 C 128.96875 -120.820312 119.957031 -122.484375 110.15625 -122.484375 C 99.757812 -122.484375 90.160156 -120.644531 81.359375 -116.96875 C 72.566406 -113.289062 64.992188 -108.238281 58.640625 -101.8125 C 52.296875 -95.394531 47.351562 -87.820312 43.8125 -79.09375 C 40.28125 -70.363281 38.515625 -60.953125 38.515625 -50.859375 C 38.515625 -42.203125 39.847656 -34.050781 42.515625 -26.40625 C 45.191406 -18.757812 48.910156 -11.90625 53.671875 -5.84375 C 58.429688 0.21875 64.128906 5.335938 70.765625 9.515625 C 77.398438 13.703125 84.757812 16.660156 92.84375 18.390625 Z M 106.25 -30.078125 C 111.738281 -30.078125 116.210938 -31.914062 119.671875 -35.59375 C 123.128906 -39.28125 124.859375 -43.863281 124.859375 -49.34375 C 124.859375 -54.820312 123.128906 -59.4375 119.671875 -63.1875 C 116.210938 -66.9375 111.738281 -68.8125 106.25 -68.8125 C 101.0625 -68.8125 96.695312 -66.9375 93.15625 -63.1875 C 89.625 -59.4375 87.859375 -54.820312 87.859375 -49.34375 C 87.859375 -43.863281 89.625 -39.28125 93.15625 -35.59375 C 96.695312 -31.914062 101.0625 -30.078125 106.25 -30.078125 Z M 106.25 -30.078125"/></g></g></g><g fill-opacity="1" fill="#ffffff"><g transform="translate(214.833939, 196.132448)"><g><path d="M 16.234375 -145 L 61.671875 -145 C 69.171875 -145 76.128906 -143.84375 82.546875 -141.53125 C 88.972656 -139.21875 94.492188 -135.96875 99.109375 -131.78125 C 103.734375 -127.601562 107.34375 -122.628906 109.9375 -116.859375 C 112.53125 -111.085938 113.828125 -104.8125 113.828125 -98.03125 C 113.828125 -89.375 111.734375 -81.546875 107.546875 -74.546875 C 103.367188 -67.554688 97.597656 -62.113281 90.234375 -58.21875 L 124.21875 0 L 87.421875 0 L 59.296875 -50.859375 L 47.828125 -50.859375 L 47.828125 0 L 16.234375 0 Z M 60.15625 -78.765625 C 66.9375 -78.765625 72.3125 -80.457031 76.28125 -83.84375 C 80.25 -87.238281 82.234375 -91.894531 82.234375 -97.8125 C 82.234375 -103.726562 80.210938 -108.128906 76.171875 -111.015625 C 72.128906 -113.898438 66.789062 -115.34375 60.15625 -115.34375 L 47.828125 -115.34375 L 47.828125 -78.765625 Z M 60.15625 -78.765625"/></g></g></g><g fill-opacity="1" fill="#ffffff"><g transform="translate(342.29631, 196.132448)"><g><path d="M 82.453125 3.03125 C 71.773438 3.03125 61.890625 1.082031 52.796875 -2.8125 C 43.710938 -6.707031 35.816406 -12.046875 29.109375 -18.828125 C 22.398438 -25.609375 17.132812 -33.578125 13.3125 -42.734375 C 9.488281 -51.898438 7.578125 -61.820312 7.578125 -72.5 C 7.578125 -83.175781 9.488281 -93.128906 13.3125 -102.359375 C 17.132812 -111.585938 22.398438 -119.59375 29.109375 -126.375 C 35.816406 -133.15625 43.710938 -138.457031 52.796875 -142.28125 C 61.890625 -146.101562 71.773438 -148.015625 82.453125 -148.015625 C 92.984375 -148.015625 102.828125 -146.101562 111.984375 -142.28125 C 121.148438 -138.457031 129.085938 -133.15625 135.796875 -126.375 C 142.503906 -119.59375 147.769531 -111.585938 151.59375 -102.359375 C 155.414062 -93.128906 157.328125 -83.175781 157.328125 -72.5 C 157.328125 -61.820312 155.414062 -51.898438 151.59375 -42.734375 C 147.769531 -33.578125 142.503906 -25.609375 135.796875 -18.828125 C 129.085938 -12.046875 121.148438 -6.707031 111.984375 -2.8125 C 102.828125 1.082031 92.984375 3.03125 82.453125 3.03125 Z M 82.453125 -27.703125 C 88.515625 -27.703125 94.066406 -28.816406 99.109375 -31.046875 C 104.160156 -33.285156 108.523438 -36.425781 112.203125 -40.46875 C 115.878906 -44.507812 118.765625 -49.269531 120.859375 -54.75 C 122.953125 -60.226562 124 -66.144531 124 -72.5 C 124 -78.84375 122.953125 -84.753906 120.859375 -90.234375 C 118.765625 -95.722656 115.878906 -100.453125 112.203125 -104.421875 C 108.523438 -108.390625 104.160156 -111.523438 99.109375 -113.828125 C 94.066406 -116.140625 88.515625 -117.296875 82.453125 -117.296875 C 76.390625 -117.296875 70.832031 -116.140625 65.78125 -113.828125 C 60.738281 -111.523438 56.375 -108.390625 52.6875 -104.421875 C 49.007812 -100.453125 46.125 -95.722656 44.03125 -90.234375 C 41.945312 -84.753906 40.90625 -78.84375 40.90625 -72.5 C 40.90625 -66.144531 41.945312 -60.226562 44.03125 -54.75 C 46.125 -49.269531 49.007812 -44.546875 52.6875 -40.578125 C 56.375 -36.609375 60.738281 -33.46875 65.78125 -31.15625 C 70.832031 -28.851562 76.390625 -27.703125 82.453125 -27.703125 Z M 82.453125 -27.703125"/></g></g></g><g fill-opacity="1" fill="#ffffff"><g transform="translate(507.196742, 196.132448)"><g><path d="M 80.9375 2.8125 C 70.40625 2.8125 60.664062 0.9375 51.71875 -2.8125 C 42.769531 -6.5625 35.015625 -11.789062 28.453125 -18.5 C 21.890625 -25.207031 16.769531 -33.066406 13.09375 -42.078125 C 9.414062 -51.097656 7.578125 -60.945312 7.578125 -71.625 C 7.578125 -82.59375 9.488281 -92.726562 13.3125 -102.03125 C 17.132812 -111.34375 22.4375 -119.390625 29.21875 -126.171875 C 36 -132.953125 43.96875 -138.285156 53.125 -142.171875 C 62.289062 -146.066406 72.210938 -148.015625 82.890625 -148.015625 C 94.285156 -148.015625 104.847656 -145.816406 114.578125 -141.421875 C 124.316406 -137.023438 132.648438 -130.859375 139.578125 -122.921875 L 117.515625 -101.28125 C 112.890625 -106.332031 107.691406 -110.265625 101.921875 -113.078125 C 96.148438 -115.890625 90.019531 -117.296875 83.53125 -117.296875 C 77.332031 -117.296875 71.632812 -116.175781 66.4375 -113.9375 C 61.238281 -111.695312 56.726562 -108.554688 52.90625 -104.515625 C 49.082031 -100.484375 46.125 -95.722656 44.03125 -90.234375 C 41.945312 -84.753906 40.90625 -78.769531 40.90625 -72.28125 C 40.90625 -65.789062 41.945312 -59.800781 44.03125 -54.3125 C 46.125 -48.832031 49.117188 -44.144531 53.015625 -40.25 C 56.910156 -36.351562 61.523438 -33.320312 66.859375 -31.15625 C 72.203125 -29 78.117188 -27.921875 84.609375 -27.921875 C 90.097656 -27.921875 95.1875 -28.640625 99.875 -30.078125 C 104.5625 -31.523438 108.925781 -33.90625 112.96875 -37.21875 L 112.96875 -56.921875 L 85.265625 -56.921875 L 85.265625 -82.890625 L 144.5625 -82.890625 L 144.5625 -24.671875 C 136.914062 -15.867188 127.570312 -9.085938 116.53125 -4.328125 C 105.5 0.429688 93.632812 2.8125 80.9375 2.8125 Z M 80.9375 2.8125"/></g></g></g><g fill-opacity="1" fill="#ffffff"><g transform="translate(662.575349, 196.132448)"><g><path d="M 16.234375 -145 L 99.109375 -145 L 99.109375 -115.34375 L 47.828125 -115.34375 L 47.828125 -88.734375 L 85.265625 -88.734375 L 85.265625 -59.078125 L 47.828125 -59.078125 L 47.828125 -29.640625 L 100.203125 -29.640625 L 100.203125 0 L 16.234375 0 Z M 16.234375 -145"/></g></g></g><g fill-opacity="1" fill="#ffffff"><g transform="translate(773.591003, 196.132448)"><g><path d="M 16.234375 -145 L 61.671875 -145 C 69.171875 -145 76.128906 -143.84375 82.546875 -141.53125 C 88.972656 -139.21875 94.492188 -135.96875 99.109375 -131.78125 C 103.734375 -127.601562 107.34375 -122.628906 109.9375 -116.859375 C 112.53125 -111.085938 113.828125 -104.8125 113.828125 -98.03125 C 113.828125 -89.375 111.734375 -81.546875 107.546875 -74.546875 C 103.367188 -67.554688 97.597656 -62.113281 90.234375 -58.21875 L 124.21875 0 L 87.421875 0 L 59.296875 -50.859375 L 47.828125 -50.859375 L 47.828125 0 L 16.234375 0 Z M 60.15625 -78.765625 C 66.9375 -78.765625 72.3125 -80.457031 76.28125 -83.84375 C 80.25 -87.238281 82.234375 -91.894531 82.234375 -97.8125 C 82.234375 -103.726562 80.210938 -108.128906 76.171875 -111.015625 C 72.128906 -113.898438 66.789062 -115.34375 60.15625 -115.34375 L 47.828125 -115.34375 L 47.828125 -78.765625 Z M 60.15625 -78.765625"/></g></g></g></g></g><g fill-opacity="1" fill="#ffffff"><g transform="translate(427.275191, 1072.712696)"><g><path d="M 5.046875 -37.515625 L 17.296875 -37.515625 C 20.171875 -37.515625 22.820312 -37.046875 25.25 -36.109375 C 27.675781 -35.179688 29.773438 -33.878906 31.546875 -32.203125 C 33.328125 -30.523438 34.71875 -28.535156 35.71875 -26.234375 C 36.726562 -23.941406 37.234375 -21.453125 37.234375 -18.765625 C 37.234375 -16.078125 36.726562 -13.582031 35.71875 -11.28125 C 34.71875 -8.988281 33.328125 -7.007812 31.546875 -5.34375 C 29.773438 -3.6875 27.675781 -2.378906 25.25 -1.421875 C 22.820312 -0.472656 20.171875 0 17.296875 0 L 5.046875 0 Z M 17.25 -3.640625 C 19.519531 -3.640625 21.625 -4.007812 23.5625 -4.75 C 25.507812 -5.5 27.179688 -6.546875 28.578125 -7.890625 C 29.984375 -9.234375 31.078125 -10.828125 31.859375 -12.671875 C 32.648438 -14.523438 33.046875 -16.554688 33.046875 -18.765625 C 33.046875 -20.960938 32.648438 -22.984375 31.859375 -24.828125 C 31.078125 -26.679688 29.984375 -28.28125 28.578125 -29.625 C 27.179688 -30.96875 25.507812 -32.007812 23.5625 -32.75 C 21.625 -33.5 19.519531 -33.875 17.25 -33.875 L 8.953125 -33.875 L 8.953125 -3.640625 Z M 17.25 -3.640625"/></g></g></g><g fill-opacity="1" fill="#ffffff"><g transform="translate(504.829609, 1072.712696)"><g><path d="M 5.046875 -37.515625 L 24.359375 -37.515625 L 24.359375 -33.875 L 8.953125 -33.875 L 8.953125 -21.28125 L 20.71875 -21.28125 L 20.71875 -17.640625 L 8.953125 -17.640625 L 8.953125 -3.640625 L 24.640625 -3.640625 L 24.640625 0 L 5.046875 0 Z M 5.046875 -37.515625"/></g></g></g><g fill-opacity="1" fill="#ffffff"><g transform="translate(570.345713, 1072.712696)"><g><path d="M 1.6875 -37.515625 L 5.828125 -37.515625 L 16.078125 -8.171875 L 26.9375 -37.515625 L 30.796875 -37.515625 L 16.40625 1.125 L 15.28125 1.125 Z M 1.6875 -37.515625"/></g></g></g><g fill-opacity="1" fill="#ffffff"><g transform="translate(640.341182, 1072.712696)"><g><path d="M 5.046875 -37.515625 L 24.359375 -37.515625 L 24.359375 -33.875 L 8.953125 -33.875 L 8.953125 -21.28125 L 20.71875 -21.28125 L 20.71875 -17.640625 L 8.953125 -17.640625 L 8.953125 -3.640625 L 24.640625 -3.640625 L 24.640625 0 L 5.046875 0 Z M 5.046875 -37.515625"/></g></g></g><g fill-opacity="1" fill="#ffffff"><g transform="translate(705.857298, 1072.712696)"><g><path d="M 5.046875 -37.515625 L 8.953125 -37.515625 L 8.953125 -3.640625 L 24.078125 -3.640625 L 24.078125 0 L 5.046875 0 Z M 5.046875 -37.515625"/></g></g></g><g fill-opacity="1" fill="#ffffff"><g transform="translate(766.613907, 1072.712696)"><g><path d="M 21.5625 0.5625 C 18.988281 0.5625 16.5625 0.0546875 14.28125 -0.953125 C 12 -1.960938 10.007812 -3.34375 8.3125 -5.09375 C 6.613281 -6.851562 5.269531 -8.898438 4.28125 -11.234375 C 3.289062 -13.566406 2.796875 -16.078125 2.796875 -18.765625 C 2.796875 -21.410156 3.289062 -23.910156 4.28125 -26.265625 C 5.269531 -28.617188 6.613281 -30.671875 8.3125 -32.421875 C 10.007812 -34.179688 12 -35.5625 14.28125 -36.5625 C 16.5625 -37.570312 18.988281 -38.078125 21.5625 -38.078125 C 24.132812 -38.078125 26.554688 -37.570312 28.828125 -36.5625 C 31.109375 -35.5625 33.097656 -34.179688 34.796875 -32.421875 C 36.503906 -30.671875 37.847656 -28.628906 38.828125 -26.296875 C 39.816406 -23.960938 40.3125 -21.453125 40.3125 -18.765625 C 40.3125 -16.109375 39.816406 -13.613281 38.828125 -11.28125 C 37.847656 -8.945312 36.503906 -6.898438 34.796875 -5.140625 C 33.097656 -3.390625 31.109375 -2 28.828125 -0.96875 C 26.554688 0.0507812 24.132812 0.5625 21.5625 0.5625 Z M 21.5625 -3.296875 C 23.613281 -3.296875 25.535156 -3.6875 27.328125 -4.46875 C 29.117188 -5.257812 30.65625 -6.34375 31.9375 -7.71875 C 33.226562 -9.101562 34.25 -10.738281 35 -12.625 C 35.75 -14.507812 36.125 -16.554688 36.125 -18.765625 C 36.125 -20.960938 35.75 -23.003906 35 -24.890625 C 34.25 -26.773438 33.226562 -28.40625 31.9375 -29.78125 C 30.65625 -31.164062 29.117188 -32.25 27.328125 -33.03125 C 25.535156 -33.820312 23.613281 -34.21875 21.5625 -34.21875 C 19.46875 -34.21875 17.535156 -33.820312 15.765625 -33.03125 C 13.992188 -32.25 12.460938 -31.164062 11.171875 -29.78125 C 9.878906 -28.40625 8.859375 -26.773438 8.109375 -24.890625 C 7.367188 -23.003906 7 -20.960938 7 -18.765625 C 7 -16.554688 7.367188 -14.507812 8.109375 -12.625 C 8.859375 -10.738281 9.878906 -9.101562 11.171875 -7.71875 C 12.460938 -6.34375 13.992188 -5.257812 15.765625 -4.46875 C 17.535156 -3.6875 19.46875 -3.296875 21.5625 -3.296875 Z M 21.5625 -3.296875"/></g></g></g><g fill-opacity="1" fill="#ffffff"><g transform="translate(847.247873, 1072.712696)"><g><path d="M 5.046875 -37.515625 L 14 -37.515625 C 15.863281 -37.515625 17.585938 -37.234375 19.171875 -36.671875 C 20.765625 -36.117188 22.128906 -35.335938 23.265625 -34.328125 C 24.398438 -33.316406 25.285156 -32.117188 25.921875 -30.734375 C 26.554688 -29.359375 26.875 -27.847656 26.875 -26.203125 C 26.875 -24.566406 26.554688 -23.054688 25.921875 -21.671875 C 25.285156 -20.285156 24.398438 -19.085938 23.265625 -18.078125 C 22.128906 -17.078125 20.765625 -16.296875 19.171875 -15.734375 C 17.585938 -15.171875 15.863281 -14.890625 14 -14.890625 L 8.953125 -14.890625 L 8.953125 0 L 5.046875 0 Z M 14 -18.53125 C 16.6875 -18.53125 18.847656 -19.226562 20.484375 -20.625 C 22.128906 -22.03125 22.953125 -23.910156 22.953125 -26.265625 C 22.953125 -28.578125 22.128906 -30.421875 20.484375 -31.796875 C 18.847656 -33.179688 16.6875 -33.875 14 -33.875 L 8.953125 -33.875 L 8.953125 -18.53125 Z M 14 -18.53125"/></g></g></g><g fill-opacity="1" fill="#ffffff"><g transform="translate(914.163806, 1072.712696)"><g><path d="M 5.046875 -38.640625 L 6.15625 -38.640625 L 22.796875 -15.0625 L 39.203125 -38.640625 L 40.3125 -38.640625 L 40.3125 0 L 36.40625 0 L 36.40625 -28.0625 L 23.234375 -9.234375 L 22.125 -9.234375 L 8.953125 -27.78125 L 8.953125 0 L 5.046875 0 Z M 5.046875 -38.640625"/></g></g></g><g fill-opacity="1" fill="#ffffff"><g transform="translate(997.037471, 1072.712696)"><g><path d="M 5.046875 -37.515625 L 24.359375 -37.515625 L 24.359375 -33.875 L 8.953125 -33.875 L 8.953125 -21.28125 L 20.71875 -21.28125 L 20.71875 -17.640625 L 8.953125 -17.640625 L 8.953125 -3.640625 L 24.640625 -3.640625 L 24.640625 0 L 5.046875 0 Z M 5.046875 -37.515625"/></g></g></g><g fill-opacity="1" fill="#ffffff"><g transform="translate(1062.553563, 1072.712696)"><g><path d="M 8.84375 -29.171875 L 8.84375 0 L 5.046875 0 L 5.046875 -38.640625 L 6.15625 -38.640625 L 31.46875 -8.34375 L 31.46875 -37.515625 L 35.28125 -37.515625 L 35.28125 1.125 L 34.15625 1.125 Z M 8.84375 -29.171875"/></g></g></g><g fill-opacity="1" fill="#ffffff"><g transform="translate(1140.387984, 1072.712696)"><g><path d="M 14 -33.875 L 1.6875 -33.875 L 1.6875 -37.515625 L 30.234375 -37.515625 L 30.234375 -33.875 L 17.921875 -33.875 L 17.921875 0 L 14 0 Z M 14 -33.875"/></g></g></g></svg>